<?xml version="1.0" encoding="UTF-8" standalone="no"?>
<!-- Created with Inkscape (http://www.inkscape.org/) -->

<svg
   xmlns:dc="http://purl.org/dc/elements/1.1/"
   xmlns:cc="http://creativecommons.org/ns#"
   xmlns:rdf="http://www.w3.org/1999/02/22-rdf-syntax-ns#"
   xmlns:svg="http://www.w3.org/2000/svg"
   xmlns="http://www.w3.org/2000/svg"
   xmlns:sodipodi="http://sodipodi.sourceforge.net/DTD/sodipodi-0.dtd"
   xmlns:inkscape="http://www.inkscape.org/namespaces/inkscape"
   width="96.504539mm"
   height="95.959785mm"
   viewBox="0 0 96.504539 95.959785"
   version="1.1"
   id="svg34199"
   inkscape:version="0.92.3 (2405546, 2018-03-11)"
   sodipodi:docname="2d_norms.svg">
  <sodipodi:namedview
     id="base"
     pagecolor="#ffffff"
     bordercolor="#666666"
     borderopacity="1.0"
     inkscape:pageopacity="0.0"
     inkscape:pageshadow="2"
     inkscape:zoom="0.22627417"
     inkscape:cx="-720.25846"
     inkscape:cy="870.21859"
     inkscape:document-units="mm"
     inkscape:current-layer="layer1"
     showgrid="false"
     inkscape:snap-bbox="true"
     inkscape:bbox-paths="true"
     inkscape:bbox-nodes="true"
     inkscape:snap-bbox-edge-midpoints="true"
     inkscape:snap-bbox-midpoints="true"
     inkscape:window-width="1837"
     inkscape:window-height="1025"
     inkscape:window-x="83"
     inkscape:window-y="27"
     inkscape:window-maximized="1"
     inkscape:object-paths="true"
     inkscape:snap-intersection-paths="true"
     inkscape:snap-smooth-nodes="true"
     inkscape:snap-global="false"
     fit-margin-top="0"
     fit-margin-left="0"
     fit-margin-right="0"
     fit-margin-bottom="0" />
  <defs
     id="defs34193">
    <marker
       inkscape:isstock="true"
       style="overflow:visible"
       id="marker34849"
       refX="0"
       refY="0"
       orient="auto"
       inkscape:stockid="Arrow2Lstart">
      <path
         transform="matrix(1.1,0,0,1.1,1.1,0)"
         d="M 8.7185878,4.0337352 -2.2072895,0.01601326 8.7185884,-4.0017078 c -1.7454984,2.3720609 -1.7354408,5.6174519 -6e-7,8.035443 z"
         style="fill:#000000;fill-opacity:1;fill-rule:evenodd;stroke:#000000;stroke-width:0.625;stroke-linejoin:round;stroke-opacity:1"
         id="path34847"
         inkscape:connector-curvature="0" />
    </marker>
    <marker
       inkscape:isstock="true"
       style="overflow:visible"
       id="marker34815"
       refX="0"
       refY="0"
       orient="auto"
       inkscape:stockid="Arrow2Lend">
      <path
         transform="matrix(-1.1,0,0,-1.1,-1.1,0)"
         d="M 8.7185878,4.0337352 -2.2072895,0.01601326 8.7185884,-4.0017078 c -1.7454984,2.3720609 -1.7354408,5.6174519 -6e-7,8.035443 z"
         style="fill:#000000;fill-opacity:1;fill-rule:evenodd;stroke:#000000;stroke-width:0.625;stroke-linejoin:round;stroke-opacity:1"
         id="path34813"
         inkscape:connector-curvature="0" />
    </marker>
    <marker
       inkscape:isstock="true"
       style="overflow:visible"
       id="Arrow2Lstart"
       refX="0"
       refY="0"
       orient="auto"
       inkscape:stockid="Arrow2Lstart">
      <path
         transform="matrix(1.1,0,0,1.1,1.1,0)"
         d="M 8.7185878,4.0337352 -2.2072895,0.01601326 8.7185884,-4.0017078 c -1.7454984,2.3720609 -1.7354408,5.6174519 -6e-7,8.035443 z"
         style="fill:#000000;fill-opacity:1;fill-rule:evenodd;stroke:#000000;stroke-width:0.625;stroke-linejoin:round;stroke-opacity:1"
         id="path936"
         inkscape:connector-curvature="0" />
    </marker>
    <marker
       inkscape:isstock="true"
       style="overflow:visible"
       id="Arrow2Lend"
       refX="0"
       refY="0"
       orient="auto"
       inkscape:stockid="Arrow2Lend">
      <path
         transform="matrix(-1.1,0,0,-1.1,-1.1,0)"
         d="M 8.7185878,4.0337352 -2.2072895,0.01601326 8.7185884,-4.0017078 c -1.7454984,2.3720609 -1.7354408,5.6174519 -6e-7,8.035443 z"
         style="fill:#000000;fill-opacity:1;fill-rule:evenodd;stroke:#000000;stroke-width:0.625;stroke-linejoin:round;stroke-opacity:1"
         id="path939"
         inkscape:connector-curvature="0" />
    </marker>
  </defs>
  <metadata
     id="metadata34196">
    <rdf:RDF>
      <cc:Work
         rdf:about="">
        <dc:format>image/svg+xml</dc:format>
        <dc:type
           rdf:resource="http://purl.org/dc/dcmitype/StillImage" />
        <dc:title></dc:title>
      </cc:Work>
    </rdf:RDF>
  </metadata>
  <g
     id="layer1"
     inkscape:groupmode="layer"
     inkscape:label="Layer 1"
     transform="translate(21.203715,-44.46387)">
    <path
       inkscape:connector-curvature="0"
       id="path34744"
       d="M 25.95334,139.7619 V 47.164444"
       style="fill:none;stroke:#000000;stroke-width:0.39585546;stroke-linecap:butt;stroke-linejoin:miter;stroke-miterlimit:4;stroke-dasharray:none;stroke-opacity:1;marker-start:url(#Arrow2Lstart);marker-end:url(#Arrow2Lend)"
       inkscape:export-xdpi="96"
       inkscape:export-ydpi="96" />
    <path
       inkscape:connector-curvature="0"
       id="path34744-5"
       d="M -20.543003,93.265551 H 72.054448"
       style="fill:none;stroke:#000000;stroke-width:0.39523304px;stroke-linecap:butt;stroke-linejoin:miter;stroke-opacity:1;marker-start:url(#marker34849);marker-end:url(#marker34815)"
       inkscape:export-xdpi="96"
       inkscape:export-ydpi="96" />
    <circle
       r="29.457197"
       cy="93.463181"
       cx="25.953342"
       id="path34893"
       style="fill:none;fill-opacity:1;stroke:#11ff00;stroke-width:0.74344784;stroke-miterlimit:4;stroke-dasharray:none;stroke-dashoffset:0;stroke-opacity:1"
       inkscape:export-xdpi="96"
       inkscape:export-ydpi="96" />
    <rect
       y="64.055435"
       x="-3.4543996"
       height="58.815479"
       width="58.815479"
       id="rect34914"
       style="fill:none;fill-opacity:1;stroke:#1100d7;stroke-width:0.74344784;stroke-miterlimit:4;stroke-dasharray:none;stroke-dashoffset:0;stroke-opacity:1"
       inkscape:export-xdpi="96"
       inkscape:export-ydpi="96" />
    <path
       inkscape:connector-curvature="0"
       id="path34918"
       d="M 25.953342,122.92038 55.410537,93.463178 25.953342,64.005987 -3.5038587,93.463178 25.953342,122.92038"
       style="fill:none;stroke:#ff0000;stroke-width:0.74344784;stroke-linecap:butt;stroke-linejoin:miter;stroke-miterlimit:4;stroke-dasharray:none;stroke-opacity:1"
       inkscape:export-xdpi="96"
       inkscape:export-ydpi="96" />
    <path
       id="path35297"
       d="m 71.101357,88.756142 c 0.20517,0 0.712696,-0.0216 1.058246,-0.16197 0.485929,-0.20517 0.518324,-0.61551 0.518324,-0.7127 0,-0.30236 -0.259162,-0.58311 -0.734293,-0.58311 -0.766688,0 -1.814135,0.6695 -1.814135,1.87892 0,0.7019 0.41034,1.24182 1.090641,1.24182 0.982656,0 1.554973,-0.73429 1.554973,-0.80988 0,-0.0432 -0.0324,-0.0972 -0.07559,-0.0972 -0.04319,0 -0.05399,0.0216 -0.09719,0.0756 -0.539921,0.6803 -1.295811,0.6803 -1.3714,0.6803 -0.539921,0 -0.604711,-0.58311 -0.604711,-0.79908 0,-0.0864 0.0108,-0.29156 0.107984,-0.7127 z m -0.323952,-0.15118 c 0.26996,-1.04744 0.982656,-1.15543 1.166229,-1.15543 0.313154,0 0.507526,0.20517 0.507526,0.43194 0,0.72349 -1.101439,0.72349 -1.392996,0.72349 z m 0,0"
       style="fill:#000000;fill-opacity:1;stroke:none;stroke-width:0"
       inkscape:connector-curvature="0"
       inkscape:export-xdpi="96"
       inkscape:export-ydpi="96" />
    <path
       id="path35301"
       d="m 74.631319,88.309262 c 0,-0.12958 0,-0.12958 -0.14038,-0.12958 -0.313154,0.30235 -0.745091,0.30235 -0.939462,0.30235 v 0.17278 c 0.107984,0 0.431937,0 0.691099,-0.12958 v 2.45124 c 0,0.16197 0,0.22677 -0.475131,0.22677 h -0.183573 v 0.17277 c 0.08639,0 0.680301,-0.0216 0.853075,-0.0216 0.151178,0 0.75589,0.0216 0.863874,0.0216 v -0.17277 h -0.183573 c -0.485929,0 -0.485929,-0.0648 -0.485929,-0.22677 z m 0,0"
       style="fill:#000000;fill-opacity:1;stroke:none;stroke-width:0"
       inkscape:connector-curvature="0"
       inkscape:export-xdpi="96"
       inkscape:export-ydpi="96" />
    <path
       id="path35305"
       d="m 28.817713,45.92165 c 0.20517,0 0.712696,-0.0216 1.058246,-0.16197 0.485929,-0.20517 0.518324,-0.61551 0.518324,-0.7127 0,-0.30236 -0.259162,-0.58311 -0.734293,-0.58311 -0.766688,0 -1.814135,0.6695 -1.814135,1.87892 0,0.7019 0.41034,1.24182 1.090641,1.24182 0.982656,0 1.554973,-0.73429 1.554973,-0.80988 0,-0.0432 -0.0324,-0.0972 -0.07559,-0.0972 -0.04319,0 -0.05399,0.0216 -0.09719,0.0756 -0.539921,0.6803 -1.295811,0.6803 -1.3714,0.6803 -0.539921,0 -0.604711,-0.58311 -0.604711,-0.79908 0,-0.0864 0.0108,-0.29156 0.107984,-0.7127 z m -0.323952,-0.15118 c 0.26996,-1.04744 0.982656,-1.15543 1.166229,-1.15543 0.313154,0 0.507526,0.20517 0.507526,0.43194 0,0.72349 -1.101439,0.72349 -1.392996,0.72349 z m 0,0"
       style="fill:#000000;fill-opacity:1;stroke:none;stroke-width:0"
       inkscape:connector-curvature="0"
       inkscape:export-xdpi="96"
       inkscape:export-ydpi="96" />
    <path
       id="path35309"
       d="m 33.167663,47.66685 h -0.161976 c -0.0108,0.10798 -0.06479,0.38874 -0.129581,0.43193 -0.0324,0.0324 -0.399542,0.0324 -0.475131,0.0324 h -0.885471 c 0.507526,-0.44274 0.680301,-0.58311 0.96106,-0.80988 0.356348,-0.28076 0.691099,-0.58312 0.691099,-1.03665 0,-0.58311 -0.507526,-0.93946 -1.123036,-0.93946 -0.593913,0 -1.004253,0.42114 -1.004253,0.86387 0,0.23757 0.20517,0.26996 0.259162,0.26996 0.107984,0 0.248364,-0.0864 0.248364,-0.25916 0,-0.0864 -0.0324,-0.25916 -0.280759,-0.25916 0.151178,-0.33475 0.47513,-0.44274 0.701897,-0.44274 0.485929,0 0.734293,0.37795 0.734293,0.76669 0,0.42114 -0.302356,0.74509 -0.453534,0.91787 l -1.155431,1.15543 c -0.05399,0.0432 -0.05399,0.054 -0.05399,0.18357 h 1.986909 z m 0,0"
       style="fill:#000000;fill-opacity:1;stroke:none;stroke-width:0"
       inkscape:connector-curvature="0"
       inkscape:export-xdpi="96"
       inkscape:export-ydpi="96" />
    <g
       id="g35589"
       transform="translate(5.52379,-48.848854)"
       style="fill:#ff0000;fill-opacity:1;stroke:#ff0000;stroke-opacity:1"
       inkscape:export-xdpi="96"
       inkscape:export-ydpi="96">
      <path
         inkscape:connector-curvature="0"
         style="fill:#ff0000;fill-opacity:1;stroke:#ff0000;stroke-width:0;stroke-opacity:1"
         d="m 24.438401,147.43179 c 0,-0.11878 0,-0.24836 -0.129581,-0.24836 -0.14038,0 -0.14038,0.12958 -0.14038,0.24836 v 6.40346 c 0,0.11879 0,0.24837 0.14038,0.24837 0.129581,0 0.129581,-0.12958 0.129581,-0.24837 z m 0,0"
         id="path35313" />
      <path
         inkscape:connector-curvature="0"
         style="fill:#ff0000;fill-opacity:1;stroke:#ff0000;stroke-width:0;stroke-opacity:1"
         d="m 26.351093,147.43179 c 0,-0.11878 0,-0.24836 -0.129581,-0.24836 -0.14038,0 -0.14038,0.12958 -0.14038,0.24836 v 6.40346 c 0,0.11879 0,0.24837 0.14038,0.24837 0.129581,0 0.129581,-0.12958 0.129581,-0.24837 z m 0,0"
         id="path35315" />
      <path
         inkscape:connector-curvature="0"
         style="fill:#ff0000;fill-opacity:1;stroke:#ff0000;stroke-width:0;stroke-opacity:1"
         d="m 29.472366,150.27177 c 0.04319,-0.17277 0.20517,-0.80988 0.6803,-0.80988 0.0324,0 0.20517,0 0.34555,0.0864 -0.194372,0.0432 -0.323953,0.20517 -0.323953,0.37795 0,0.10798 0.07559,0.23756 0.259162,0.23756 0.151178,0 0.367147,-0.11878 0.367147,-0.39954 0,-0.35635 -0.399542,-0.45353 -0.637107,-0.45353 -0.399542,0 -0.637107,0.36714 -0.723494,0.51832 -0.172775,-0.45353 -0.539922,-0.51832 -0.745092,-0.51832 -0.712695,0 -1.112237,0.88547 -1.112237,1.05824 0,0.0756 0.07559,0.0756 0.08639,0.0756 0.05399,0 0.07559,-0.0216 0.08639,-0.0756 0.237565,-0.73429 0.691099,-0.90707 0.928664,-0.90707 0.129581,0 0.367146,0.0648 0.367146,0.46434 0,0.21596 -0.118782,0.6695 -0.367146,1.64136 -0.107984,0.42113 -0.356348,0.71269 -0.658704,0.71269 -0.04319,0 -0.194371,0 -0.345549,-0.0864 0.172775,-0.0432 0.323952,-0.18357 0.323952,-0.37794 0,-0.18357 -0.151177,-0.23757 -0.248363,-0.23757 -0.215969,0 -0.377945,0.17278 -0.377945,0.39955 0,0.31315 0.334751,0.45353 0.637107,0.45353 0.464332,0 0.712696,-0.48593 0.723494,-0.51833 0.08639,0.24837 0.334751,0.51833 0.745091,0.51833 0.712696,0 1.101439,-0.88547 1.101439,-1.05825 0,-0.0756 -0.05399,-0.0756 -0.07559,-0.0756 -0.06479,0 -0.07559,0.0324 -0.09718,0.0756 -0.226767,0.74509 -0.691099,0.90707 -0.907068,0.90707 -0.26996,0 -0.377945,-0.21597 -0.377945,-0.45353 0,-0.15118 0.0324,-0.30236 0.107985,-0.60471 z m 0,0"
         id="path35319" />
      <path
         inkscape:connector-curvature="0"
         style="fill:#ff0000;fill-opacity:1;stroke:#ff0000;stroke-width:0;stroke-opacity:1"
         d="m 32.19806,147.43179 c 0,-0.11878 0,-0.24836 -0.129581,-0.24836 -0.14038,0 -0.14038,0.12958 -0.14038,0.24836 v 6.40346 c 0,0.11879 0,0.24837 0.14038,0.24837 0.129581,0 0.129581,-0.12958 0.129581,-0.24837 z m 0,0"
         id="path35323" />
      <path
         inkscape:connector-curvature="0"
         style="fill:#ff0000;fill-opacity:1;stroke:#ff0000;stroke-width:0;stroke-opacity:1"
         d="m 34.11075,147.43179 c 0,-0.11878 0,-0.24836 -0.129578,-0.24836 -0.14038,0 -0.14038,0.12958 -0.14038,0.24836 v 6.40346 c 0,0.11879 0,0.24837 0.14038,0.24837 0.129578,0 0.129578,-0.12958 0.129578,-0.24837 z m 0,0"
         id="path35325" />
      <path
         inkscape:connector-curvature="0"
         style="fill:#ff0000;fill-opacity:1;stroke:#ff0000;stroke-width:0;stroke-opacity:1"
         d="m 36.54161,150.32162 c 0,-0.12958 0,-0.12958 -0.14037,-0.12958 -0.31316,0.30235 -0.7451,0.30235 -0.93947,0.30235 v 0.17278 c 0.10799,0 0.43194,0 0.6911,-0.12958 v 2.45124 c 0,0.16197 0,0.22677 -0.47513,0.22677 h -0.18357 v 0.17277 c 0.0864,0 0.6803,-0.0216 0.85307,-0.0216 0.15118,0 0.75589,0.0216 0.86388,0.0216 v -0.17277 h -0.18358 c -0.48593,0 -0.48593,-0.0648 -0.48593,-0.22677 z m 0,0"
         id="path35329" />
    </g>
    <g
       id="g35597"
       style="fill:#00ff00;fill-opacity:1"
       transform="translate(-41.364135,-80.097336)"
       inkscape:export-xdpi="96"
       inkscape:export-ydpi="96">
      <path
         inkscape:connector-curvature="0"
         style="fill:#00ff00;fill-opacity:1;stroke:none;stroke-width:0"
         d="m 39.1125,147.43179 c 0,-0.11878 0,-0.24836 -0.12958,-0.24836 -0.14038,0 -0.14038,0.12958 -0.14038,0.24836 v 6.40346 c 0,0.11879 0,0.24837 0.14038,0.24837 0.12958,0 0.12958,-0.12958 0.12958,-0.24837 z m 0,0"
         id="path35333" />
      <path
         inkscape:connector-curvature="0"
         style="fill:#00ff00;fill-opacity:1;stroke:none;stroke-width:0"
         d="m 41.0252,147.43179 c 0,-0.11878 0,-0.24836 -0.12958,-0.24836 -0.14038,0 -0.14038,0.12958 -0.14038,0.24836 v 6.40346 c 0,0.11879 0,0.24837 0.14038,0.24837 0.12958,0 0.12958,-0.12958 0.12958,-0.24837 z m 0,0"
         id="path35335" />
      <path
         inkscape:connector-curvature="0"
         style="fill:#00ff00;fill-opacity:1;stroke:none;stroke-width:0"
         d="m 44.14647,150.27177 c 0.0432,-0.17277 0.20517,-0.80988 0.6803,-0.80988 0.0324,0 0.20517,0 0.34555,0.0864 -0.19437,0.0432 -0.32395,0.20517 -0.32395,0.37795 0,0.10798 0.0756,0.23756 0.25916,0.23756 0.15118,0 0.36715,-0.11878 0.36715,-0.39954 0,-0.35635 -0.39954,-0.45353 -0.63711,-0.45353 -0.39954,0 -0.6371,0.36714 -0.72349,0.51832 -0.17278,-0.45353 -0.53992,-0.51832 -0.74509,-0.51832 -0.7127,0 -1.11224,0.88547 -1.11224,1.05824 0,0.0756 0.0756,0.0756 0.0864,0.0756 0.054,0 0.0756,-0.0216 0.0864,-0.0756 0.23757,-0.73429 0.6911,-0.90707 0.92867,-0.90707 0.12958,0 0.36715,0.0648 0.36715,0.46434 0,0.21596 -0.11879,0.6695 -0.36715,1.64136 -0.10799,0.42113 -0.35635,0.71269 -0.6587,0.71269 -0.0432,0 -0.19438,0 -0.34555,-0.0864 0.17277,-0.0432 0.32395,-0.18357 0.32395,-0.37794 0,-0.18357 -0.15118,-0.23757 -0.24837,-0.23757 -0.21596,0 -0.37794,0.17278 -0.37794,0.39955 0,0.31315 0.33475,0.45353 0.63711,0.45353 0.46433,0 0.71269,-0.48593 0.72349,-0.51833 0.0864,0.24837 0.33475,0.51833 0.74509,0.51833 0.7127,0 1.10144,-0.88547 1.10144,-1.05825 0,-0.0756 -0.054,-0.0756 -0.0756,-0.0756 -0.0648,0 -0.0756,0.0324 -0.0972,0.0756 -0.22677,0.74509 -0.6911,0.90707 -0.90707,0.90707 -0.26996,0 -0.37795,-0.21597 -0.37795,-0.45353 0,-0.15118 0.0324,-0.30236 0.10799,-0.60471 z m 0,0"
         id="path35339" />
      <path
         inkscape:connector-curvature="0"
         style="fill:#00ff00;fill-opacity:1;stroke:none;stroke-width:0"
         d="m 46.87216,147.43179 c 0,-0.11878 0,-0.24836 -0.12958,-0.24836 -0.14038,0 -0.14038,0.12958 -0.14038,0.24836 v 6.40346 c 0,0.11879 0,0.24837 0.14038,0.24837 0.12958,0 0.12958,-0.12958 0.12958,-0.24837 z m 0,0"
         id="path35343" />
      <path
         inkscape:connector-curvature="0"
         style="fill:#00ff00;fill-opacity:1;stroke:none;stroke-width:0"
         d="m 48.78486,147.43179 c 0,-0.11878 0,-0.24836 -0.12958,-0.24836 -0.14038,0 -0.14038,0.12958 -0.14038,0.24836 v 6.40346 c 0,0.11879 0,0.24837 0.14038,0.24837 0.12958,0 0.12958,-0.12958 0.12958,-0.24837 z m 0,0"
         id="path35345" />
      <path
         inkscape:connector-curvature="0"
         style="fill:#00ff00;fill-opacity:1;stroke:none;stroke-width:0"
         d="m 52.0364,152.5137 h -0.16197 c -0.0108,0.10798 -0.0648,0.38874 -0.12958,0.43193 -0.0324,0.0324 -0.39954,0.0324 -0.47513,0.0324 h -0.88547 c 0.50752,-0.44274 0.6803,-0.58311 0.96106,-0.80988 0.35634,-0.28076 0.69109,-0.58312 0.69109,-1.03665 0,-0.58311 -0.50752,-0.93946 -1.12303,-0.93946 -0.59391,0 -1.00425,0.42114 -1.00425,0.86387 0,0.23757 0.20517,0.26996 0.25916,0.26996 0.10798,0 0.24836,-0.0864 0.24836,-0.25916 0,-0.0864 -0.0324,-0.25916 -0.28076,-0.25916 0.15118,-0.33475 0.47513,-0.44274 0.7019,-0.44274 0.48593,0 0.73429,0.37795 0.73429,0.76669 0,0.42114 -0.30235,0.74509 -0.45353,0.91787 l -1.15543,1.15543 c -0.054,0.0432 -0.054,0.054 -0.054,0.18357 h 1.98691 z m 0,0"
         id="path35349" />
    </g>
    <g
       id="g35605"
       transform="translate(-4.3848907,-23.239921)"
       inkscape:export-xdpi="96"
       inkscape:export-ydpi="96">
      <path
         inkscape:connector-curvature="0"
         style="fill:#0000fb;fill-opacity:1;stroke:none;stroke-width:0"
         d="m 53.78592,147.43179 c 0,-0.11878 0,-0.24836 -0.12958,-0.24836 -0.14038,0 -0.14038,0.12958 -0.14038,0.24836 v 6.40346 c 0,0.11879 0,0.24837 0.14038,0.24837 0.12958,0 0.12958,-0.12958 0.12958,-0.24837 z m 0,0"
         id="path35353" />
      <path
         inkscape:connector-curvature="0"
         style="fill:#0000fb;fill-opacity:1;stroke:none;stroke-width:0"
         d="m 55.69861,147.43179 c 0,-0.11878 0,-0.24836 -0.12958,-0.24836 -0.14038,0 -0.14038,0.12958 -0.14038,0.24836 v 6.40346 c 0,0.11879 0,0.24837 0.14038,0.24837 0.12958,0 0.12958,-0.12958 0.12958,-0.24837 z m 0,0"
         id="path35355" />
      <path
         inkscape:connector-curvature="0"
         style="fill:#0000fb;fill-opacity:1;stroke:none;stroke-width:0"
         d="m 58.82057,150.27177 c 0.0432,-0.17277 0.20517,-0.80988 0.6803,-0.80988 0.0324,0 0.20517,0 0.34555,0.0864 -0.19437,0.0432 -0.32395,0.20517 -0.32395,0.37795 0,0.10798 0.0756,0.23756 0.25916,0.23756 0.15118,0 0.36715,-0.11878 0.36715,-0.39954 0,-0.35635 -0.39954,-0.45353 -0.63711,-0.45353 -0.39954,0 -0.6371,0.36714 -0.72349,0.51832 -0.17278,-0.45353 -0.53992,-0.51832 -0.74509,-0.51832 -0.7127,0 -1.11224,0.88547 -1.11224,1.05824 0,0.0756 0.0756,0.0756 0.0864,0.0756 0.054,0 0.0756,-0.0216 0.0864,-0.0756 0.23757,-0.73429 0.6911,-0.90707 0.92867,-0.90707 0.12958,0 0.36715,0.0648 0.36715,0.46434 0,0.21596 -0.11879,0.6695 -0.36715,1.64136 -0.10799,0.42113 -0.35635,0.71269 -0.6587,0.71269 -0.0432,0 -0.19438,0 -0.34555,-0.0864 0.17277,-0.0432 0.32395,-0.18357 0.32395,-0.37794 0,-0.18357 -0.15118,-0.23757 -0.24837,-0.23757 -0.21596,0 -0.37794,0.17278 -0.37794,0.39955 0,0.31315 0.33475,0.45353 0.63711,0.45353 0.46433,0 0.71269,-0.48593 0.72349,-0.51833 0.0864,0.24837 0.33475,0.51833 0.74509,0.51833 0.7127,0 1.10144,-0.88547 1.10144,-1.05825 0,-0.0756 -0.054,-0.0756 -0.0756,-0.0756 -0.0648,0 -0.0756,0.0324 -0.0972,0.0756 -0.22677,0.74509 -0.6911,0.90707 -0.90707,0.90707 -0.26996,0 -0.37795,-0.21597 -0.37795,-0.45353 0,-0.15118 0.0324,-0.30236 0.10799,-0.60471 z m 0,0"
         id="path35359" />
      <path
         inkscape:connector-curvature="0"
         style="fill:#0000fb;fill-opacity:1;stroke:none;stroke-width:0"
         d="m 61.54627,147.43179 c 0,-0.11878 0,-0.24836 -0.12958,-0.24836 -0.14038,0 -0.14038,0.12958 -0.14038,0.24836 v 6.40346 c 0,0.11879 0,0.24837 0.14038,0.24837 0.12958,0 0.12958,-0.12958 0.12958,-0.24837 z m 0,0"
         id="path35363" />
      <path
         inkscape:connector-curvature="0"
         style="fill:#0000fb;fill-opacity:1;stroke:none;stroke-width:0"
         d="m 63.45896,147.43179 c 0,-0.11878 0,-0.24836 -0.12958,-0.24836 -0.14038,0 -0.14038,0.12958 -0.14038,0.24836 v 6.40346 c 0,0.11879 0,0.24837 0.14038,0.24837 0.12958,0 0.12958,-0.12958 0.12958,-0.24837 z m 0,0"
         id="path35365" />
      <path
         inkscape:connector-curvature="0"
         style="fill:#0000fb;fill-opacity:1;stroke:none;stroke-width:0"
         d="m 67.06685,152.07096 c -0.25916,-0.30235 -0.33475,-0.37794 -0.51832,-0.50752 -0.29156,-0.21597 -0.60471,-0.30236 -0.86388,-0.30236 -0.60471,0 -1.03664,0.51833 -1.03664,1.09064 0,0.56152 0.42113,1.07984 1.01505,1.07984 0.6695,0 1.14463,-0.53992 1.31741,-0.79908 0.24836,0.30236 0.33475,0.37795 0.50752,0.50753 0.30236,0.21596 0.60471,0.29155 0.87467,0.29155 0.59392,0 1.02585,-0.50752 1.02585,-1.07984 0,-0.57231 -0.41034,-1.09064 -1.01505,-1.09064 -0.6695,0 -1.13383,0.55072 -1.30661,0.80988 z m 0.15118,0.17278 c 0.19437,-0.31316 0.61551,-0.79909 1.19863,-0.79909 0.49672,0 0.84227,0.44274 0.84227,0.90707 0,0.45354 -0.37794,0.82068 -0.82068,0.82068 -0.45353,0 -0.75589,-0.36714 -1.22022,-0.92866 z m -0.39954,0.20517 c -0.18357,0.31315 -0.60471,0.80988 -1.19863,0.80988 -0.49672,0 -0.83147,-0.44274 -0.83147,-0.90707 0,-0.46433 0.37794,-0.82068 0.82068,-0.82068 0.44273,0 0.75589,0.36715 1.20942,0.91787 z m 0,0"
         id="path35369" />
    </g>
  </g>
</svg>
