<?xml version="1.0" encoding="UTF-8" standalone="no"?>
<!-- Created with Inkscape (http://www.inkscape.org/) -->

<svg
   xmlns:dc="http://purl.org/dc/elements/1.1/"
   xmlns:cc="http://creativecommons.org/ns#"
   xmlns:rdf="http://www.w3.org/1999/02/22-rdf-syntax-ns#"
   xmlns:svg="http://www.w3.org/2000/svg"
   xmlns="http://www.w3.org/2000/svg"
   xmlns:sodipodi="http://sodipodi.sourceforge.net/DTD/sodipodi-0.dtd"
   xmlns:inkscape="http://www.inkscape.org/namespaces/inkscape"
   width="329.31207"
   height="387.01855"
   viewBox="0 0 92.939189 109.22524"
   version="1.1"
   id="svg8"
   inkscape:version="0.48.4 r9939"
   sodipodi:docname="frustrum.svg">
  <sodipodi:namedview
     id="base"
     pagecolor="#ffffff"
     bordercolor="#666666"
     borderopacity="1.0"
     inkscape:pageopacity="0.0"
     inkscape:pageshadow="2"
     inkscape:zoom="0.7"
     inkscape:cx="-166.87398"
     inkscape:cy="60.967957"
     inkscape:document-units="mm"
     inkscape:current-layer="layer1"
     showgrid="false"
     inkscape:snap-bbox="true"
     inkscape:bbox-nodes="true"
     inkscape:snap-bbox-edge-midpoints="true"
     inkscape:snap-bbox-midpoints="true"
     inkscape:bbox-paths="true"
     inkscape:object-paths="true"
     inkscape:snap-intersection-paths="true"
     inkscape:snap-smooth-nodes="true"
     inkscape:snap-midpoints="true"
     inkscape:snap-object-midpoints="true"
     inkscape:snap-center="true"
     inkscape:snap-global="true"
     inkscape:lockguides="false"
     showguides="false"
     inkscape:guide-bbox="true"
     inkscape:window-width="1855"
     inkscape:window-height="1056"
     inkscape:window-x="65"
     inkscape:window-y="24"
     inkscape:window-maximized="1"
     fit-margin-top="0"
     fit-margin-left="0"
     fit-margin-right="0"
     fit-margin-bottom="0"
     units="mm">
    <sodipodi:guide
       inkscape:locked="false"
       id="guide145"
       orientation="-0.7099964,0.70420531"
       position="16.566227,0.44119965" />
    <sodipodi:guide
       inkscape:locked="false"
       id="guide149"
       orientation="0.90402093,-0.42748821"
       position="43.332266,57.323839" />
    <sodipodi:guide
       inkscape:locked="false"
       id="guide151"
       orientation="-0.66529818,0.74657775"
       position="16.566225,0.44120265" />
    <sodipodi:guide
       inkscape:locked="false"
       id="guide179"
       orientation="-0.31738173,0.94829786"
       position="16.301638,0.44120265" />
    <sodipodi:guide
       inkscape:locked="false"
       id="guide199"
       orientation="-0.76811532,0.64031153"
       position="16.566267,0.44124365" />
    <sodipodi:guide
       inkscape:locked="false"
       id="guide201"
       orientation="0.70980435,0.70439888"
       position="222.51146,349.00072" />
  </sodipodi:namedview>
  <defs
     id="defs2">
    <marker
       inkscape:stockid="Arrow1Lend"
       orient="auto"
       refY="0"
       refX="0"
       id="marker5594"
       style="overflow:visible"
       inkscape:isstock="true">
      <path
         inkscape:connector-curvature="0"
         id="path5592"
         d="M 0,0 5,-5 -12.5,0 5,5 z"
         style="fill:#000000;fill-opacity:1;fill-rule:evenodd;stroke:#000000;stroke-width:1pt;stroke-opacity:1"
         transform="matrix(-0.8,0,0,-0.8,-10,0)" />
    </marker>
    <marker
       inkscape:stockid="Arrow1Lend"
       orient="auto"
       refY="0"
       refX="0"
       id="marker5270"
       style="overflow:visible"
       inkscape:isstock="true">
      <path
         inkscape:connector-curvature="0"
         id="path5268"
         d="M 0,0 5,-5 -12.5,0 5,5 z"
         style="fill:#000000;fill-opacity:1;fill-rule:evenodd;stroke:#000000;stroke-width:1pt;stroke-opacity:1"
         transform="matrix(-0.8,0,0,-0.8,-10,0)" />
    </marker>
    <marker
       inkscape:stockid="Arrow1Lend"
       orient="auto"
       refY="0"
       refX="0"
       id="marker5242"
       style="overflow:visible"
       inkscape:isstock="true">
      <path
         inkscape:connector-curvature="0"
         id="path5240"
         d="M 0,0 5,-5 -12.5,0 5,5 z"
         style="fill:#000000;fill-opacity:1;fill-rule:evenodd;stroke:#000000;stroke-width:1pt;stroke-opacity:1"
         transform="matrix(-0.8,0,0,-0.8,-10,0)" />
    </marker>
    <marker
       inkscape:collect="always"
       inkscape:isstock="true"
       style="overflow:visible"
       id="Arrow1Lend"
       refX="0"
       refY="0"
       orient="auto"
       inkscape:stockid="Arrow1Lend">
      <path
         inkscape:connector-curvature="0"
         transform="matrix(-0.8,0,0,-0.8,-10,0)"
         style="fill:#000000;fill-opacity:1;fill-rule:evenodd;stroke:#000000;stroke-width:1pt;stroke-opacity:1"
         d="M 0,0 5,-5 -12.5,0 5,5 z"
         id="path4764" />
    </marker>
    <marker
       inkscape:isstock="true"
       style="overflow:visible"
       id="Arrow1Lstart"
       refX="0"
       refY="0"
       orient="auto"
       inkscape:stockid="Arrow1Lstart">
      <path
         inkscape:connector-curvature="0"
         transform="matrix(0.8,0,0,0.8,10,0)"
         style="fill-rule:evenodd;stroke:#000000;stroke-width:1pt"
         d="M 0,0 5,-5 -12.5,0 5,5 z"
         id="path4761" />
    </marker>
  </defs>
  <metadata
     id="metadata5">
    <rdf:RDF>
      <cc:Work
         rdf:about="">
        <dc:format>image/svg+xml</dc:format>
        <dc:type
           rdf:resource="http://purl.org/dc/dcmitype/StillImage" />
        <dc:title></dc:title>
      </cc:Work>
    </rdf:RDF>
  </metadata>
  <g
     transform="translate(-37.560807,-91.993506)"
     id="layer1"
     inkscape:groupmode="layer"
     inkscape:label="Layer 1">
    <g
       id="g5162">
      <g
         id="g5117">
        <g
           id="g5073">
          <g
             id="g5030">
            <path
               inkscape:connector-curvature="0"
               id="path10"
               d="M 53.774829,201.1474 40.920822,188.29339"
               style="fill:none;stroke:#000000;stroke-width:0.19576645px;stroke-linecap:butt;stroke-linejoin:miter;stroke-opacity:1;marker-end:url(#marker5242)" />
            <path
               inkscape:transform-center-y="12.284225"
               inkscape:transform-center-x="2e-06"
               inkscape:connector-curvature="0"
               id="path10-6"
               d="m 53.84404,201.21661 3e-6,-18.17831"
               style="fill:none;stroke:#000000;stroke-width:0.19576645px;stroke-linecap:butt;stroke-linejoin:miter;stroke-opacity:1;marker-end:url(#Arrow1Lend)" />
            <path
               inkscape:connector-curvature="0"
               id="path10-8"
               d="M 53.774829,201.1474 66.628837,188.29339"
               style="fill:none;stroke:#000000;stroke-width:0.19576645px;stroke-linecap:butt;stroke-linejoin:miter;stroke-opacity:1;marker-end:url(#marker5270)" />
            <path
               inkscape:connector-curvature="0"
               id="path203"
               d="m 80.886778,143.90033 19.471702,-41.17735 29.94312,30.1729 -31.948766,28.47052"
               style="fill:none;stroke:#000000;stroke-width:0.26458332px;stroke-linecap:butt;stroke-linejoin:miter;stroke-opacity:1" />
            <path
               inkscape:transform-center-y="-12.284225"
               inkscape:transform-center-x="-2e-06"
               inkscape:connector-curvature="0"
               id="path10-6-6"
               d="m 98.352834,161.36639 -1e-5,24.56845"
               style="fill:#00f300;fill-opacity:1;stroke:#000000;stroke-width:0.26458332px;stroke-linecap:butt;stroke-linejoin:miter;stroke-opacity:1" />
            <path
               inkscape:connector-curvature="0"
               id="path10-0-1"
               d="M 80.980324,143.99388 98.352839,161.3664"
               style="fill:#00f300;fill-opacity:1;stroke:#000000;stroke-width:0.26458332px;stroke-linecap:butt;stroke-linejoin:miter;stroke-opacity:1" />
            <path
               inkscape:transform-center-y="-12.284225"
               inkscape:transform-center-x="-2e-06"
               inkscape:connector-curvature="0"
               id="path10-6-6-5"
               d="m 80.980314,168.56233 10e-6,-24.56845"
               style="fill:#00f300;fill-opacity:1;stroke:#000000;stroke-width:0.26458332px;stroke-linecap:butt;stroke-linejoin:miter;stroke-opacity:1" />
            <path
               inkscape:connector-curvature="0"
               id="path10-0"
               d="M 98.352827,185.97912 80.980312,168.6066"
               style="fill:#00f300;fill-opacity:1;stroke:#000000;stroke-width:0.26458332px;stroke-linecap:butt;stroke-linejoin:miter;stroke-opacity:1" />
            <path
               inkscape:connector-curvature="0"
               id="path205"
               d="M 98.352827,185.93484 130.13661,175.29727 100.3902,145.32259 80.980316,168.6066"
               style="fill:none;stroke:#000000;stroke-width:0.26458332;stroke-linecap:butt;stroke-linejoin:miter;stroke-miterlimit:4;stroke-opacity:1;stroke-dasharray:none;stroke-dashoffset:0" />
            <path
               inkscape:connector-curvature="0"
               id="path207"
               d="m 100.39019,145.27831 -0.0317,-42.55533"
               style="fill:none;stroke:#000000;stroke-width:0.26458332px;stroke-linecap:butt;stroke-linejoin:miter;stroke-opacity:1" />
            <path
               inkscape:connector-curvature="0"
               id="path209"
               d="m 130.3016,132.89588 -0.165,42.35711"
               style="fill:none;stroke:#000000;stroke-width:0.26458332px;stroke-linecap:butt;stroke-linejoin:miter;stroke-opacity:1" />
            <path
               inkscape:connector-curvature="0"
               id="path213"
               d="m 98.391597,186.09994 -44.36438,14.89241 26.953107,-56.99847"
               style="fill:none;stroke:#000000;stroke-width:0.26458332;stroke-linecap:butt;stroke-linejoin:miter;stroke-miterlimit:4;stroke-opacity:1;stroke-dasharray:1.05833327, 1.05833327;stroke-dashoffset:0" />
            <path
               inkscape:connector-curvature="0"
               id="path211"
               d="M 54.027217,200.99235 98.391608,161.57578"
               style="fill:none;stroke:#000000;stroke-width:0.26458332;stroke-linecap:butt;stroke-linejoin:miter;stroke-miterlimit:4;stroke-opacity:1;stroke-dasharray:1.05833327, 1.05833327;stroke-dashoffset:0" />
            <path
               inkscape:connector-curvature="0"
               id="path215"
               d="m 81.019087,168.7717 -26.99187,32.22065"
               style="fill:none;stroke:#000000;stroke-width:0.26458332;stroke-linecap:butt;stroke-linejoin:miter;stroke-miterlimit:4;stroke-opacity:1;stroke-dasharray:1.05833327, 1.05833327;stroke-dashoffset:0" />
            <path
               sodipodi:nodetypes="cc"
               inkscape:connector-curvature="0"
               id="path5926"
               d="m 76.209405,193.54614 c 2.925362,-7.01272 1.412414,-9.58713 0,-12.26207"
               style="fill:none;stroke:#000000;stroke-width:0.26458332px;stroke-linecap:butt;stroke-linejoin:miter;stroke-opacity:1" />
            <path
               sodipodi:nodetypes="cc"
               inkscape:connector-curvature="0"
               id="path5928"
               d="M 81.660756,176.22791 C 80.104648,171.49551 77.641299,167.25454 70.86528,165.3496"
               style="fill:none;stroke:#000000;stroke-width:0.32627583px;stroke-linecap:butt;stroke-linejoin:miter;stroke-opacity:1" />
            <text
               id="text5932"
               y="192.08157"
               x="37.414761"
               style="font-size:5.0695529px;font-style:normal;font-weight:normal;line-height:1.25;letter-spacing:0px;word-spacing:0px;fill:#000000;fill-opacity:1;stroke:none;font-family:sans-serif"
               xml:space="preserve"><tspan
                 y="192.08157"
                 x="37.414761"
                 id="tspan5930"
                 sodipodi:role="line">x</tspan></text>
            <text
               id="text5932-7"
               y="182.32071"
               x="49.882496"
               style="font-size:5.0695529px;font-style:normal;font-weight:normal;line-height:1.25;letter-spacing:0px;word-spacing:0px;fill:#000000;fill-opacity:1;stroke:none;font-family:sans-serif"
               xml:space="preserve"><tspan
                 y="182.32071"
                 x="49.882496"
                 id="tspan5930-5"
                 sodipodi:role="line">y</tspan></text>
            <text
               id="text5932-9"
               y="192.38081"
               x="66.697685"
               style="font-size:5.0695529px;font-style:normal;font-weight:normal;line-height:1.25;letter-spacing:0px;word-spacing:0px;fill:#000000;fill-opacity:1;stroke:none;font-family:sans-serif"
               xml:space="preserve"><tspan
                 y="192.38081"
                 x="66.697685"
                 id="tspan5930-4"
                 sodipodi:role="line">z</tspan></text>
            <path
               style="font-style:normal;font-variant:normal;font-weight:normal;font-stretch:normal;letter-spacing:normal;word-spacing:normal;text-anchor:start;fill:#000000;stroke:#000000;stroke-width:0;stroke-linecap:butt;stroke-linejoin:miter;stroke-miterlimit:10.43299961;stroke-opacity:1;stroke-dasharray:none;stroke-dashoffset:0"
               inkscape:connector-curvature="0"
               d="m 69.058605,171.57869 h 0.554199 c 0.128884,0 0.193325,0 0.193325,-0.12888 0,-0.0709 -0.06444,-0.0709 -0.173992,-0.0709 H 69.09727 l 0.135328,-0.7282 c 0.02578,-0.13532 0.115995,-0.58642 0.15466,-0.66375 0.058,-0.12243 0.167549,-0.2191 0.302876,-0.2191 0.02578,0 0.193325,0 0.315765,0.116 -0.283544,0.0258 -0.347986,0.25132 -0.347986,0.34154 0,0.14821 0.115995,0.22554 0.238435,0.22554 0.161104,0 0.347985,-0.14177 0.347985,-0.3802 0,-0.29643 -0.289988,-0.44465 -0.554199,-0.44465 -0.219102,0 -0.625085,0.116 -0.81841,0.74752 -0.03222,0.13533 -0.05155,0.19977 -0.206213,1.0053 h -0.444648 c -0.122439,0 -0.193325,0 -0.193325,0.12243 0,0.0773 0.058,0.0773 0.180437,0.0773 h 0.425315 l -0.483313,2.53256 c -0.115995,0.61865 -0.225546,1.19862 -0.560643,1.19862 -0.02578,0 -0.180437,0 -0.302876,-0.11599 0.296432,-0.0193 0.354429,-0.24488 0.354429,-0.34155 0,-0.14821 -0.115995,-0.22554 -0.238434,-0.22554 -0.167548,0 -0.354429,0.14177 -0.354429,0.38665 0,0.28354 0.283543,0.4382 0.54131,0.4382 0.35443,0 0.612196,-0.37376 0.728192,-0.61864 0.206213,-0.40598 0.354429,-1.17928 0.360873,-1.22439 z"
               id="path3400" />
            <path
               style="font-style:normal;font-variant:normal;font-weight:normal;font-stretch:normal;letter-spacing:normal;word-spacing:normal;text-anchor:start;fill:#000000;stroke:#000000;stroke-width:0;stroke-linecap:butt;stroke-linejoin:miter;stroke-miterlimit:10.43299961;stroke-opacity:1;stroke-dasharray:none;stroke-dashoffset:0"
               inkscape:connector-curvature="0"
               d="m 73.550193,172.39066 0,-0.058 -0.0064,-0.0644 -0.0064,-0.058 -0.0064,-0.058 -0.01289,-0.0516 -0.01289,-0.058 -0.01289,-0.0516 -0.01933,-0.0515 -0.01933,-0.0451 -0.02578,-0.0451 -0.01933,-0.0451 -0.03222,-0.0451 -0.02578,-0.0451 -0.03222,-0.0387 -0.03222,-0.0387 -0.03222,-0.0322 -0.03222,-0.0387 -0.03867,-0.0322 -0.03867,-0.0258 -0.03866,-0.0322 -0.04511,-0.0258 -0.03866,-0.0193 -0.04511,-0.0258 -0.04511,-0.0193 -0.05155,-0.0193 -0.04511,-0.0129 -0.05155,-0.0129 -0.04511,-0.0129 -0.05155,-0.006 -0.05155,-0.006 -0.058,0 -0.05155,-0.006 c -0.857075,0 -1.720594,0.91507 -1.720594,1.8237 0,0.63153 0.43176,1.07618 1.024623,1.07618 l 0.01289,-0.13533 c -0.2771,0 -0.560643,-0.19977 -0.560643,-0.70242 0,-0.30932 0.167548,-1.00529 0.373762,-1.32749 0.315764,-0.49621 0.683082,-0.59287 0.863519,-0.59287 0.373762,0 0.560643,0.30932 0.560643,0.69597 0,0.24488 -0.12244,0.92152 -0.367318,1.33395 -0.225546,0.37376 -0.579976,0.59286 -0.869963,0.59286 h 0 l -0.01289,0.13533 c 0.857075,0 1.720594,-0.88285 1.720594,-1.81726 z"
               id="path3402" />
            <path
               style="font-style:normal;font-variant:normal;font-weight:normal;font-stretch:normal;letter-spacing:normal;word-spacing:normal;text-anchor:start;fill:#000000;stroke:#000000;stroke-width:0;stroke-linecap:butt;stroke-linejoin:miter;stroke-miterlimit:10.43299961;stroke-opacity:1;stroke-dasharray:none;stroke-dashoffset:0"
               inkscape:connector-curvature="0"
               d="m 76.656284,171.75913 0,-0.0129 0,-0.0193 0,-0.0129 0,-0.0193 0,-0.0129 -0.0064,-0.0129 0,-0.0129 0,-0.0129 -0.0064,-0.0258 0,-0.0258 -0.0064,-0.0258 -0.0064,-0.0258 -0.0064,-0.0193 -0.0064,-0.0193 -0.01289,-0.0193 -0.0064,-0.0193 -0.0064,-0.0129 -0.01289,-0.0193 -0.0064,-0.0129 -0.01289,-0.0129 -0.01289,-0.0129 -0.0064,-0.0129 -0.01289,-0.006 -0.01289,-0.0129 -0.01289,-0.006 -0.01289,-0.006 -0.0064,-0.006 -0.01289,-0.006 -0.01289,-0.006 -0.01289,-0.006 -0.01289,0 -0.01289,-0.006 -0.0064,0 -0.01289,0 -0.01289,-0.006 -0.01289,0 c -0.161105,0 -0.309321,0.16755 -0.309321,0.30932 0,0.0838 0.02578,0.12244 0.09666,0.19333 0.135328,0.12888 0.219102,0.29643 0.219102,0.52197 0,0.27066 -0.38665,1.73993 -1.140619,1.73993 -0.328652,0 -0.470424,-0.22555 -0.470424,-0.56064 0,-0.36088 0.167548,-0.82486 0.367318,-1.35328 0.04511,-0.10955 0.07733,-0.19977 0.07733,-0.32221 0,-0.28999 -0.206214,-0.52842 -0.521978,-0.52842 -0.605752,0 -0.850631,0.92796 -0.850631,0.98596 0,0.0644 0.06444,0.0644 0.07733,0.0644 0.06444,0 0.07089,-0.0129 0.103107,-0.116 0.186881,-0.64441 0.46398,-0.79263 0.650861,-0.79263 0.05155,0 0.161105,0 0.161105,0.20621 0,0.16111 -0.06444,0.3351 -0.109551,0.4511 -0.283544,0.74108 -0.367318,1.03751 -0.367318,1.30816 0,0.69597 0.560643,0.79264 0.857075,0.79264 1.076177,0 1.443494,-2.11369 1.443494,-2.44879 z"
               id="path3404" />
            <path
               style="font-style:normal;font-variant:normal;font-weight:normal;font-stretch:normal;letter-spacing:normal;word-spacing:normal;text-anchor:start;fill:#000000;stroke:#000000;stroke-width:0;stroke-linecap:butt;stroke-linejoin:miter;stroke-miterlimit:10.43299961;stroke-opacity:1;stroke-dasharray:none;stroke-dashoffset:0"
               inkscape:connector-curvature="0"
               d="m 77.880677,174.62679 0,0.0129 -0.0064,0.0193 -0.0064,0.0129 -0.0064,0.0193 -0.0064,0.0129 -0.0064,0.0193 -0.0064,0.0129 -0.01289,0.0193 -0.0064,0.0129 -0.01289,0.0193 -0.0064,0.0129 -0.01289,0.0193 -0.01289,0.0129 -0.01289,0.0193 -0.01289,0.0129 -0.01289,0.0193 -0.01289,0.0129 -0.01289,0.0129 -0.01289,0.0129 -0.01933,0.0129 -0.01289,0.0129 -0.01289,0.0129 -0.01933,0.0129 -0.01933,0.006 -0.01933,0.0129 -0.01289,0.006 -0.01933,0.006 -0.01933,0.006 -0.01933,0 -0.01933,0.006 -0.02578,0 -0.01933,0 c -0.01289,0 -0.148216,0 -0.244879,-0.058 0.186881,-0.058 0.19977,-0.21911 0.19977,-0.25133 0,-0.0967 -0.07733,-0.1611 -0.180437,-0.1611 -0.122439,0 -0.257767,0.1031 -0.257767,0.27065 0,0.22555 0.251323,0.32866 0.476869,0.32866 0.206213,0 0.38665,-0.12889 0.502645,-0.31577 0.103107,0.23199 0.35443,0.31577 0.528422,0.31577 0.515534,0 0.792633,-0.56065 0.792633,-0.68309 0,-0.0644 -0.058,-0.0644 -0.07088,-0.0644 -0.06444,0 -0.07089,0.0258 -0.08378,0.0773 -0.09666,0.30932 -0.367318,0.54131 -0.61864,0.54131 -0.180437,0 -0.270655,-0.11599 -0.270655,-0.28998 0,-0.116 0.10955,-0.52198 0.23199,-1.01818 0.09022,-0.34799 0.289987,-0.45754 0.438203,-0.45754 0.01289,0 0.148216,0 0.244879,0.058 -0.148216,0.0451 -0.199769,0.16755 -0.199769,0.25132 0,0.0967 0.07733,0.1611 0.180436,0.1611 0.103107,0 0.251323,-0.0838 0.251323,-0.27065 0,-0.25132 -0.289988,-0.32865 -0.46398,-0.32865 -0.225546,0 -0.405983,0.14821 -0.502646,0.3222 -0.08377,-0.18688 -0.289987,-0.3222 -0.54131,-0.3222 -0.502646,0 -0.786189,0.55419 -0.786189,0.68952 0,0.058 0.058,0.058 0.07089,0.058 0.058,0 0.06444,-0.0193 0.09022,-0.0773 0.109551,-0.34799 0.393095,-0.54131 0.612197,-0.54131 0.148216,0 0.270655,0.0773 0.270655,0.29643 0,0.0838 -0.058,0.30932 -0.09666,0.46398 z"
               id="path3406" />
            <path
               style="font-style:normal;font-variant:normal;font-weight:normal;font-stretch:normal;letter-spacing:normal;word-spacing:normal;text-anchor:start;fill:#000000;stroke:#000000;stroke-width:0;stroke-linecap:butt;stroke-linejoin:miter;stroke-miterlimit:10.43299961;stroke-opacity:1;stroke-dasharray:none;stroke-dashoffset:0"
               inkscape:connector-curvature="0"
               d="m 79.876055,184.71917 h 0.554199 c 0.128884,0 0.193325,0 0.193325,-0.12888 0,-0.0709 -0.06444,-0.0709 -0.173992,-0.0709 H 79.91472 l 0.135328,-0.7282 c 0.02578,-0.13532 0.115995,-0.58642 0.15466,-0.66375 0.058,-0.12243 0.167549,-0.2191 0.302876,-0.2191 0.02578,0 0.193325,0 0.315765,0.116 -0.283544,0.0258 -0.347986,0.25132 -0.347986,0.34154 0,0.14821 0.115995,0.22554 0.238435,0.22554 0.161104,0 0.347985,-0.14177 0.347985,-0.3802 0,-0.29643 -0.289988,-0.44465 -0.554199,-0.44465 -0.219102,0 -0.625085,0.116 -0.81841,0.74752 -0.03222,0.13533 -0.05155,0.19977 -0.206213,1.0053 h -0.444648 c -0.122439,0 -0.193325,0 -0.193325,0.12243 0,0.0773 0.058,0.0773 0.180437,0.0773 h 0.425315 l -0.483313,2.53256 c -0.115995,0.61865 -0.225546,1.19862 -0.560643,1.19862 -0.02578,0 -0.180437,0 -0.302876,-0.11599 0.296432,-0.0193 0.354429,-0.24488 0.354429,-0.34155 0,-0.14821 -0.115995,-0.22554 -0.238434,-0.22554 -0.167548,0 -0.354429,0.14177 -0.354429,0.38665 0,0.28354 0.283543,0.4382 0.54131,0.4382 0.35443,0 0.612196,-0.37376 0.728192,-0.61864 0.206213,-0.40598 0.354429,-1.17928 0.360873,-1.22439 z"
               id="path3689" />
            <path
               style="font-style:normal;font-variant:normal;font-weight:normal;font-stretch:normal;letter-spacing:normal;word-spacing:normal;text-anchor:start;fill:#000000;stroke:#000000;stroke-width:0;stroke-linecap:butt;stroke-linejoin:miter;stroke-miterlimit:10.43299961;stroke-opacity:1;stroke-dasharray:none;stroke-dashoffset:0"
               inkscape:connector-curvature="0"
               d="m 84.367643,185.53114 0,-0.058 -0.0064,-0.0644 -0.0064,-0.058 -0.0064,-0.058 -0.01289,-0.0516 -0.01289,-0.058 -0.01289,-0.0516 -0.01933,-0.0515 -0.01933,-0.0451 -0.02578,-0.0451 -0.01933,-0.0451 -0.03222,-0.0451 -0.02578,-0.0451 -0.03222,-0.0387 -0.03222,-0.0387 -0.03222,-0.0322 -0.03222,-0.0387 -0.03866,-0.0322 -0.03867,-0.0258 -0.03866,-0.0322 -0.04511,-0.0258 -0.03867,-0.0193 -0.04511,-0.0258 -0.04511,-0.0193 -0.05155,-0.0193 -0.04511,-0.0129 -0.05155,-0.0129 -0.04511,-0.0129 -0.05155,-0.006 -0.05155,-0.006 -0.058,0 -0.05155,-0.006 c -0.857075,0 -1.720594,0.91507 -1.720594,1.8237 0,0.63153 0.43176,1.07618 1.024623,1.07618 l 0.01289,-0.13533 c -0.2771,0 -0.560643,-0.19977 -0.560643,-0.70242 0,-0.30932 0.167548,-1.00529 0.373762,-1.32749 0.315764,-0.49621 0.683082,-0.59287 0.863519,-0.59287 0.373762,0 0.560643,0.30932 0.560643,0.69597 0,0.24488 -0.12244,0.92152 -0.367318,1.33395 -0.225546,0.37376 -0.579976,0.59286 -0.869963,0.59286 h 0 l -0.01289,0.13533 c 0.857075,0 1.720594,-0.88285 1.720594,-1.81726 z"
               id="path3691" />
            <path
               style="font-style:normal;font-variant:normal;font-weight:normal;font-stretch:normal;letter-spacing:normal;word-spacing:normal;text-anchor:start;fill:#000000;stroke:#000000;stroke-width:0;stroke-linecap:butt;stroke-linejoin:miter;stroke-miterlimit:10.43299961;stroke-opacity:1;stroke-dasharray:none;stroke-dashoffset:0"
               inkscape:connector-curvature="0"
               d="m 87.473734,184.89961 0,-0.0129 0,-0.0193 0,-0.0129 0,-0.0193 0,-0.0129 -0.0064,-0.0129 0,-0.0129 0,-0.0129 -0.0064,-0.0258 0,-0.0258 -0.0064,-0.0258 -0.0064,-0.0258 -0.0064,-0.0193 -0.0064,-0.0193 -0.01289,-0.0193 -0.0064,-0.0193 -0.0064,-0.0129 -0.01289,-0.0193 -0.0064,-0.0129 -0.01289,-0.0129 -0.01289,-0.0129 -0.0064,-0.0129 -0.01289,-0.006 -0.01289,-0.0129 -0.01289,-0.006 -0.01289,-0.006 -0.0064,-0.006 -0.01289,-0.006 -0.01289,-0.006 -0.01289,-0.006 -0.01289,0 -0.01289,-0.006 -0.0064,0 -0.01289,0 -0.01289,-0.006 -0.01289,0 c -0.161105,0 -0.309321,0.16755 -0.309321,0.30932 0,0.0838 0.02578,0.12244 0.09666,0.19333 0.135328,0.12888 0.219102,0.29643 0.219102,0.52197 0,0.27066 -0.38665,1.73993 -1.140619,1.73993 -0.328652,0 -0.470424,-0.22555 -0.470424,-0.56064 0,-0.36088 0.167548,-0.82486 0.367318,-1.35328 0.04511,-0.10955 0.07733,-0.19977 0.07733,-0.32221 0,-0.28999 -0.206214,-0.52842 -0.521978,-0.52842 -0.605752,0 -0.850631,0.92796 -0.850631,0.98596 0,0.0644 0.06444,0.0644 0.07733,0.0644 0.06444,0 0.07089,-0.0129 0.103107,-0.116 0.186881,-0.64441 0.46398,-0.79263 0.650861,-0.79263 0.05155,0 0.161105,0 0.161105,0.20621 0,0.16111 -0.06444,0.3351 -0.109551,0.4511 -0.283544,0.74108 -0.367318,1.03751 -0.367318,1.30816 0,0.69597 0.560643,0.79264 0.857075,0.79264 1.076177,0 1.443494,-2.11369 1.443494,-2.44879 z"
               id="path3693" />
            <path
               style="font-style:normal;font-variant:normal;font-weight:normal;font-stretch:normal;letter-spacing:normal;word-spacing:normal;text-anchor:start;fill:#000000;stroke:#000000;stroke-width:0;stroke-linecap:butt;stroke-linejoin:miter;stroke-miterlimit:10.43299961;stroke-opacity:1;stroke-dasharray:none;stroke-dashoffset:0"
               inkscape:connector-curvature="0"
               d="m 90.07718,186.55576 0,-0.006 0,0 0.0064,-0.006 0,0 0,0 0,-0.006 0,-0.006 0,0 0,-0.006 0.0064,-0.006 0,0 0,-0.006 0,0 0,-0.006 0,0 0,-0.006 0.0064,0 0,-0.006 0,0 0,0 0,-0.006 0,0 0,0 0,-0.006 0,-0.006 0,0 0,-0.006 0,0 0,-0.006 0,0 0,-0.006 c 0,-0.0838 -0.07089,-0.14177 -0.148216,-0.14177 -0.05155,0 -0.135327,0.0258 -0.180436,0.10955 -0.01933,0.0258 -0.05155,0.16754 -0.07733,0.25776 l -0.09022,0.37377 c -0.03222,0.10955 -0.167548,0.67019 -0.180437,0.72174 -0.0064,0 -0.206213,0.38665 -0.554198,0.38665 -0.302877,0 -0.302877,-0.28998 -0.302877,-0.36732 0,-0.24487 0.103107,-0.52842 0.238435,-0.86996 0.05155,-0.14821 0.07733,-0.19977 0.07733,-0.2771 0,-0.21266 -0.186881,-0.3802 -0.43176,-0.3802 -0.451092,0 -0.650861,0.61219 -0.650861,0.68952 0,0.058 0.058,0.058 0.07733,0.058 0.058,0 0.06444,-0.0258 0.07733,-0.0709 0.115995,-0.37376 0.30932,-0.54775 0.483313,-0.54775 0.07733,0 0.115995,0.0451 0.115995,0.15466 0,0.10311 -0.03866,0.19977 -0.06444,0.25777 -0.212657,0.54775 -0.257767,0.7153 -0.257767,0.90862 0,0.0773 0,0.28999 0.173993,0.43176 0.135328,0.116 0.328653,0.14178 0.444648,0.14178 0.180437,0 0.341541,-0.0709 0.489757,-0.19977 -0.058,0.24488 -0.103107,0.43176 -0.296432,0.6573 -0.115995,0.13533 -0.296432,0.28355 -0.534866,0.28355 -0.03222,0 -0.244879,0 -0.335097,-0.14822 0.238434,-0.0258 0.238434,-0.23843 0.238434,-0.24488 0,-0.14177 -0.128883,-0.16755 -0.173992,-0.16755 -0.109551,0 -0.257767,0.0902 -0.257767,0.29643 0,0.22555 0.212657,0.3931 0.534866,0.3931 0.451092,0 1.005291,-0.35443 1.140619,-0.90863 z"
               id="path3695" />
            <path
               style="font-style:normal;font-variant:normal;font-weight:normal;font-stretch:normal;letter-spacing:normal;word-spacing:normal;text-anchor:start;fill:#000000;stroke:#000000;stroke-width:0;stroke-linecap:butt;stroke-linejoin:miter;stroke-miterlimit:10.43299961;stroke-opacity:1;stroke-dasharray:none;stroke-dashoffset:0"
               inkscape:connector-curvature="0"
               id="path3846"
               d="m 66.738908,134.27305 0.02578,-0.0322 0.03222,-0.0322 0.03222,-0.0322 0.03222,-0.0322 0.02578,-0.0322 0.02578,-0.0258 0.03222,-0.0258 0.02578,-0.0322 0.02578,-0.0258 0.02578,-0.0258 0.01933,-0.0193 0.02578,-0.0258 0.02578,-0.0258 0.01933,-0.0193 0.04511,-0.0451 0.04511,-0.0387 0.04511,-0.0387 0.03867,-0.0387 0.04511,-0.0387 0.08377,-0.0709 0.03866,-0.0322 0.04511,-0.0387 c 0,-0.006 0.399538,-0.34799 0.625084,-0.57998 0.612197,-0.59286 0.753969,-0.90218 0.753969,-0.92796 0,-0.0644 -0.058,-0.0644 -0.07089,-0.0644 -0.04511,0 -0.06444,0.0129 -0.09666,0.0709 -0.193325,0.30932 -0.328653,0.41242 -0.483313,0.41242 -0.148216,0 -0.23199,-0.0967 -0.322208,-0.20621 -0.12244,-0.14822 -0.231991,-0.2771 -0.444648,-0.2771 -0.483313,0 -0.773301,0.59931 -0.773301,0.73464 0,0.0322 0.01933,0.0709 0.07089,0.0709 0.058,0 0.07089,-0.0322 0.08377,-0.0709 0.122439,-0.29644 0.496201,-0.30288 0.547755,-0.30288 0.135327,0 0.257767,0.0451 0.405983,0.0967 0.251322,0.0967 0.322208,0.0967 0.489757,0.0967 -0.231991,0.2771 -0.766857,0.73464 -0.889296,0.83775 l -0.579976,0.53486 c -0.431759,0.43176 -0.657305,0.79908 -0.657305,0.84419 0,0.058 0.06444,0.058 0.07733,0.058 0.05155,0 0.06444,-0.0129 0.103107,-0.0838 0.148216,-0.2191 0.341541,-0.39309 0.54131,-0.39309 0.148216,0 0.212658,0.058 0.373762,0.24488 0.109551,0.13532 0.225546,0.23199 0.412427,0.23199 0.631529,0 1.005291,-0.81197 1.005291,-0.98596 0,-0.0258 -0.02578,-0.0644 -0.07733,-0.0644 -0.058,0 -0.07089,0.0387 -0.09022,0.0838 -0.148216,0.41887 -0.554199,0.54131 -0.766857,0.54131 -0.128883,0 -0.244878,-0.0387 -0.380206,-0.0838 -0.219102,-0.0838 -0.315765,-0.10955 -0.451092,-0.10955 -0.01289,0 -0.109551,0 -0.167549,0.0193 z" />
            <path
               style="font-style:normal;font-variant:normal;font-weight:normal;font-stretch:normal;letter-spacing:normal;word-spacing:normal;text-anchor:start;fill:#000000;stroke:#000000;stroke-width:0;stroke-linecap:butt;stroke-linejoin:miter;stroke-miterlimit:10.43299961;stroke-opacity:1;stroke-dasharray:none;stroke-dashoffset:0"
               inkscape:connector-curvature="0"
               id="path3848"
               d="m 69.41324,135.48455 0,0.006 0,0.006 0,0.006 -0.0064,0.006 0,0.006 0,0.006 0,0.006 -0.0064,0.006 0,0.0129 -0.0064,0.0193 -0.0064,0.0129 0,0.0129 0,0.006 -0.0064,0.006 0,0.006 0,0.006 0,0.006 0,0.006 -0.0064,0.006 0,0.006 0,0 0,0.006 0,0.006 0,0 0,0.006 0,0 0,0 0,0 0,0 0,0.006 c 0,0.0967 0.07733,0.14178 0.148216,0.14178 0.08377,0 0.15466,-0.058 0.173992,-0.0967 0.02578,-0.0451 0.058,-0.18688 0.08378,-0.28354 0.01933,-0.0838 0.07089,-0.28999 0.09666,-0.39954 0.02578,-0.0967 0.058,-0.19977 0.07733,-0.30287 0.05155,-0.18044 0.058,-0.21911 0.186881,-0.39954 0.128884,-0.18044 0.341541,-0.41243 0.676638,-0.41243 0.257767,0 0.264211,0.22555 0.264211,0.30932 0,0.27066 -0.193325,0.76686 -0.264211,0.96018 -0.05155,0.12244 -0.07089,0.16111 -0.07089,0.23844 0,0.23843 0.19977,0.38665 0.43176,0.38665 0.444648,0 0.644417,-0.61864 0.644417,-0.68309 0,-0.0644 -0.058,-0.0644 -0.07089,-0.0644 -0.06444,0 -0.07089,0.0322 -0.09022,0.0773 -0.103107,0.36088 -0.296432,0.54131 -0.470425,0.54131 -0.09666,0 -0.115995,-0.058 -0.115995,-0.15466 0,-0.1031 0.02578,-0.1611 0.103107,-0.36087 0.058,-0.14177 0.238434,-0.61864 0.238434,-0.86996 0,-0.43176 -0.341541,-0.50909 -0.579975,-0.50909 -0.373762,0 -0.625085,0.23199 -0.760412,0.40598 -0.03222,-0.30288 -0.296432,-0.40598 -0.483313,-0.40598 -0.193326,0 -0.296432,0.14177 -0.35443,0.24487 -0.09666,0.16111 -0.161104,0.41888 -0.161104,0.44465 0,0.058 0.06444,0.058 0.07733,0.058 0.06444,0 0.07089,-0.0129 0.09666,-0.13533 0.07089,-0.26421 0.15466,-0.48331 0.328652,-0.48331 0.115995,0 0.148216,0.0967 0.148216,0.2191 0,0.0838 -0.03867,0.25132 -0.07089,0.36732 -0.03222,0.12244 -0.07733,0.30932 -0.09666,0.40598 z" />
            <path
               style="font-style:normal;font-variant:normal;font-weight:normal;font-stretch:normal;letter-spacing:normal;word-spacing:normal;text-anchor:start;fill:#000000;stroke:#000000;stroke-width:0;stroke-linecap:butt;stroke-linejoin:miter;stroke-miterlimit:10.43299961;stroke-opacity:1;stroke-dasharray:none;stroke-dashoffset:0"
               inkscape:connector-curvature="0"
               id="path3850"
               d="m 73.047753,134.74347 0.01289,0 0.01289,0 0.01289,0 0.01933,0 0.01933,0 0.01289,0 0.01933,0 0.01933,0 0.02578,0 0.01933,0 0.02578,-0.006 0.01933,0 0.02578,0 0.02578,0 0.04511,-0.006 0.05155,-0.006 0.05155,-0.006 0.05155,-0.006 0.05155,-0.006 0.05155,-0.0129 0.02578,-0.006 0.02578,-0.006 0.02578,-0.006 0.02578,-0.006 0.02578,-0.006 0.01933,-0.006 c 0.335097,-0.116 0.393095,-0.3351 0.393095,-0.47043 0,-0.24488 -0.244879,-0.39309 -0.554199,-0.39309 v 0.12888 c 0.199769,0 0.367318,0.0967 0.367318,0.26421 0,0.4382 -0.760413,0.4382 -0.953738,0.4382 h -0.219102 c 0.180437,-0.65086 0.683083,-0.70241 0.805522,-0.70241 v -0.12888 c -0.534866,0 -1.263058,0.41242 -1.263058,1.17928 0,0.45109 0.283544,0.84419 0.805522,0.84419 0.760412,0 1.114841,-0.44465 1.114841,-0.50909 0,-0.0258 -0.03867,-0.0773 -0.07733,-0.0773 -0.02578,0 -0.03867,0.0129 -0.07089,0.0451 -0.35443,0.41242 -0.876408,0.41242 -0.960182,0.41242 -0.264211,0 -0.444648,-0.17399 -0.444648,-0.54131 0,-0.0644 0,-0.14821 0.05155,-0.39954 z" />
            <path
               style="font-style:normal;font-variant:normal;font-weight:normal;font-stretch:normal;letter-spacing:normal;word-spacing:normal;text-anchor:start;fill:#000000;stroke:#000000;stroke-width:0;stroke-linecap:butt;stroke-linejoin:miter;stroke-miterlimit:10.43299961;stroke-opacity:1;stroke-dasharray:none;stroke-dashoffset:0"
               inkscape:connector-curvature="0"
               id="path3852"
               d="m 76.372946,134.05395 -0.01289,-0.0129 -0.0064,-0.0129 -0.0064,-0.0129 -0.01289,-0.0129 -0.01289,-0.0129 -0.0064,-0.0129 -0.01289,-0.0129 -0.01289,-0.0129 -0.01289,-0.0129 -0.01289,-0.006 -0.0064,-0.0129 -0.01289,-0.0129 -0.01289,-0.006 -0.01933,-0.0129 -0.01289,-0.006 -0.01289,-0.0129 -0.01289,-0.006 -0.01933,-0.0129 -0.01289,-0.006 -0.01289,-0.006 -0.01933,-0.006 -0.01289,-0.006 -0.01933,-0.006 -0.01933,-0.006 -0.01289,0 -0.01933,-0.006 -0.01933,-0.006 -0.01933,0 -0.01933,0 -0.01933,-0.006 -0.01933,0 -0.01933,0 v 0.12888 c 0.315765,0 0.399539,0.34154 0.399539,0.38665 0,0.0193 -0.0064,0.0515 -0.01289,0.0644 l -0.212658,0.83774 c -0.03222,0.12889 -0.128883,0.21266 -0.225546,0.30288 -0.03866,0.0322 -0.219102,0.17399 -0.412427,0.17399 -0.167548,0 -0.328653,-0.11599 -0.328653,-0.43176 0,-0.23843 0.128884,-0.72819 0.23199,-0.90863 0.206214,-0.36087 0.438204,-0.42531 0.560643,-0.42531 v -0.12888 c -0.573531,0 -1.153506,0.63153 -1.153506,1.27594 0,0.43821 0.289987,0.74753 0.676638,0.74753 0.238434,0 0.457536,-0.14178 0.637973,-0.31577 0.08377,0.27066 0.341541,0.31577 0.457536,0.31577 0.161104,0 0.277099,-0.0967 0.354429,-0.23844 0.103107,-0.17399 0.161105,-0.43176 0.161105,-0.44465 0,-0.0644 -0.058,-0.0644 -0.07733,-0.0644 -0.058,0 -0.06444,0.0193 -0.09666,0.14177 -0.05155,0.21266 -0.135328,0.47687 -0.328653,0.47687 -0.115995,0 -0.148216,-0.0967 -0.148216,-0.2191 0,-0.0773 0.03866,-0.23843 0.07089,-0.35443 0.03222,-0.11599 0.07733,-0.30287 0.09666,-0.39954 l 0.09022,-0.34154 c 0.02578,-0.11599 0.08377,-0.32865 0.08377,-0.34798 0,-0.10311 -0.08377,-0.14822 -0.15466,-0.14822 -0.07733,0 -0.180437,0.058 -0.206213,0.18044 z" />
            <path
               style="font-style:normal;font-variant:normal;font-weight:normal;font-stretch:normal;letter-spacing:normal;word-spacing:normal;text-anchor:start;fill:#000000;stroke:#000000;stroke-width:0;stroke-linecap:butt;stroke-linejoin:miter;stroke-miterlimit:10.43299961;stroke-opacity:1;stroke-dasharray:none;stroke-dashoffset:0"
               inkscape:connector-curvature="0"
               id="path3854"
               d="m 78.319086,134.85947 0,0 0,0 0,-0.006 0,0 0,-0.006 0,0 0.0064,-0.006 0,-0.006 0,0 0,-0.006 0,-0.006 0.0064,-0.006 0,-0.006 0,-0.006 0.0064,-0.0193 0,-0.0129 0.0064,-0.0193 0.0064,-0.0193 0,-0.0193 0.0064,-0.0193 0.0064,-0.0193 0.01289,-0.0387 0.0064,-0.0387 0.0064,-0.0193 0.0064,-0.0193 0,-0.0193 0.0064,-0.0193 0.0064,-0.0129 0.0064,-0.0193 0,-0.0129 0,-0.006 0.0064,-0.006 0,-0.006 0,-0.006 0.0064,-0.006 0,-0.006 0,-0.006 0,0 0,-0.006 0,0 0.0064,-0.006 0,0 0,-0.006 0,0 c 0.0064,-0.0322 0.135328,-0.25777 0.283543,-0.36732 0.04511,-0.0322 0.167549,-0.12244 0.360874,-0.12244 0.04511,0 0.161104,0 0.244879,0.058 -0.141772,0.0451 -0.193325,0.16755 -0.193325,0.25132 0,0.0967 0.07733,0.1611 0.180436,0.1611 0.103107,0 0.251323,-0.0838 0.251323,-0.27065 0,-0.23199 -0.251323,-0.32865 -0.476869,-0.32865 -0.23199,0 -0.438203,0.0967 -0.631529,0.3222 -0.08377,-0.27709 -0.354429,-0.3222 -0.46398,-0.3222 -0.167548,0 -0.277099,0.1031 -0.347985,0.23199 -0.103107,0.17399 -0.167549,0.43176 -0.167549,0.45753 0,0.058 0.06444,0.058 0.07733,0.058 0.058,0 0.06444,-0.0129 0.09666,-0.13533 0.06444,-0.2771 0.15466,-0.48331 0.328653,-0.48331 0.115995,0 0.148216,0.0967 0.148216,0.2191 0,0.0838 -0.03866,0.25132 -0.07089,0.36732 -0.03222,0.12244 -0.07733,0.30932 -0.103107,0.40598 l -0.141772,0.57353 c -0.01933,0.058 -0.04511,0.174 -0.04511,0.18688 0,0.0967 0.08377,0.14178 0.15466,0.14178 0.06444,0 0.15466,-0.0387 0.193325,-0.12889 0.0064,-0.0258 0.058,-0.22554 0.08378,-0.33509 z" />
            <path
               style="font-style:normal;font-variant:normal;font-weight:normal;font-stretch:normal;letter-spacing:normal;word-spacing:normal;text-anchor:start;fill:#000000;stroke:#000000;stroke-width:0;stroke-linecap:butt;stroke-linejoin:miter;stroke-miterlimit:10.43299961;stroke-opacity:1;stroke-dasharray:none;stroke-dashoffset:0"
               inkscape:connector-curvature="0"
               d="m 87.277575,94.346309 0.02578,-0.03222 0.03222,-0.03222 0.03222,-0.03222 0.03222,-0.03222 0.02578,-0.03222 0.02578,-0.02578 0.03222,-0.02578 0.02578,-0.03222 0.02578,-0.02578 0.02578,-0.02578 0.01933,-0.01933 0.02578,-0.02578 0.02578,-0.02578 0.01933,-0.01933 0.04511,-0.04511 0.04511,-0.03867 0.04511,-0.03867 0.03866,-0.03867 0.04511,-0.03866 0.08377,-0.07089 0.03867,-0.03222 0.04511,-0.03867 c 0,-0.0064 0.399538,-0.347986 0.625084,-0.579976 0.612197,-0.592864 0.753969,-0.902184 0.753969,-0.927961 0,-0.06444 -0.058,-0.06444 -0.07089,-0.06444 -0.04511,0 -0.06444,0.01289 -0.09666,0.07089 -0.193325,0.30932 -0.328653,0.412427 -0.483313,0.412427 -0.148216,0 -0.23199,-0.09666 -0.322208,-0.206214 -0.12244,-0.148216 -0.231991,-0.277099 -0.444648,-0.277099 -0.483313,0 -0.773301,0.599308 -0.773301,0.734635 0,0.03222 0.01933,0.07089 0.07089,0.07089 0.058,0 0.07089,-0.03222 0.08377,-0.07089 0.122439,-0.296432 0.496201,-0.302876 0.547755,-0.302876 0.135327,0 0.257767,0.04511 0.405983,0.09666 0.251322,0.09666 0.322208,0.09666 0.489757,0.09666 -0.231991,0.2771 -0.766857,0.734636 -0.889296,0.837743 l -0.579976,0.534866 c -0.431759,0.43176 -0.657305,0.799077 -0.657305,0.844187 0,0.058 0.06444,0.058 0.07733,0.058 0.05155,0 0.06444,-0.01289 0.103107,-0.08377 0.148216,-0.219102 0.341541,-0.393095 0.54131,-0.393095 0.148216,0 0.212658,0.058 0.373762,0.244879 0.109551,0.135328 0.225546,0.23199 0.412427,0.23199 0.631529,0 1.005291,-0.811966 1.005291,-0.985958 0,-0.02578 -0.02578,-0.06444 -0.07733,-0.06444 -0.058,0 -0.07089,0.03866 -0.09022,0.08377 -0.148216,0.418871 -0.554199,0.541311 -0.766857,0.541311 -0.128883,0 -0.244878,-0.03866 -0.380206,-0.08377 -0.219102,-0.08377 -0.315765,-0.109551 -0.451092,-0.109551 -0.01289,0 -0.109551,0 -0.167549,0.01933 z"
               id="path4015" />
            <path
               style="font-style:normal;font-variant:normal;font-weight:normal;font-stretch:normal;letter-spacing:normal;word-spacing:normal;text-anchor:start;fill:#000000;stroke:#000000;stroke-width:0;stroke-linecap:butt;stroke-linejoin:miter;stroke-miterlimit:10.43299961;stroke-opacity:1;stroke-dasharray:none;stroke-dashoffset:0"
               inkscape:connector-curvature="0"
               d="m 91.234297,94.06921 h 0.438204 c 0.09022,0 0.148216,0 0.148216,-0.09666 0,-0.06444 -0.058,-0.06444 -0.135328,-0.06444 h -0.418871 c 0.103107,-0.567087 0.135328,-0.7733 0.173993,-0.902184 0.02578,-0.103106 0.122439,-0.193325 0.225546,-0.193325 0.0064,0 0.128883,0 0.212657,0.05155 -0.180437,0.058 -0.193325,0.219102 -0.193325,0.244879 0,0.103107 0.07089,0.167549 0.180437,0.167549 0.115995,0 0.251323,-0.103107 0.251323,-0.270656 0,-0.206213 -0.219102,-0.322208 -0.451092,-0.322208 -0.193326,0 -0.412427,0.115995 -0.534867,0.335097 -0.09022,0.167548 -0.128883,0.373762 -0.219102,0.889295 h -0.354429 c -0.09022,0 -0.148216,0 -0.148216,0.103107 0,0.058 0.058,0.058 0.135328,0.058 h 0.335097 c -0.0064,0.02578 -0.289988,1.643264 -0.393095,2.120132 -0.02578,0.09666 -0.103107,0.438204 -0.315764,0.438204 -0.0064,0 -0.115995,0 -0.19977,-0.05155 0.186881,-0.058 0.19977,-0.219102 0.19977,-0.244879 0,-0.103107 -0.07733,-0.167548 -0.180437,-0.167548 -0.122439,0 -0.257767,0.103106 -0.257767,0.270655 0,0.206213 0.212658,0.322209 0.438204,0.322209 0.289987,0 0.483313,-0.296432 0.54131,-0.393095 0.161104,-0.302876 0.264211,-0.857075 0.270655,-0.908628 z"
               id="path4017" />
            <path
               style="font-style:normal;font-variant:normal;font-weight:normal;font-stretch:normal;letter-spacing:normal;word-spacing:normal;text-anchor:start;fill:#000000;stroke:#000000;stroke-width:0;stroke-linecap:butt;stroke-linejoin:miter;stroke-miterlimit:10.43299961;stroke-opacity:1;stroke-dasharray:none;stroke-dashoffset:0"
               inkscape:connector-curvature="0"
               d="m 94.308167,94.127207 -0.0064,-0.01289 -0.01289,-0.01289 -0.0064,-0.01289 -0.01289,-0.01289 -0.01289,-0.01289 -0.0064,-0.01289 -0.01289,-0.01289 -0.01289,-0.01289 -0.0064,-0.01289 -0.01289,-0.0064 -0.01289,-0.01289 -0.01289,-0.01289 -0.01289,-0.0064 -0.01289,-0.01289 -0.01933,-0.0064 -0.01289,-0.01289 -0.01289,-0.0064 -0.01289,-0.01289 -0.01933,-0.0064 -0.01289,-0.0064 -0.01933,-0.0064 -0.01289,-0.0064 -0.01933,-0.0064 -0.01289,-0.0064 -0.01933,0 -0.01933,-0.0064 -0.01933,-0.0064 -0.01933,0 -0.01933,0 -0.01933,-0.0064 -0.01933,0 -0.01933,0 v 0.128884 c 0.315764,0 0.399539,0.341541 0.399539,0.38665 0,0.01933 -0.0064,0.05155 -0.01289,0.06444 l -0.212658,0.837742 c -0.02578,0.128884 -0.128883,0.212658 -0.225546,0.302876 -0.03866,0.03222 -0.219101,0.173993 -0.412427,0.173993 -0.167548,0 -0.328652,-0.115995 -0.328652,-0.43176 0,-0.238434 0.128883,-0.728191 0.23199,-0.908628 0.206213,-0.360874 0.438204,-0.425315 0.560643,-0.425315 v -0.128884 c -0.573531,0 -1.153507,0.631529 -1.153507,1.275946 0,0.438204 0.289988,0.747524 0.676638,0.747524 0.238434,0 0.457536,-0.141772 0.637973,-0.315764 0.08377,0.270655 0.341541,0.315764 0.457536,0.315764 0.161105,0 0.2771,-0.09666 0.35443,-0.238434 0.103107,-0.173993 0.161104,-0.43176 0.161104,-0.444648 0,-0.06444 -0.058,-0.06444 -0.07089,-0.06444 -0.06444,0 -0.07089,0.01933 -0.103107,0.141772 -0.05155,0.212658 -0.135327,0.476869 -0.328652,0.476869 -0.115995,0 -0.141772,-0.09666 -0.141772,-0.219102 0,-0.07733 0.03222,-0.238434 0.06444,-0.35443 0.03222,-0.115995 0.07733,-0.302876 0.09666,-0.399538 l 0.09022,-0.341541 c 0.02578,-0.115995 0.08377,-0.328653 0.08377,-0.347986 0,-0.103106 -0.08377,-0.148216 -0.15466,-0.148216 -0.07733,0 -0.180437,0.058 -0.206214,0.180437 z"
               id="path4019" />
            <path
               style="font-style:normal;font-variant:normal;font-weight:normal;font-stretch:normal;letter-spacing:normal;word-spacing:normal;text-anchor:start;fill:#000000;stroke:#000000;stroke-width:0;stroke-linecap:butt;stroke-linejoin:miter;stroke-miterlimit:10.43299961;stroke-opacity:1;stroke-dasharray:none;stroke-dashoffset:0"
               inkscape:connector-curvature="0"
               d="m 96.254307,94.932729 0,0 0,0 0,-0.0064 0,0 0,-0.0064 0,0 0.0064,-0.0064 0,-0.0064 0,0 0,-0.0064 0,-0.0064 0.0064,-0.0064 0,-0.0064 0,-0.0064 0.0064,-0.01933 0,-0.01289 0.0064,-0.01933 0.0064,-0.01933 0.0064,-0.01933 0,-0.01933 0.0064,-0.01933 0.01289,-0.03866 0.0064,-0.03866 0.0064,-0.01933 0.0064,-0.01933 0.0064,-0.01933 0,-0.01933 0.0064,-0.01289 0.0064,-0.01933 0,-0.01289 0.0064,-0.0064 0,-0.0064 0,-0.0064 0,-0.0064 0.0064,-0.0064 0,-0.0064 0,-0.0064 0,0 0,-0.0064 0.0064,0 0,-0.0064 0,0 0,-0.0064 0,0 c 0.0064,-0.03222 0.141772,-0.257767 0.283544,-0.367318 0.05155,-0.03222 0.167548,-0.122439 0.360874,-0.122439 0.04511,0 0.161104,0 0.251322,0.058 -0.148216,0.04511 -0.199769,0.167549 -0.199769,0.251323 0,0.09666 0.07733,0.161104 0.180437,0.161104 0.103107,0 0.251322,-0.08377 0.251322,-0.270655 0,-0.23199 -0.244878,-0.328653 -0.476868,-0.328653 -0.23199,0 -0.43176,0.09666 -0.631529,0.322209 -0.08377,-0.2771 -0.35443,-0.322209 -0.463981,-0.322209 -0.167548,0 -0.277099,0.103107 -0.347985,0.23199 -0.103107,0.173993 -0.167548,0.43176 -0.167548,0.457537 0,0.058 0.06444,0.058 0.07733,0.058 0.06444,0 0.06444,-0.01289 0.09666,-0.135327 0.07089,-0.2771 0.15466,-0.483313 0.328653,-0.483313 0.115995,0 0.148216,0.09666 0.148216,0.219101 0,0.08378 -0.03866,0.251323 -0.07089,0.367318 -0.03222,0.12244 -0.07733,0.309321 -0.103107,0.405983 l -0.141771,0.573531 c -0.01289,0.058 -0.04511,0.173993 -0.04511,0.186881 0,0.09666 0.08378,0.141772 0.154661,0.141772 0.06444,0 0.15466,-0.03866 0.193325,-0.128883 0.0064,-0.02578 0.058,-0.225546 0.08377,-0.335097 z"
               id="path4021" />
            <path
               style="fill:none;stroke:#000000;stroke-width:0.99921262;stroke-linecap:butt;stroke-linejoin:miter;stroke-miterlimit:4;stroke-opacity:1;stroke-dasharray:0.99921261, 3.99685043;stroke-dashoffset:0"
               d="M 153.8399,147.04005 125.5698,118.55301"
               id="path4989"
               inkscape:connector-curvature="0"
               transform="matrix(0.28222223,0,0,0.28222223,37.563283,102.49591)" />
            <path
               style="fill:none;stroke:#000000;stroke-width:0.28222224;stroke-linecap:butt;stroke-linejoin:miter;stroke-miterlimit:4;stroke-opacity:1;stroke-dasharray:0.28222223, 1.12888893;stroke-dashoffset:0"
               d="M 100.21738,102.58188 92.238927,94.542199"
               id="path4989-9"
               inkscape:connector-curvature="0" />
          </g>
        </g>
      </g>
    </g>
  </g>
</svg>
