<?xml version="1.0" encoding="UTF-8" standalone="no"?>
<!-- Created with Inkscape (http://www.inkscape.org/) -->

<svg
   xmlns:ns1="http://www.iki.fi/pav/software/textext/"
   xmlns:dc="http://purl.org/dc/elements/1.1/"
   xmlns:cc="http://creativecommons.org/ns#"
   xmlns:rdf="http://www.w3.org/1999/02/22-rdf-syntax-ns#"
   xmlns:svg="http://www.w3.org/2000/svg"
   xmlns="http://www.w3.org/2000/svg"
   xmlns:sodipodi="http://sodipodi.sourceforge.net/DTD/sodipodi-0.dtd"
   xmlns:inkscape="http://www.inkscape.org/namespaces/inkscape"
   width="87.200867mm"
   height="80.925438mm"
   viewBox="0 0 87.200867 80.925438"
   version="1.1"
   id="svg8"
   sodipodi:docname="least_squares_2x2.svg"
   inkscape:version="0.92.3 (2405546, 2018-03-11)"
   inkscape:export-filename="/home/nrotella/Pictures/least_squares_2x2.png"
   inkscape:export-xdpi="96"
   inkscape:export-ydpi="96">
  <sodipodi:namedview
     id="base"
     pagecolor="#ffffff"
     bordercolor="#666666"
     borderopacity="1.0"
     inkscape:pageopacity="0.0"
     inkscape:pageshadow="2"
     inkscape:zoom="0.90509668"
     inkscape:cx="83.426888"
     inkscape:cy="-45.925672"
     inkscape:document-units="mm"
     inkscape:current-layer="layer1"
     showgrid="false"
     inkscape:snap-bbox="true"
     inkscape:bbox-paths="true"
     inkscape:bbox-nodes="true"
     inkscape:snap-bbox-edge-midpoints="true"
     inkscape:snap-bbox-midpoints="true"
     inkscape:object-paths="true"
     inkscape:snap-intersection-paths="true"
     inkscape:snap-smooth-nodes="true"
     inkscape:snap-midpoints="true"
     inkscape:snap-global="true"
     inkscape:window-width="1837"
     inkscape:window-height="1025"
     inkscape:window-x="83"
     inkscape:window-y="27"
     inkscape:window-maximized="1"
     fit-margin-top="0"
     fit-margin-left="0"
     fit-margin-right="0"
     fit-margin-bottom="0"
     showguides="true"
     inkscape:guide-bbox="true">
    <sodipodi:guide
       position="18.99599,52.804975"
       orientation="1,0"
       id="guide3392"
       inkscape:locked="false" />
    <sodipodi:guide
       position="78.28681,43.476681"
       orientation="1,0"
       id="guide3396"
       inkscape:locked="false" />
    <sodipodi:guide
       position="30.48858,7.7700515"
       orientation="1,0"
       id="guide3838"
       inkscape:locked="false" />
  </sodipodi:namedview>
  <defs
     id="defs2">
    <marker
       inkscape:isstock="true"
       style="overflow:visible"
       id="marker1374"
       refX="0"
       refY="0"
       orient="auto"
       inkscape:stockid="Arrow2Lend">
      <path
         inkscape:connector-curvature="0"
         transform="matrix(-1.1,0,0,-1.1,-1.1,0)"
         d="M 8.7185878,4.0337352 -2.2072895,0.01601326 8.7185884,-4.0017078 c -1.7454984,2.3720609 -1.7354408,5.6174519 -6e-7,8.035443 z"
         style="fill:#000000;fill-opacity:1;fill-rule:evenodd;stroke:#000000;stroke-width:0.625;stroke-linejoin:round;stroke-opacity:1"
         id="path1372" />
    </marker>
    <marker
       inkscape:stockid="Arrow2Lend"
       orient="auto"
       refY="0"
       refX="0"
       id="marker1196"
       style="overflow:visible"
       inkscape:isstock="true">
      <path
         id="path954"
         style="fill:#000000;fill-opacity:1;fill-rule:evenodd;stroke:#000000;stroke-width:0.625;stroke-linejoin:round;stroke-opacity:1"
         d="M 8.7185878,4.0337352 -2.2072895,0.01601326 8.7185884,-4.0017078 c -1.7454984,2.3720609 -1.7354408,5.6174519 -6e-7,8.035443 z"
         transform="matrix(-1.1,0,0,-1.1,-1.1,0)"
         inkscape:connector-curvature="0" />
    </marker>
    <marker
       inkscape:isstock="true"
       style="overflow:visible"
       id="marker1548"
       refX="0"
       refY="0"
       orient="auto"
       inkscape:stockid="Arrow2Lend">
      <path
         inkscape:connector-curvature="0"
         transform="matrix(-1.1,0,0,-1.1,-1.1,0)"
         d="M 8.7185878,4.0337352 -2.2072895,0.01601326 8.7185884,-4.0017078 c -1.7454984,2.3720609 -1.7354408,5.6174519 -6e-7,8.035443 z"
         style="fill:#000000;fill-opacity:1;fill-rule:evenodd;stroke:#000000;stroke-width:0.625;stroke-linejoin:round;stroke-opacity:1"
         id="path1546" />
    </marker>
    <marker
       inkscape:stockid="Arrow2Lstart"
       orient="auto"
       refY="0"
       refX="0"
       id="marker1372"
       style="overflow:visible"
       inkscape:isstock="true">
      <path
         id="path1370"
         style="fill:#000000;fill-opacity:1;fill-rule:evenodd;stroke:#000000;stroke-width:0.625;stroke-linejoin:round;stroke-opacity:1"
         d="M 8.7185878,4.0337352 -2.2072895,0.01601326 8.7185884,-4.0017078 c -1.7454984,2.3720609 -1.7354408,5.6174519 -6e-7,8.035443 z"
         transform="matrix(1.1,0,0,1.1,1.1,0)"
         inkscape:connector-curvature="0" />
    </marker>
    <marker
       inkscape:stockid="Arrow2Lstart"
       orient="auto"
       refY="0"
       refX="0"
       id="Arrow2Lstart"
       style="overflow:visible"
       inkscape:isstock="true">
      <path
         id="path941"
         style="fill:#000000;fill-opacity:1;fill-rule:evenodd;stroke:#000000;stroke-width:0.625;stroke-linejoin:round;stroke-opacity:1"
         d="M 8.7185878,4.0337352 -2.2072895,0.01601326 8.7185884,-4.0017078 c -1.7454984,2.3720609 -1.7354408,5.6174519 -6e-7,8.035443 z"
         transform="matrix(1.1,0,0,1.1,1.1,0)"
         inkscape:connector-curvature="0" />
    </marker>
    <marker
       inkscape:stockid="Arrow2Lend"
       orient="auto"
       refY="0"
       refX="0"
       id="marker1186"
       style="overflow:visible"
       inkscape:isstock="true">
      <path
         id="path944"
         style="fill:#000000;fill-opacity:1;fill-rule:evenodd;stroke:#000000;stroke-width:0.625;stroke-linejoin:round;stroke-opacity:1"
         d="M 8.7185878,4.0337352 -2.2072895,0.01601326 8.7185884,-4.0017078 c -1.7454984,2.3720609 -1.7354408,5.6174519 -6e-7,8.035443 z"
         transform="matrix(-1.1,0,0,-1.1,-1.1,0)"
         inkscape:connector-curvature="0" />
    </marker>
    <marker
       inkscape:isstock="true"
       style="overflow:visible"
       id="marker4368"
       refX="0"
       refY="0"
       orient="auto"
       inkscape:stockid="Arrow2Lend">
      <path
         inkscape:connector-curvature="0"
         transform="matrix(-1.1,0,0,-1.1,-1.1,0)"
         d="M 8.7185878,4.0337352 -2.2072895,0.01601326 8.7185884,-4.0017078 c -1.7454984,2.3720609 -1.7354408,5.6174519 -6e-7,8.035443 z"
         style="fill:#000000;fill-opacity:1;fill-rule:evenodd;stroke:#000000;stroke-width:0.625;stroke-linejoin:round;stroke-opacity:1"
         id="path4366" />
    </marker>
    <marker
       inkscape:isstock="true"
       style="overflow:visible"
       id="marker3320"
       refX="0"
       refY="0"
       orient="auto"
       inkscape:stockid="Arrow2Lend">
      <path
         inkscape:connector-curvature="0"
         transform="matrix(-1.1,0,0,-1.1,-1.1,0)"
         d="M 8.7185878,4.0337352 -2.2072895,0.01601326 8.7185884,-4.0017078 c -1.7454984,2.3720609 -1.7354408,5.6174519 -6e-7,8.035443 z"
         style="fill:#000000;fill-opacity:1;fill-rule:evenodd;stroke:#000000;stroke-width:0.625;stroke-linejoin:round;stroke-opacity:1"
         id="path3318" />
    </marker>
    <marker
       inkscape:stockid="Arrow2Lend"
       orient="auto"
       refY="0"
       refX="0"
       id="marker2976"
       style="overflow:visible"
       inkscape:isstock="true">
      <path
         id="path930"
         style="fill:#000000;fill-opacity:1;fill-rule:evenodd;stroke:#000000;stroke-width:0.625;stroke-linejoin:round;stroke-opacity:1"
         d="M 8.7185878,4.0337352 -2.2072895,0.01601326 8.7185884,-4.0017078 c -1.7454984,2.3720609 -1.7354408,5.6174519 -6e-7,8.035443 z"
         transform="matrix(-1.1,0,0,-1.1,-1.1,0)"
         inkscape:connector-curvature="0" />
    </marker>
    <marker
       inkscape:isstock="true"
       style="overflow:visible"
       id="marker2781"
       refX="0"
       refY="0"
       orient="auto"
       inkscape:stockid="Arrow2Lend">
      <path
         inkscape:connector-curvature="0"
         transform="matrix(-1.1,0,0,-1.1,-1.1,0)"
         d="M 8.7185878,4.0337352 -2.2072895,0.01601326 8.7185884,-4.0017078 c -1.7454984,2.3720609 -1.7354408,5.6174519 -6e-7,8.035443 z"
         style="fill:#000000;fill-opacity:1;fill-rule:evenodd;stroke:#000000;stroke-width:0.625;stroke-linejoin:round;stroke-opacity:1"
         id="path2779" />
    </marker>
    <marker
       inkscape:stockid="Arrow1Lend"
       orient="auto"
       refY="0"
       refX="0"
       id="marker1187"
       style="overflow:visible"
       inkscape:isstock="true">
      <path
         id="path1185"
         d="M 0,0 5,-5 -12.5,0 5,5 Z"
         style="fill:#000000;fill-opacity:1;fill-rule:evenodd;stroke:#000000;stroke-width:1.00000003pt;stroke-opacity:1"
         transform="matrix(-0.8,0,0,-0.8,-10,0)"
         inkscape:connector-curvature="0" />
    </marker>
    <marker
       inkscape:stockid="Arrow1Lend"
       orient="auto"
       refY="0"
       refX="0"
       id="Arrow1Lend"
       style="overflow:visible"
       inkscape:isstock="true">
      <path
         id="path912"
         d="M 0,0 5,-5 -12.5,0 5,5 Z"
         style="fill:#000000;fill-opacity:1;fill-rule:evenodd;stroke:#000000;stroke-width:1.00000003pt;stroke-opacity:1"
         transform="matrix(-0.8,0,0,-0.8,-10,0)"
         inkscape:connector-curvature="0" />
    </marker>
    <marker
       inkscape:isstock="true"
       style="overflow:visible"
       id="marker3360"
       refX="0"
       refY="0"
       orient="auto"
       inkscape:stockid="Arrow1Mstart">
      <path
         inkscape:connector-curvature="0"
         transform="matrix(0.4,0,0,0.4,4,0)"
         style="fill:#000000;fill-opacity:1;fill-rule:evenodd;stroke:#000000;stroke-width:1.00000003pt;stroke-opacity:1"
         d="M 0,0 5,-5 -12.5,0 5,5 Z"
         id="path3358" />
    </marker>
    <marker
       inkscape:stockid="Arrow1Mstart"
       orient="auto"
       refY="0"
       refX="0"
       id="Arrow1Mstart"
       style="overflow:visible"
       inkscape:isstock="true"
       inkscape:collect="always">
      <path
         inkscape:connector-curvature="0"
         id="path825"
         d="M 0,0 5,-5 -12.5,0 5,5 Z"
         style="fill:#000000;fill-opacity:1;fill-rule:evenodd;stroke:#000000;stroke-width:1.00000003pt;stroke-opacity:1"
         transform="matrix(0.4,0,0,0.4,4,0)" />
    </marker>
    <marker
       inkscape:isstock="true"
       style="overflow:visible"
       id="marker3314"
       refX="0"
       refY="0"
       orient="auto"
       inkscape:stockid="Arrow1Lstart">
      <path
         inkscape:connector-curvature="0"
         transform="matrix(0.8,0,0,0.8,10,0)"
         style="fill:#000000;fill-opacity:1;fill-rule:evenodd;stroke:#000000;stroke-width:1.00000003pt;stroke-opacity:1"
         d="M 0,0 5,-5 -12.5,0 5,5 Z"
         id="path3312" />
    </marker>
    <marker
       inkscape:isstock="true"
       style="overflow:visible"
       id="marker3272"
       refX="0"
       refY="0"
       orient="auto"
       inkscape:stockid="Arrow2Lend">
      <path
         inkscape:connector-curvature="0"
         transform="matrix(-1.1,0,0,-1.1,-1.1,0)"
         d="M 8.7185878,4.0337352 -2.2072895,0.01601326 8.7185884,-4.0017078 c -1.7454984,2.3720609 -1.7354408,5.6174519 -6e-7,8.035443 z"
         style="fill:#000000;fill-opacity:1;fill-rule:evenodd;stroke:#000000;stroke-width:0.625;stroke-linejoin:round;stroke-opacity:1"
         id="path3270" />
    </marker>
    <marker
       inkscape:isstock="true"
       style="overflow:visible"
       id="marker3262"
       refX="0"
       refY="0"
       orient="auto"
       inkscape:stockid="Arrow2Lend">
      <path
         inkscape:connector-curvature="0"
         transform="matrix(-1.1,0,0,-1.1,-1.1,0)"
         d="M 8.7185878,4.0337352 -2.2072895,0.01601326 8.7185884,-4.0017078 c -1.7454984,2.3720609 -1.7354408,5.6174519 -6e-7,8.035443 z"
         style="fill:#000000;fill-opacity:1;fill-rule:evenodd;stroke:#000000;stroke-width:0.625;stroke-linejoin:round;stroke-opacity:1"
         id="path3260" />
    </marker>
    <marker
       inkscape:stockid="Arrow2Lend"
       orient="auto"
       refY="0"
       refX="0"
       id="marker3158"
       style="overflow:visible"
       inkscape:isstock="true">
      <path
         id="path3156"
         style="fill:#000000;fill-opacity:1;fill-rule:evenodd;stroke:#000000;stroke-width:0.625;stroke-linejoin:round;stroke-opacity:1"
         d="M 8.7185878,4.0337352 -2.2072895,0.01601326 8.7185884,-4.0017078 c -1.7454984,2.3720609 -1.7354408,5.6174519 -6e-7,8.035443 z"
         transform="matrix(-1.1,0,0,-1.1,-1.1,0)"
         inkscape:connector-curvature="0" />
    </marker>
    <marker
       inkscape:stockid="Arrow2Lend"
       orient="auto"
       refY="0"
       refX="0"
       id="marker3128"
       style="overflow:visible"
       inkscape:isstock="true"
       inkscape:collect="always">
      <path
         id="path3126"
         style="fill:#000000;fill-opacity:1;fill-rule:evenodd;stroke:#000000;stroke-width:0.625;stroke-linejoin:round;stroke-opacity:1"
         d="M 8.7185878,4.0337352 -2.2072895,0.01601326 8.7185884,-4.0017078 c -1.7454984,2.3720609 -1.7354408,5.6174519 -6e-7,8.035443 z"
         transform="matrix(-1.1,0,0,-1.1,-1.1,0)"
         inkscape:connector-curvature="0" />
    </marker>
    <marker
       inkscape:stockid="Arrow2Lend"
       orient="auto"
       refY="0"
       refX="0"
       id="Arrow2Lend"
       style="overflow:visible"
       inkscape:isstock="true"
       inkscape:collect="always">
      <path
         id="path840"
         style="fill:#000000;fill-opacity:1;fill-rule:evenodd;stroke:#000000;stroke-width:0.625;stroke-linejoin:round;stroke-opacity:1"
         d="M 8.7185878,4.0337352 -2.2072895,0.01601326 8.7185884,-4.0017078 c -1.7454984,2.3720609 -1.7354408,5.6174519 -6e-7,8.035443 z"
         transform="matrix(-1.1,0,0,-1.1,-1.1,0)"
         inkscape:connector-curvature="0" />
    </marker>
    <marker
       inkscape:stockid="Arrow1Lend"
       orient="auto"
       refY="0"
       refX="0"
       id="marker1353"
       style="overflow:visible"
       inkscape:isstock="true">
      <path
         id="path1351"
         d="M 0,0 5,-5 -12.5,0 5,5 Z"
         style="fill:#000000;fill-opacity:1;fill-rule:evenodd;stroke:#000000;stroke-width:1.00000003pt;stroke-opacity:1"
         transform="matrix(-0.8,0,0,-0.8,-10,0)"
         inkscape:connector-curvature="0" />
    </marker>
  </defs>
  <metadata
     id="metadata5">
    <rdf:RDF>
      <cc:Work
         rdf:about="">
        <dc:format>image/svg+xml</dc:format>
        <dc:type
           rdf:resource="http://purl.org/dc/dcmitype/StillImage" />
        <dc:title></dc:title>
      </cc:Work>
    </rdf:RDF>
  </metadata>
  <g
     id="layer1"
     inkscape:groupmode="layer"
     inkscape:label="Layer 1"
     transform="translate(-36.328802,-82.726299)">
    <path
       sodipodi:nodetypes="cc"
       inkscape:connector-curvature="0"
       id="path817"
       d="M 66.817382,155.88169 122.94398,87.327056"
       style="fill:none;stroke:#000000;stroke-width:0.5;stroke-linecap:butt;stroke-linejoin:miter;stroke-miterlimit:4;stroke-dasharray:none;stroke-opacity:1;marker-end:url(#Arrow2Lend)" />
    <path
       inkscape:connector-curvature="0"
       id="path1159"
       d="M 66.817382,155.88169 55.324792,110.84677"
       style="fill:none;stroke:#000000;stroke-width:0.26458332px;stroke-linecap:butt;stroke-linejoin:miter;stroke-opacity:1;marker-end:url(#marker3158)" />
    <path
       sodipodi:nodetypes="cc"
       inkscape:transform-center-y="-29.0324"
       inkscape:transform-center-x="-29.430421"
       inkscape:connector-curvature="0"
       id="path1161"
       d="M 66.821139,155.86753 114.24585,120.47988"
       style="fill:none;stroke:#000000;stroke-width:0.26458332px;stroke-linecap:butt;stroke-linejoin:miter;stroke-opacity:1;marker-end:url(#marker3128)" />
    <g
       id="g2954"
       ns1:jacobian_sqrt="0.691099"
       ns1:alignment="middle center"
       ns1:scale="1.95901985521"
       ns1:preamble="/home/nrotella/.config/inkscape/extensions/textext/default_packages.tex"
       ns1:text="$$a_{1}$$"
       ns1:pdfconverter="pdf2svg"
       ns1:texconverter="pdflatex"
       ns1:version="0.11.0"
       transform="matrix(0.691099,0,0,0.691099,-93.915633,16.971447)">
      <g
         id="surface1">
        <g
           id="g2947"
           style="fill:#000000;fill-opacity:1">
          <path
             inkscape:connector-curvature="0"
             id="path2945"
             transform="translate(300.756,146.72)"
             d="M 3.71875,-3.765625 C 3.53125,-4.140625 3.25,-4.40625 2.796875,-4.40625 c -1.15625,0 -2.390625,1.46875 -2.390625,2.921875 0,0.9375 0.546875,1.59375 1.3125,1.59375 0.203125,0 0.703125,-0.046875 1.296875,-0.75 0.078125,0.421875 0.4375,0.75 0.90625,0.75 0.359375,0 0.578125,-0.234375 0.75,-0.546875 0.15625,-0.359375 0.296875,-0.96875 0.296875,-0.984375 0,-0.109375 -0.09375,-0.109375 -0.125,-0.109375 -0.09375,0 -0.109375,0.046875 -0.140625,0.1875 -0.171875,0.640625 -0.34375,1.234375 -0.75,1.234375 -0.28125,0 -0.296875,-0.265625 -0.296875,-0.453125 0,-0.21875 0.015625,-0.3125 0.125,-0.75 C 3.890625,-1.71875 3.90625,-1.828125 4,-2.203125 L 4.359375,-3.59375 c 0.0625,-0.28125 0.0625,-0.296875 0.0625,-0.34375 0,-0.171875 -0.109375,-0.265625 -0.28125,-0.265625 -0.25,0 -0.390625,0.21875 -0.421875,0.4375 z M 3.078125,-1.1875 C 3.015625,-1 3.015625,-0.984375 2.875,-0.8125 2.4375,-0.265625 2.03125,-0.109375 1.75,-0.109375 c -0.5,0 -0.640625,-0.546875 -0.640625,-0.9375 0,-0.5 0.3125,-1.71875 0.546875,-2.1875 0.3125,-0.578125 0.75,-0.953125 1.15625,-0.953125 0.640625,0 0.78125,0.8125 0.78125,0.875 0,0.0625 -0.015625,0.125 -0.03125,0.171875 z m 0,0"
             style="stroke:none;stroke-width:0" />
        </g>
        <g
           id="g2951"
           style="fill:#000000;fill-opacity:1">
          <path
             inkscape:connector-curvature="0"
             id="path2949"
             transform="translate(306.022,148.214)"
             d="m 2.328125,-4.4375 c 0,-0.1875 0,-0.1875 -0.203125,-0.1875 -0.453125,0.4375 -1.078125,0.4375 -1.359375,0.4375 v 0.25 c 0.15625,0 0.625,0 1,-0.1875 v 3.546875 c 0,0.234375 0,0.328125 -0.6875,0.328125 H 0.8125 V 0 c 0.125,0 0.984375,-0.03125 1.234375,-0.03125 0.21875,0 1.09375,0.03125 1.25,0.03125 V -0.25 H 3.03125 c -0.703125,0 -0.703125,-0.09375 -0.703125,-0.328125 z m 0,0"
             style="stroke:none;stroke-width:0" />
        </g>
      </g>
    </g>
    <g
       transform="matrix(0.691099,0,0,0.691099,-54.710373,16.325797)"
       ns1:version="0.11.0"
       ns1:texconverter="pdflatex"
       ns1:pdfconverter="pdf2svg"
       ns1:text="$a_{2}$"
       ns1:preamble="/home/nrotella/.config/inkscape/extensions/textext/default_packages.tex"
       ns1:scale="1.95901985521"
       ns1:alignment="middle center"
       ns1:jacobian_sqrt="0.691099"
       id="g3004">
      <g
         id="g3002">
        <g
           style="fill:#000000;fill-opacity:1"
           id="g2996">
          <path
             inkscape:connector-curvature="0"
             style="stroke:none;stroke-width:0"
             d="M 3.71875,-3.765625 C 3.53125,-4.140625 3.25,-4.40625 2.796875,-4.40625 c -1.15625,0 -2.390625,1.46875 -2.390625,2.921875 0,0.9375 0.546875,1.59375 1.3125,1.59375 0.203125,0 0.703125,-0.046875 1.296875,-0.75 0.078125,0.421875 0.4375,0.75 0.90625,0.75 0.359375,0 0.578125,-0.234375 0.75,-0.546875 0.15625,-0.359375 0.296875,-0.96875 0.296875,-0.984375 0,-0.109375 -0.09375,-0.109375 -0.125,-0.109375 -0.09375,0 -0.109375,0.046875 -0.140625,0.1875 -0.171875,0.640625 -0.34375,1.234375 -0.75,1.234375 -0.28125,0 -0.296875,-0.265625 -0.296875,-0.453125 0,-0.21875 0.015625,-0.3125 0.125,-0.75 C 3.890625,-1.71875 3.90625,-1.828125 4,-2.203125 L 4.359375,-3.59375 c 0.0625,-0.28125 0.0625,-0.296875 0.0625,-0.34375 0,-0.171875 -0.109375,-0.265625 -0.28125,-0.265625 -0.25,0 -0.390625,0.21875 -0.421875,0.4375 z M 3.078125,-1.1875 C 3.015625,-1 3.015625,-0.984375 2.875,-0.8125 2.4375,-0.265625 2.03125,-0.109375 1.75,-0.109375 c -0.5,0 -0.640625,-0.546875 -0.640625,-0.9375 0,-0.5 0.3125,-1.71875 0.546875,-2.1875 0.3125,-0.578125 0.75,-0.953125 1.15625,-0.953125 0.640625,0 0.78125,0.8125 0.78125,0.875 0,0.0625 -0.015625,0.125 -0.03125,0.171875 z m 0,0"
             transform="translate(148.712,134.765)"
             id="path2994" />
        </g>
        <g
           style="fill:#000000;fill-opacity:1"
           id="g3000">
          <path
             inkscape:connector-curvature="0"
             style="stroke:none;stroke-width:0"
             d="M 3.515625,-1.265625 H 3.28125 c -0.015625,0.15625 -0.09375,0.5625 -0.1875,0.625 C 3.046875,-0.59375 2.515625,-0.59375 2.40625,-0.59375 H 1.125 c 0.734375,-0.640625 0.984375,-0.84375 1.390625,-1.171875 0.515625,-0.40625 1,-0.84375 1,-1.5 0,-0.84375 -0.734375,-1.359375 -1.625,-1.359375 -0.859375,0 -1.453125,0.609375 -1.453125,1.25 0,0.34375 0.296875,0.390625 0.375,0.390625 0.15625,0 0.359375,-0.125 0.359375,-0.375 0,-0.125 -0.046875,-0.375 -0.40625,-0.375 C 0.984375,-4.21875 1.453125,-4.375 1.78125,-4.375 c 0.703125,0 1.0625,0.546875 1.0625,1.109375 0,0.609375 -0.4375,1.078125 -0.65625,1.328125 L 0.515625,-0.265625 C 0.4375,-0.203125 0.4375,-0.1875 0.4375,0 h 2.875 z m 0,0"
             transform="translate(153.978,136.259)"
             id="path2998" />
        </g>
      </g>
    </g>
    <g
       id="g3062"
       ns1:jacobian_sqrt="0.691099"
       ns1:alignment="middle center"
       ns1:scale="1.95901985521"
       ns1:preamble="/home/nrotella/.config/inkscape/extensions/textext/default_packages.tex"
       ns1:text="$b$\n"
       ns1:pdfconverter="pdf2svg"
       ns1:texconverter="pdflatex"
       ns1:version="0.11.0"
       transform="matrix(0.691099,0,0,0.691099,8.6506035,-1.4821014)">
      <g
         id="g3060">
        <g
           id="g3058"
           style="fill:#000000;fill-opacity:1">
          <path
             id="path3056"
             transform="translate(148.712,134.765)"
             d="m 2.375,-6.8125 c 0,0 0,-0.109375 -0.125,-0.109375 -0.21875,0 -0.953125,0.078125 -1.21875,0.109375 -0.078125,0 -0.1875,0.015625 -0.1875,0.1875 0,0.125 0.09375,0.125 0.25,0.125 0.46875,0 0.484375,0.0625 0.484375,0.171875 0,0.0625 -0.078125,0.40625 -0.125,0.609375 l -0.828125,3.25 c -0.109375,0.5 -0.15625,0.671875 -0.15625,1.015625 0,0.9375 0.53125,1.5625 1.265625,1.5625 1.171875,0 2.40625,-1.484375 2.40625,-2.921875 0,-0.90625 -0.53125,-1.59375 -1.328125,-1.59375 -0.453125,0 -0.875,0.296875 -1.171875,0.59375 z M 1.453125,-3.046875 C 1.5,-3.265625 1.5,-3.28125 1.59375,-3.390625 2.078125,-4.03125 2.53125,-4.1875 2.796875,-4.1875 c 0.359375,0 0.625,0.296875 0.625,0.9375 0,0.59375 -0.328125,1.734375 -0.515625,2.109375 -0.328125,0.671875 -0.78125,1.03125 -1.171875,1.03125 -0.34375,0 -0.671875,-0.265625 -0.671875,-1 0,-0.203125 0,-0.390625 0.15625,-1.015625 z m 0,0"
             style="stroke:none;stroke-width:0"
             inkscape:connector-curvature="0" />
        </g>
      </g>
    </g>
    <path
       style="fill:none;stroke:#000000;stroke-width:0.26458332px;stroke-linecap:butt;stroke-linejoin:miter;stroke-opacity:1;marker-start:url(#Arrow1Mstart)"
       d="m 40.496797,147.75471 v 8.41898"
       id="path3237"
       inkscape:connector-curvature="0" />
    <path
       style="fill:none;stroke:#000000;stroke-width:0.26458332px;stroke-linecap:butt;stroke-linejoin:miter;stroke-opacity:1;marker-start:url(#marker3360)"
       d="m 49.048069,156.0414 h -8.41898"
       id="path3237-3"
       inkscape:connector-curvature="0" />
    <g
       transform="matrix(0.50544721,0,0,0.50544721,76.631815,144.84644)"
       id="g3599">
      <g
         id="g3448"
         style="fill:#000000;fill-opacity:1"
         transform="matrix(0.691099,0,0,0.691099,-80.398697,-57.891852)">
        <path
           id="path3446"
           transform="translate(148.712,134.765)"
           d="M 3.71875,-3.765625 C 3.53125,-4.140625 3.25,-4.40625 2.796875,-4.40625 c -1.15625,0 -2.390625,1.46875 -2.390625,2.921875 0,0.9375 0.546875,1.59375 1.3125,1.59375 0.203125,0 0.703125,-0.046875 1.296875,-0.75 0.078125,0.421875 0.4375,0.75 0.90625,0.75 0.359375,0 0.578125,-0.234375 0.75,-0.546875 0.15625,-0.359375 0.296875,-0.96875 0.296875,-0.984375 0,-0.109375 -0.09375,-0.109375 -0.125,-0.109375 -0.09375,0 -0.109375,0.046875 -0.140625,0.1875 -0.171875,0.640625 -0.34375,1.234375 -0.75,1.234375 -0.28125,0 -0.296875,-0.265625 -0.296875,-0.453125 0,-0.21875 0.015625,-0.3125 0.125,-0.75 C 3.890625,-1.71875 3.90625,-1.828125 4,-2.203125 L 4.359375,-3.59375 c 0.0625,-0.28125 0.0625,-0.296875 0.0625,-0.34375 0,-0.171875 -0.109375,-0.265625 -0.28125,-0.265625 -0.25,0 -0.390625,0.21875 -0.421875,0.4375 z M 3.078125,-1.1875 C 3.015625,-1 3.015625,-0.984375 2.875,-0.8125 2.4375,-0.265625 2.03125,-0.109375 1.75,-0.109375 c -0.5,0 -0.640625,-0.546875 -0.640625,-0.9375 0,-0.5 0.3125,-1.71875 0.546875,-2.1875 0.3125,-0.578125 0.75,-0.953125 1.15625,-0.953125 0.640625,0 0.78125,0.8125 0.78125,0.875 0,0.0625 -0.015625,0.125 -0.03125,0.171875 z m 0,0"
           style="stroke:none;stroke-width:0"
           inkscape:connector-curvature="0" />
      </g>
      <g
         id="g3452"
         style="fill:#000000;fill-opacity:1"
         transform="matrix(0.691099,0,0,0.691099,-80.398697,-57.891852)">
        <path
           id="path3450"
           transform="translate(153.978,136.259)"
           d="m 2.328125,-4.4375 c 0,-0.1875 0,-0.1875 -0.203125,-0.1875 -0.453125,0.4375 -1.078125,0.4375 -1.359375,0.4375 v 0.25 c 0.15625,0 0.625,0 1,-0.1875 v 3.546875 c 0,0.234375 0,0.328125 -0.6875,0.328125 H 0.8125 V 0 c 0.125,0 0.984375,-0.03125 1.234375,-0.03125 0.21875,0 1.09375,0.03125 1.25,0.03125 V -0.25 H 3.03125 c -0.703125,0 -0.703125,-0.09375 -0.703125,-0.328125 z m 0,0"
           style="stroke:none;stroke-width:0"
           inkscape:connector-curvature="0" />
      </g>
      <g
         id="g3456"
         style="fill:#000000;fill-opacity:1"
         transform="matrix(0.691099,0,0,0.691099,-80.398697,-57.891852)">
        <path
           id="path3454"
           transform="translate(157.95,136.259)"
           d="m 1.46875,-0.109375 c 0,0.375 -0.0625,0.828125 -0.546875,1.265625 C 0.90625,1.1875 0.875,1.21875 0.875,1.25 c 0,0.046875 0.0625,0.09375 0.09375,0.09375 0.109375,0 0.703125,-0.5625 0.703125,-1.390625 0,-0.421875 -0.171875,-0.75 -0.5,-0.75 -0.21875,0 -0.390625,0.171875 -0.390625,0.390625 C 0.78125,-0.1875 0.9375,0 1.1875,0 1.359375,0 1.46875,-0.109375 1.46875,-0.109375 Z m 0,0"
           style="stroke:none;stroke-width:0"
           inkscape:connector-curvature="0" />
      </g>
      <g
         id="g3460"
         style="fill:#000000;fill-opacity:1"
         transform="matrix(0.691099,0,0,0.691099,-80.398697,-57.891852)">
        <path
           id="path3458"
           transform="translate(160.316,136.259)"
           d="m 2.328125,-4.4375 c 0,-0.1875 0,-0.1875 -0.203125,-0.1875 -0.453125,0.4375 -1.078125,0.4375 -1.359375,0.4375 v 0.25 c 0.15625,0 0.625,0 1,-0.1875 v 3.546875 c 0,0.234375 0,0.328125 -0.6875,0.328125 H 0.8125 V 0 c 0.125,0 0.984375,-0.03125 1.234375,-0.03125 0.21875,0 1.09375,0.03125 1.25,0.03125 V -0.25 H 3.03125 c -0.703125,0 -0.703125,-0.09375 -0.703125,-0.328125 z m 0,0"
           style="stroke:none;stroke-width:0"
           inkscape:connector-curvature="0" />
      </g>
    </g>
    <g
       transform="matrix(0.50544721,0,0,0.50544721,98.019265,123.87674)"
       id="g3589">
      <g
         id="g3464"
         style="fill:#000000;fill-opacity:1"
         transform="matrix(0.691099,0,0,0.691099,-80.398697,-57.891852)">
        <path
           id="path3462"
           transform="translate(168.106,134.765)"
           d="M 3.71875,-3.765625 C 3.53125,-4.140625 3.25,-4.40625 2.796875,-4.40625 c -1.15625,0 -2.390625,1.46875 -2.390625,2.921875 0,0.9375 0.546875,1.59375 1.3125,1.59375 0.203125,0 0.703125,-0.046875 1.296875,-0.75 0.078125,0.421875 0.4375,0.75 0.90625,0.75 0.359375,0 0.578125,-0.234375 0.75,-0.546875 0.15625,-0.359375 0.296875,-0.96875 0.296875,-0.984375 0,-0.109375 -0.09375,-0.109375 -0.125,-0.109375 -0.09375,0 -0.109375,0.046875 -0.140625,0.1875 -0.171875,0.640625 -0.34375,1.234375 -0.75,1.234375 -0.28125,0 -0.296875,-0.265625 -0.296875,-0.453125 0,-0.21875 0.015625,-0.3125 0.125,-0.75 C 3.890625,-1.71875 3.90625,-1.828125 4,-2.203125 L 4.359375,-3.59375 c 0.0625,-0.28125 0.0625,-0.296875 0.0625,-0.34375 0,-0.171875 -0.109375,-0.265625 -0.28125,-0.265625 -0.25,0 -0.390625,0.21875 -0.421875,0.4375 z M 3.078125,-1.1875 C 3.015625,-1 3.015625,-0.984375 2.875,-0.8125 2.4375,-0.265625 2.03125,-0.109375 1.75,-0.109375 c -0.5,0 -0.640625,-0.546875 -0.640625,-0.9375 0,-0.5 0.3125,-1.71875 0.546875,-2.1875 0.3125,-0.578125 0.75,-0.953125 1.15625,-0.953125 0.640625,0 0.78125,0.8125 0.78125,0.875 0,0.0625 -0.015625,0.125 -0.03125,0.171875 z m 0,0"
           style="stroke:none;stroke-width:0"
           inkscape:connector-curvature="0" />
      </g>
      <g
         id="g3468"
         style="fill:#000000;fill-opacity:1"
         transform="matrix(0.691099,0,0,0.691099,-80.398697,-57.891852)">
        <path
           id="path3466"
           transform="translate(173.372,136.259)"
           d="M 3.515625,-1.265625 H 3.28125 c -0.015625,0.15625 -0.09375,0.5625 -0.1875,0.625 C 3.046875,-0.59375 2.515625,-0.59375 2.40625,-0.59375 H 1.125 c 0.734375,-0.640625 0.984375,-0.84375 1.390625,-1.171875 0.515625,-0.40625 1,-0.84375 1,-1.5 0,-0.84375 -0.734375,-1.359375 -1.625,-1.359375 -0.859375,0 -1.453125,0.609375 -1.453125,1.25 0,0.34375 0.296875,0.390625 0.375,0.390625 0.15625,0 0.359375,-0.125 0.359375,-0.375 0,-0.125 -0.046875,-0.375 -0.40625,-0.375 C 0.984375,-4.21875 1.453125,-4.375 1.78125,-4.375 c 0.703125,0 1.0625,0.546875 1.0625,1.109375 0,0.609375 -0.4375,1.078125 -0.65625,1.328125 L 0.515625,-0.265625 C 0.4375,-0.203125 0.4375,-0.1875 0.4375,0 h 2.875 z m 0,0"
           style="stroke:none;stroke-width:0"
           inkscape:connector-curvature="0" />
      </g>
      <g
         id="g3472"
         style="fill:#000000;fill-opacity:1"
         transform="matrix(0.691099,0,0,0.691099,-80.398697,-57.891852)">
        <path
           id="path3470"
           transform="translate(177.343,136.259)"
           d="m 1.46875,-0.109375 c 0,0.375 -0.0625,0.828125 -0.546875,1.265625 C 0.90625,1.1875 0.875,1.21875 0.875,1.25 c 0,0.046875 0.0625,0.09375 0.09375,0.09375 0.109375,0 0.703125,-0.5625 0.703125,-1.390625 0,-0.421875 -0.171875,-0.75 -0.5,-0.75 -0.21875,0 -0.390625,0.171875 -0.390625,0.390625 C 0.78125,-0.1875 0.9375,0 1.1875,0 1.359375,0 1.46875,-0.109375 1.46875,-0.109375 Z m 0,0"
           style="stroke:none;stroke-width:0"
           inkscape:connector-curvature="0" />
      </g>
      <g
         id="g3476"
         style="fill:#000000;fill-opacity:1"
         transform="matrix(0.691099,0,0,0.691099,-80.398697,-57.891852)">
        <path
           id="path3474"
           transform="translate(179.71,136.259)"
           d="m 2.328125,-4.4375 c 0,-0.1875 0,-0.1875 -0.203125,-0.1875 -0.453125,0.4375 -1.078125,0.4375 -1.359375,0.4375 v 0.25 c 0.15625,0 0.625,0 1,-0.1875 v 3.546875 c 0,0.234375 0,0.328125 -0.6875,0.328125 H 0.8125 V 0 c 0.125,0 0.984375,-0.03125 1.234375,-0.03125 0.21875,0 1.09375,0.03125 1.25,0.03125 V -0.25 H 3.03125 c -0.703125,0 -0.703125,-0.09375 -0.703125,-0.328125 z m 0,0"
           style="stroke:none;stroke-width:0"
           inkscape:connector-curvature="0" />
      </g>
    </g>
    <g
       id="g3836"
       transform="matrix(0.50544721,0,0,0.50544721,44.595739,95.328855)">
      <path
         id="path3665"
         d="m 27.529927,129.02561 c -0.129581,-0.25916 -0.323952,-0.44273 -0.637106,-0.44273 -0.799084,0 -1.652159,1.01505 -1.652159,2.0193 0,0.64791 0.377945,1.10144 0.907067,1.10144 0.14038,0 0.485929,-0.0324 0.896269,-0.51833 0.05399,0.29156 0.302356,0.51833 0.626309,0.51833 0.248364,0 0.399541,-0.16198 0.518324,-0.37795 0.107984,-0.24836 0.20517,-0.6695 0.20517,-0.6803 0,-0.0756 -0.06479,-0.0756 -0.08639,-0.0756 -0.06479,0 -0.07559,0.0324 -0.09719,0.12959 -0.118783,0.44273 -0.237565,0.85307 -0.518324,0.85307 -0.194372,0 -0.20517,-0.18357 -0.20517,-0.31315 0,-0.15118 0.0108,-0.21597 0.08639,-0.51833 0.07559,-0.28076 0.08639,-0.35635 0.151178,-0.61551 l 0.248364,-0.96106 c 0.04319,-0.19437 0.04319,-0.20517 0.04319,-0.23756 0,-0.11878 -0.07559,-0.18358 -0.194371,-0.18358 -0.172775,0 -0.269961,0.15118 -0.291558,0.30236 z m -0.442735,1.78174 c -0.04319,0.12958 -0.04319,0.14038 -0.140379,0.25916 -0.302356,0.37795 -0.583115,0.48593 -0.777487,0.48593 -0.345549,0 -0.442735,-0.37794 -0.442735,-0.6479 0,-0.34555 0.215968,-1.18783 0.377945,-1.51178 0.215968,-0.39954 0.518324,-0.65871 0.799083,-0.65871 0.442735,0 0.539921,0.56152 0.539921,0.60471 0,0.0432 -0.0108,0.0864 -0.0216,0.11879 z m 0,0"
         style="fill:#000000;fill-opacity:1;stroke:none;stroke-width:0"
         inkscape:connector-curvature="0" />
      <path
         id="path3669"
         d="M 31.028876,131.78587 H 30.8669 c -0.0108,0.10798 -0.06479,0.38874 -0.129581,0.43193 -0.0324,0.0324 -0.399542,0.0324 -0.475131,0.0324 h -0.885471 c 0.507526,-0.44274 0.680301,-0.58311 0.96106,-0.80988 0.356348,-0.28076 0.691099,-0.58312 0.691099,-1.03665 0,-0.58311 -0.507526,-0.93946 -1.123036,-0.93946 -0.593913,0 -1.004253,0.42114 -1.004253,0.86387 0,0.23757 0.20517,0.26996 0.259162,0.26996 0.107984,0 0.248364,-0.0864 0.248364,-0.25916 0,-0.0864 -0.0324,-0.25916 -0.280759,-0.25916 0.151178,-0.33475 0.47513,-0.44274 0.701897,-0.44274 0.485929,0 0.734293,0.37795 0.734293,0.76669 0,0.42114 -0.302356,0.74509 -0.453534,0.91787 l -1.155431,1.15543 c -0.05399,0.0432 -0.05399,0.054 -0.05399,0.18357 h 1.986909 z m 0,0"
         style="fill:#000000;fill-opacity:1;stroke:none;stroke-width:0"
         inkscape:connector-curvature="0" />
      <path
         id="path3673"
         d="m 32.359328,132.58495 c 0,0.25916 -0.04319,0.57232 -0.377945,0.87467 -0.0108,0.0216 -0.0324,0.0432 -0.0324,0.0648 0,0.0324 0.04319,0.0648 0.06479,0.0648 0.07559,0 0.485929,-0.38874 0.485929,-0.96106 0,-0.29155 -0.118783,-0.51832 -0.345549,-0.51832 -0.151178,0 -0.269961,0.11878 -0.269961,0.26996 0,0.15118 0.107984,0.28076 0.280759,0.28076 0.118783,0 0.194372,-0.0756 0.194372,-0.0756 z m 0,0"
         style="fill:#000000;fill-opacity:1;stroke:none;stroke-width:0"
         inkscape:connector-curvature="0" />
      <path
         id="path3677"
         d="m 34.588381,129.59379 c 0,-0.12958 0,-0.12958 -0.14038,-0.12958 -0.313154,0.30235 -0.745091,0.30235 -0.939462,0.30235 v 0.17278 c 0.107984,0 0.431937,0 0.691099,-0.12958 v 2.45124 c 0,0.16197 0,0.22677 -0.475131,0.22677 h -0.183573 v 0.17277 c 0.08639,0 0.680301,-0.0216 0.853075,-0.0216 0.151178,0 0.75589,0.0216 0.863874,0.0216 v -0.17277 H 35.07431 c -0.485929,0 -0.485929,-0.0648 -0.485929,-0.22677 z m 0,0"
         style="fill:#000000;fill-opacity:1;stroke:none;stroke-width:0"
         inkscape:connector-curvature="0" />
    </g>
    <g
       id="g3830"
       transform="matrix(0.50544721,0,0,0.50544721,29.93666,68.802777)">
      <path
         id="path3681"
         d="m 38.637962,129.02561 c -0.129581,-0.25916 -0.323952,-0.44273 -0.637106,-0.44273 -0.799084,0 -1.652159,1.01505 -1.652159,2.0193 0,0.64791 0.377945,1.10144 0.907067,1.10144 0.14038,0 0.485929,-0.0324 0.896269,-0.51833 0.05399,0.29156 0.302356,0.51833 0.626309,0.51833 0.248364,0 0.399541,-0.16198 0.518324,-0.37795 0.107984,-0.24836 0.20517,-0.6695 0.20517,-0.6803 0,-0.0756 -0.06479,-0.0756 -0.08639,-0.0756 -0.06479,0 -0.07559,0.0324 -0.09719,0.12959 -0.118783,0.44273 -0.237565,0.85307 -0.518324,0.85307 -0.194372,0 -0.20517,-0.18357 -0.20517,-0.31315 0,-0.15118 0.0108,-0.21597 0.08639,-0.51833 0.07559,-0.28076 0.08639,-0.35635 0.151178,-0.61551 l 0.248364,-0.96106 c 0.04319,-0.19437 0.04319,-0.20517 0.04319,-0.23756 0,-0.11878 -0.07559,-0.18358 -0.194371,-0.18358 -0.172775,0 -0.269961,0.15118 -0.291558,0.30236 z m -0.442735,1.78174 c -0.04319,0.12958 -0.04319,0.14038 -0.140379,0.25916 -0.302356,0.37795 -0.583115,0.48593 -0.777487,0.48593 -0.345549,0 -0.442735,-0.37794 -0.442735,-0.6479 0,-0.34555 0.215968,-1.18783 0.377945,-1.51178 0.215968,-0.39954 0.518324,-0.65871 0.799083,-0.65871 0.442735,0 0.539921,0.56152 0.539921,0.60471 0,0.0432 -0.0108,0.0864 -0.0216,0.11879 z m 0,0"
         style="fill:#000000;fill-opacity:1;stroke:none;stroke-width:0"
         inkscape:connector-curvature="0" />
      <path
         id="path3685"
         d="m 42.13691,131.78587 h -0.161976 c -0.0108,0.10798 -0.06479,0.38874 -0.129581,0.43193 -0.0324,0.0324 -0.399542,0.0324 -0.475131,0.0324 h -0.885471 c 0.507526,-0.44274 0.680301,-0.58311 0.96106,-0.80988 0.356348,-0.28076 0.691099,-0.58312 0.691099,-1.03665 0,-0.58311 -0.507526,-0.93946 -1.123036,-0.93946 -0.593913,0 -1.004253,0.42114 -1.004253,0.86387 0,0.23757 0.20517,0.26996 0.259162,0.26996 0.107984,0 0.248364,-0.0864 0.248364,-0.25916 0,-0.0864 -0.0324,-0.25916 -0.280759,-0.25916 0.151178,-0.33475 0.47513,-0.44274 0.701897,-0.44274 0.485929,0 0.734293,0.37795 0.734293,0.76669 0,0.42114 -0.302356,0.74509 -0.453534,0.91787 l -1.155431,1.15543 c -0.05399,0.0432 -0.05399,0.054 -0.05399,0.18357 h 1.986909 z m 0,0"
         style="fill:#000000;fill-opacity:1;stroke:none;stroke-width:0"
         inkscape:connector-curvature="0" />
      <path
         id="path3689"
         d="m 43.467362,132.58495 c 0,0.25916 -0.04319,0.57232 -0.377945,0.87467 -0.0108,0.0216 -0.03239,0.0432 -0.03239,0.0648 0,0.0324 0.04319,0.0648 0.06479,0.0648 0.07559,0 0.485929,-0.38874 0.485929,-0.96106 0,-0.29155 -0.118783,-0.51832 -0.345549,-0.51832 -0.151178,0 -0.269961,0.11878 -0.269961,0.26996 0,0.15118 0.107984,0.28076 0.280759,0.28076 0.118783,0 0.194372,-0.0756 0.194372,-0.0756 z m 0,0"
         style="fill:#000000;fill-opacity:1;stroke:none;stroke-width:0"
         inkscape:connector-curvature="0" />
      <path
         id="path3693"
         d="M 46.517096,131.78587 H 46.35512 c -0.0108,0.10798 -0.06479,0.38874 -0.129581,0.43193 -0.0324,0.0324 -0.399542,0.0324 -0.475131,0.0324 h -0.885471 c 0.507526,-0.44274 0.680301,-0.58311 0.96106,-0.80988 0.356348,-0.28076 0.691099,-0.58312 0.691099,-1.03665 0,-0.58311 -0.507526,-0.93946 -1.123036,-0.93946 -0.593913,0 -1.004253,0.42114 -1.004253,0.86387 0,0.23757 0.20517,0.26996 0.259162,0.26996 0.107984,0 0.248364,-0.0864 0.248364,-0.25916 0,-0.0864 -0.0324,-0.25916 -0.280759,-0.25916 0.151178,-0.33475 0.47513,-0.44274 0.701897,-0.44274 0.485929,0 0.734293,0.37795 0.734293,0.76669 0,0.42114 -0.302356,0.74509 -0.453534,0.91787 l -1.155431,1.15543 c -0.05399,0.0432 -0.05399,0.054 -0.05399,0.18357 h 1.986909 z m 0,0"
         style="fill:#000000;fill-opacity:1;stroke:none;stroke-width:0"
         inkscape:connector-curvature="0" />
    </g>
    <g
       transform="matrix(0.53808255,0,0,0.53808255,77.754964,65.618498)"
       id="g4053">
      <path
         inkscape:connector-curvature="0"
         style="fill:#000000;fill-opacity:1;stroke:none;stroke-width:0"
         d="m 30.132135,31.869598 c 0,0 0,-0.07559 -0.08639,-0.07559 -0.151178,0 -0.658704,0.05399 -0.842277,0.07559 -0.05399,0 -0.129581,0.0108 -0.129581,0.129581 0,0.08639 0.06479,0.08639 0.172775,0.08639 0.323952,0 0.334751,0.04319 0.334751,0.118782 0,0.04319 -0.05399,0.280759 -0.08639,0.421139 l -0.572316,2.246071 c -0.07559,0.34555 -0.107984,0.464332 -0.107984,0.701898 0,0.647905 0.367146,1.079842 0.874672,1.079842 0.809881,0 1.662957,-1.02585 1.662957,-2.019305 0,-0.626308 -0.367147,-1.101439 -0.917866,-1.101439 -0.313154,0 -0.604712,0.20517 -0.809882,0.41034 z m -0.637107,2.60242 c 0.03239,-0.151178 0.03239,-0.161977 0.09719,-0.237566 0.334751,-0.442735 0.647905,-0.550719 0.831479,-0.550719 0.248363,0 0.431936,0.20517 0.431936,0.647905 0,0.41034 -0.226766,1.198625 -0.356348,1.457787 -0.226766,0.464332 -0.539921,0.712696 -0.809881,0.712696 -0.237565,0 -0.464332,-0.183573 -0.464332,-0.691099 0,-0.140379 0,-0.26996 0.107984,-0.701897 z m 0,0"
         id="path3918" />
      <path
         inkscape:connector-curvature="0"
         style="fill:#000000;fill-opacity:1;stroke:none;stroke-width:0"
         d="m 33.05488,34.54346 c 0,-0.129581 0,-0.129581 -0.14038,-0.129581 -0.313154,0.302356 -0.745091,0.302356 -0.939462,0.302356 v 0.172775 c 0.107984,0 0.431937,0 0.691099,-0.129581 v 2.451241 c 0,0.161977 0,0.226767 -0.475131,0.226767 h -0.183573 v 0.172775 c 0.08639,0 0.680301,-0.0216 0.853075,-0.0216 0.151178,0 0.75589,0.0216 0.863874,0.0216 v -0.172775 h -0.183573 c -0.485929,0 -0.485929,-0.06479 -0.485929,-0.226767 z m 0,0"
         id="path3922" />
    </g>
    <g
       transform="matrix(0.55188102,0,0,0.55188102,43.320642,101.62975)"
       id="g4049">
      <path
         inkscape:connector-curvature="0"
         style="fill:#000000;fill-opacity:1;stroke:none;stroke-width:0"
         d="m 36.175796,31.869598 c 0,0 0,-0.07559 -0.08639,-0.07559 -0.151178,0 -0.658704,0.05399 -0.842277,0.07559 -0.05399,0 -0.129581,0.0108 -0.129581,0.129581 0,0.08639 0.06479,0.08639 0.172775,0.08639 0.323952,0 0.334751,0.04319 0.334751,0.118782 0,0.04319 -0.05399,0.280759 -0.08639,0.421139 l -0.572316,2.246071 c -0.07559,0.34555 -0.107984,0.464332 -0.107984,0.701898 0,0.647905 0.367146,1.079842 0.874672,1.079842 0.809881,0 1.662957,-1.02585 1.662957,-2.019305 0,-0.626308 -0.367147,-1.101439 -0.917866,-1.101439 -0.313154,0 -0.604712,0.20517 -0.809882,0.41034 z m -0.637107,2.60242 c 0.0324,-0.151178 0.0324,-0.161977 0.09719,-0.237566 0.334751,-0.442735 0.647905,-0.550719 0.831479,-0.550719 0.248363,0 0.431936,0.20517 0.431936,0.647905 0,0.41034 -0.226766,1.198625 -0.356348,1.457787 -0.226766,0.464332 -0.539921,0.712696 -0.809881,0.712696 -0.237565,0 -0.464332,-0.183573 -0.464332,-0.691099 0,-0.140379 0,-0.26996 0.107984,-0.701897 z m 0,0"
         id="path3926" />
      <path
         inkscape:connector-curvature="0"
         style="fill:#000000;fill-opacity:1;stroke:none;stroke-width:0"
         d="m 39.919221,36.73554 h -0.161976 c -0.0108,0.107984 -0.06479,0.388743 -0.129581,0.431937 -0.0324,0.0324 -0.399542,0.0324 -0.475131,0.0324 h -0.885471 c 0.507526,-0.442735 0.680301,-0.583115 0.96106,-0.809882 0.356348,-0.280759 0.691099,-0.583114 0.691099,-1.036648 0,-0.583115 -0.507526,-0.939463 -1.123036,-0.939463 -0.593913,0 -1.004253,0.421139 -1.004253,0.863874 0,0.237565 0.20517,0.26996 0.259162,0.26996 0.107984,0 0.248364,-0.08639 0.248364,-0.259162 0,-0.08639 -0.0324,-0.259162 -0.280759,-0.259162 0.151178,-0.334751 0.47513,-0.442735 0.701897,-0.442735 0.485929,0 0.734293,0.377945 0.734293,0.766688 0,0.421138 -0.302356,0.745091 -0.453534,0.917866 l -1.155431,1.155431 c -0.05399,0.04319 -0.05399,0.05399 -0.05399,0.183573 h 1.986909 z m 0,0"
         id="path3930" />
    </g>
    <g
       id="g4739"
       transform="matrix(0.54118584,0,0,0.54118584,29.238846,135.76255)">
      <g
         transform="matrix(0.691099,0,0,0.691099,-66.156908,-51.666911)"
         style="fill:#000000;fill-opacity:1"
         id="g4590">
        <path
           inkscape:connector-curvature="0"
           style="stroke:none;stroke-width:0"
           d="m 1.859375,-2.296875 c 0.296875,0 1.03125,-0.03125 1.53125,-0.234375 0.703125,-0.296875 0.75,-0.890625 0.75,-1.03125 0,-0.4375 -0.375,-0.84375 -1.0625,-0.84375 -1.109375,0 -2.625,0.96875 -2.625,2.71875 0,1.015625 0.59375,1.796875 1.578125,1.796875 1.421875,0 2.25,-1.0625 2.25,-1.171875 0,-0.0625 -0.046875,-0.140625 -0.109375,-0.140625 -0.0625,0 -0.078125,0.03125 -0.140625,0.109375 -0.78125,0.984375 -1.875,0.984375 -1.984375,0.984375 -0.78125,0 -0.875,-0.84375 -0.875,-1.15625 0,-0.125 0.015625,-0.421875 0.15625,-1.03125 z m -0.46875,-0.21875 C 1.78125,-4.03125 2.8125,-4.1875 3.078125,-4.1875 c 0.453125,0 0.734375,0.296875 0.734375,0.625 0,1.046875 -1.59375,1.046875 -2.015625,1.046875 z m 0,0"
           transform="translate(148.712,134.765)"
           id="path4588" />
      </g>
      <g
         transform="matrix(0.691099,0,0,0.691099,-66.156908,-51.666911)"
         style="fill:#000000;fill-opacity:1"
         id="g4594">
        <path
           inkscape:connector-curvature="0"
           style="stroke:none;stroke-width:0"
           d="m 2.328125,-4.4375 c 0,-0.1875 0,-0.1875 -0.203125,-0.1875 -0.453125,0.4375 -1.078125,0.4375 -1.359375,0.4375 v 0.25 c 0.15625,0 0.625,0 1,-0.1875 v 3.546875 c 0,0.234375 0,0.328125 -0.6875,0.328125 H 0.8125 V 0 c 0.125,0 0.984375,-0.03125 1.234375,-0.03125 0.21875,0 1.09375,0.03125 1.25,0.03125 V -0.25 H 3.03125 c -0.703125,0 -0.703125,-0.09375 -0.703125,-0.328125 z m 0,0"
           transform="translate(153.351,136.259)"
           id="path4592" />
      </g>
    </g>
    <g
       id="g4733"
       transform="matrix(0.54118584,0,0,0.54118584,12.935405,125.73994)">
      <g
         transform="matrix(0.691099,0,0,0.691099,-66.156908,-51.666911)"
         style="fill:#000000;fill-opacity:1"
         id="g4598">
        <path
           inkscape:connector-curvature="0"
           style="stroke:none;stroke-width:0"
           d="m 1.859375,-2.296875 c 0.296875,0 1.03125,-0.03125 1.53125,-0.234375 0.703125,-0.296875 0.75,-0.890625 0.75,-1.03125 0,-0.4375 -0.375,-0.84375 -1.0625,-0.84375 -1.109375,0 -2.625,0.96875 -2.625,2.71875 0,1.015625 0.59375,1.796875 1.578125,1.796875 1.421875,0 2.25,-1.0625 2.25,-1.171875 0,-0.0625 -0.046875,-0.140625 -0.109375,-0.140625 -0.0625,0 -0.078125,0.03125 -0.140625,0.109375 -0.78125,0.984375 -1.875,0.984375 -1.984375,0.984375 -0.78125,0 -0.875,-0.84375 -0.875,-1.15625 0,-0.125 0.015625,-0.421875 0.15625,-1.03125 z m -0.46875,-0.21875 C 1.78125,-4.03125 2.8125,-4.1875 3.078125,-4.1875 c 0.453125,0 0.734375,0.296875 0.734375,0.625 0,1.046875 -1.59375,1.046875 -2.015625,1.046875 z m 0,0"
           transform="translate(157.821,134.765)"
           id="path4596" />
      </g>
      <g
         transform="matrix(0.691099,0,0,0.691099,-66.156908,-51.666911)"
         style="fill:#000000;fill-opacity:1"
         id="g4602">
        <path
           inkscape:connector-curvature="0"
           style="stroke:none;stroke-width:0"
           d="M 3.515625,-1.265625 H 3.28125 c -0.015625,0.15625 -0.09375,0.5625 -0.1875,0.625 C 3.046875,-0.59375 2.515625,-0.59375 2.40625,-0.59375 H 1.125 c 0.734375,-0.640625 0.984375,-0.84375 1.390625,-1.171875 0.515625,-0.40625 1,-0.84375 1,-1.5 0,-0.84375 -0.734375,-1.359375 -1.625,-1.359375 -0.859375,0 -1.453125,0.609375 -1.453125,1.25 0,0.34375 0.296875,0.390625 0.375,0.390625 0.15625,0 0.359375,-0.125 0.359375,-0.375 0,-0.125 -0.046875,-0.375 -0.40625,-0.375 C 0.984375,-4.21875 1.453125,-4.375 1.78125,-4.375 c 0.703125,0 1.0625,0.546875 1.0625,1.109375 0,0.609375 -0.4375,1.078125 -0.65625,1.328125 L 0.515625,-0.265625 C 0.4375,-0.203125 0.4375,-0.1875 0.4375,0 h 2.875 z m 0,0"
           transform="translate(162.459,136.259)"
           id="path4600" />
      </g>
    </g>
    <path
       style="fill:none;stroke:#000000;stroke-width:0.15000001;stroke-linecap:butt;stroke-linejoin:miter;stroke-miterlimit:4;stroke-dasharray:0.9, 0.9;stroke-dashoffset:0;stroke-opacity:1;marker-end:url(#marker4368)"
       d="M 66.809932,155.8525 H 114.61561"
       id="path2973"
       inkscape:connector-curvature="0" />
    <path
       style="fill:none;stroke:#000000;stroke-width:0.15000001;stroke-linecap:butt;stroke-linejoin:miter;stroke-miterlimit:4;stroke-dasharray:0.9, 0.9;stroke-dashoffset:0;stroke-opacity:1;marker-end:url(#marker3320)"
       d="M 114.61561,155.8525 V 120.17506"
       id="path3310"
       inkscape:connector-curvature="0" />
    <path
       style="fill:none;stroke:#000000;stroke-width:0.15000001;stroke-linecap:butt;stroke-linejoin:miter;stroke-miterlimit:4;stroke-dasharray:0.9, 0.9;stroke-dashoffset:0;stroke-opacity:1;marker-start:url(#Arrow2Lstart)"
       d="M 122.94398,87.327056 H 66.81738"
       id="path921"
       inkscape:connector-curvature="0" />
    <path
       style="fill:none;stroke:#000000;stroke-width:0.15000001;stroke-linecap:butt;stroke-linejoin:miter;stroke-miterlimit:4;stroke-dasharray:0.9, 0.9;stroke-dashoffset:0;stroke-opacity:1;marker-end:url(#marker1548)"
       d="M 66.81738,155.88169 V 87.327056"
       id="path1368"
       inkscape:connector-curvature="0" />
    <path
       style="fill:none;stroke:#000000;stroke-width:0.15000001;stroke-linecap:butt;stroke-linejoin:miter;stroke-miterlimit:4;stroke-dasharray:0.9, 0.9;stroke-dashoffset:0;stroke-opacity:1;marker-end:url(#marker1196)"
       d="M 66.81738,155.88168 H 55.324791"
       id="path931"
       inkscape:connector-curvature="0" />
    <path
       style="fill:none;stroke:#000000;stroke-width:0.15000001;stroke-linecap:butt;stroke-linejoin:miter;stroke-miterlimit:4;stroke-dasharray:0.9, 0.9;stroke-dashoffset:0;stroke-opacity:1;marker-end:url(#marker1374)"
       d="M 55.324791,155.88168 V 110.84677"
       id="path1364"
       inkscape:connector-curvature="0" />
  </g>
</svg>
