<?xml version="1.0" encoding="UTF-8" standalone="no"?>
<!-- Created with Inkscape (http://www.inkscape.org/) -->

<svg
   xmlns:ns1="http://www.iki.fi/pav/software/textext/"
   xmlns:dc="http://purl.org/dc/elements/1.1/"
   xmlns:cc="http://creativecommons.org/ns#"
   xmlns:rdf="http://www.w3.org/1999/02/22-rdf-syntax-ns#"
   xmlns:svg="http://www.w3.org/2000/svg"
   xmlns="http://www.w3.org/2000/svg"
   xmlns:sodipodi="http://sodipodi.sourceforge.net/DTD/sodipodi-0.dtd"
   xmlns:inkscape="http://www.inkscape.org/namespaces/inkscape"
   width="105.83333mm"
   height="62.823673mm"
   viewBox="0 0 105.83333 62.823674"
   version="1.1"
   id="svg8"
   inkscape:version="0.92.3 (2405546, 2018-03-11)"
   sodipodi:docname="rigid_body_3d.svg">
  <sodipodi:namedview
     id="base"
     pagecolor="#ffffff"
     bordercolor="#666666"
     borderopacity="1.0"
     inkscape:pageopacity="0.0"
     inkscape:pageshadow="2"
     inkscape:zoom="0.98994949"
     inkscape:cx="-196.15672"
     inkscape:cy="73.553545"
     inkscape:document-units="mm"
     inkscape:current-layer="layer1"
     showgrid="false"
     inkscape:window-width="1837"
     inkscape:window-height="1025"
     inkscape:window-x="83"
     inkscape:window-y="27"
     inkscape:window-maximized="1"
     inkscape:snap-global="true"
     fit-margin-top="0"
     fit-margin-left="0"
     fit-margin-right="0"
     fit-margin-bottom="0" />
  <defs
     id="defs2">
    <marker
       inkscape:stockid="Arrow2Lend"
       orient="auto"
       refY="0"
       refX="0"
       id="marker1235"
       style="overflow:visible"
       inkscape:isstock="true">
      <path
         id="path1233"
         style="fill:#000000;fill-opacity:1;fill-rule:evenodd;stroke:#000000;stroke-width:0.625;stroke-linejoin:round;stroke-opacity:1"
         d="M 8.7185878,4.0337352 -2.2072895,0.01601326 8.7185884,-4.0017078 c -1.7454984,2.3720609 -1.7354408,5.6174519 -6e-7,8.035443 z"
         transform="matrix(-1.1,0,0,-1.1,-1.1,0)"
         inkscape:connector-curvature="0" />
    </marker>
    <marker
       inkscape:stockid="Arrow2Lend"
       orient="auto"
       refY="0"
       refX="0"
       id="marker1225"
       style="overflow:visible"
       inkscape:isstock="true">
      <path
         id="path1223"
         style="fill:#000000;fill-opacity:1;fill-rule:evenodd;stroke:#000000;stroke-width:0.625;stroke-linejoin:round;stroke-opacity:1"
         d="M 8.7185878,4.0337352 -2.2072895,0.01601326 8.7185884,-4.0017078 c -1.7454984,2.3720609 -1.7354408,5.6174519 -6e-7,8.035443 z"
         transform="matrix(-1.1,0,0,-1.1,-1.1,0)"
         inkscape:connector-curvature="0" />
    </marker>
    <marker
       inkscape:stockid="Arrow1Lend"
       orient="auto"
       refY="0"
       refX="0"
       id="marker1153"
       style="overflow:visible"
       inkscape:isstock="true">
      <path
         id="path1151"
         d="M 0,0 5,-5 -12.5,0 5,5 Z"
         style="fill:#000000;fill-opacity:1;fill-rule:evenodd;stroke:#000000;stroke-width:1.00000003pt;stroke-opacity:1"
         transform="matrix(-0.8,0,0,-0.8,-10,0)"
         inkscape:connector-curvature="0" />
    </marker>
    <marker
       inkscape:stockid="Arrow1Lend"
       orient="auto"
       refY="0"
       refX="0"
       id="marker1131"
       style="overflow:visible"
       inkscape:isstock="true">
      <path
         id="path1129"
         d="M 0,0 5,-5 -12.5,0 5,5 Z"
         style="fill:#000000;fill-opacity:1;fill-rule:evenodd;stroke:#000000;stroke-width:1.00000003pt;stroke-opacity:1"
         transform="matrix(-0.8,0,0,-0.8,-10,0)"
         inkscape:connector-curvature="0" />
    </marker>
    <marker
       inkscape:stockid="Arrow1Mstart"
       orient="auto"
       refY="0"
       refX="0"
       id="marker3360-3"
       style="overflow:visible"
       inkscape:isstock="true">
      <path
         id="path3358-6"
         d="M 0,0 5,-5 -12.5,0 5,5 Z"
         style="fill:#808080;fill-opacity:1;fill-rule:evenodd;stroke:#808080;stroke-width:1.00000003pt;stroke-opacity:1"
         transform="matrix(0.4,0,0,0.4,4,0)"
         inkscape:connector-curvature="0" />
    </marker>
    <marker
       inkscape:stockid="Arrow1Mstart"
       orient="auto"
       refY="0"
       refX="0"
       id="marker3360"
       style="overflow:visible"
       inkscape:isstock="true">
      <path
         id="path3358"
         d="M 0,0 5,-5 -12.5,0 5,5 Z"
         style="fill:#808080;fill-opacity:1;fill-rule:evenodd;stroke:#808080;stroke-width:1.00000003pt;stroke-opacity:1"
         transform="matrix(0.4,0,0,0.4,4,0)"
         inkscape:connector-curvature="0" />
    </marker>
    <marker
       inkscape:collect="always"
       inkscape:isstock="true"
       style="overflow:visible"
       id="Arrow1Mstart"
       refX="0"
       refY="0"
       orient="auto"
       inkscape:stockid="Arrow1Mstart">
      <path
         transform="matrix(0.4,0,0,0.4,4,0)"
         style="fill:#808080;fill-opacity:1;fill-rule:evenodd;stroke:#808080;stroke-width:1.00000003pt;stroke-opacity:1"
         d="M 0,0 5,-5 -12.5,0 5,5 Z"
         id="path825"
         inkscape:connector-curvature="0" />
    </marker>
    <marker
       inkscape:stockid="Arrow1Mstart"
       orient="auto"
       refY="0"
       refX="0"
       id="marker3360-3-7"
       style="overflow:visible"
       inkscape:isstock="true">
      <path
         id="path3358-6-5"
         d="M 0,0 5,-5 -12.5,0 5,5 Z"
         style="fill:#000000;fill-opacity:1;fill-rule:evenodd;stroke:#000000;stroke-width:1.00000003pt;stroke-opacity:1"
         transform="matrix(0.4,0,0,0.4,4,0)"
         inkscape:connector-curvature="0" />
    </marker>
    <marker
       inkscape:stockid="Arrow1Mstart"
       orient="auto"
       refY="0"
       refX="0"
       id="marker3360-35"
       style="overflow:visible"
       inkscape:isstock="true">
      <path
         id="path3358-62"
         d="M 0,0 5,-5 -12.5,0 5,5 Z"
         style="fill:#000000;fill-opacity:1;fill-rule:evenodd;stroke:#000000;stroke-width:1.00000003pt;stroke-opacity:1"
         transform="matrix(0.4,0,0,0.4,4,0)"
         inkscape:connector-curvature="0" />
    </marker>
    <marker
       inkscape:collect="always"
       inkscape:isstock="true"
       style="overflow:visible"
       id="Arrow1Mstart-9"
       refX="0"
       refY="0"
       orient="auto"
       inkscape:stockid="Arrow1Mstart">
      <path
         transform="matrix(0.4,0,0,0.4,4,0)"
         style="fill:#000000;fill-opacity:1;fill-rule:evenodd;stroke:#000000;stroke-width:1.00000003pt;stroke-opacity:1"
         d="M 0,0 5,-5 -12.5,0 5,5 Z"
         id="path825-1"
         inkscape:connector-curvature="0" />
    </marker>
  </defs>
  <metadata
     id="metadata5">
    <rdf:RDF>
      <cc:Work
         rdf:about="">
        <dc:format>image/svg+xml</dc:format>
        <dc:type
           rdf:resource="http://purl.org/dc/dcmitype/StillImage" />
        <dc:title></dc:title>
      </cc:Work>
    </rdf:RDF>
  </metadata>
  <g
     id="layer1"
     inkscape:groupmode="layer"
     inkscape:label="Layer 1"
     transform="translate(-36.926244,-153.23485)">
    <g
       id="g11629"
       transform="matrix(1.4565164,0,0,1.4565164,-41.014764,-84.294244)">
      <g
         id="g2332">
        <path
           inkscape:connector-curvature="0"
           id="path3237"
           d="m 60.963387,191.70363 v 8.41898"
           style="fill:#808080;stroke:#808080;stroke-width:0.26458332px;stroke-linecap:butt;stroke-linejoin:miter;stroke-opacity:1;marker-start:url(#Arrow1Mstart)" />
        <path
           inkscape:connector-curvature="0"
           id="path3237-3"
           d="M 69.382368,200.12261 H 60.963387"
           style="fill:#808080;stroke:#808080;stroke-width:0.26458332px;stroke-linecap:butt;stroke-linejoin:miter;stroke-opacity:1;marker-start:url(#marker3360)" />
        <path
           inkscape:connector-curvature="0"
           id="path3237-3-7"
           d="m 54.800136,205.8579 6.163251,-5.73529"
           style="fill:#808080;stroke:#808080;stroke-width:0.26458332px;stroke-linecap:butt;stroke-linejoin:miter;stroke-opacity:1;marker-start:url(#marker3360-3)" />
        <g
           id="g2728"
           ns1:jacobian_sqrt="0.366029"
           ns1:alignment="middle center"
           ns1:scale="1.03756330156"
           ns1:preamble="/home/nrotella/.config/inkscape/extensions/textext/default_packages.tex"
           ns1:text="$x$"
           ns1:pdfconverter="pdf2svg"
           ns1:texconverter="pdflatex"
           ns1:version="0.11.0"
           transform="matrix(0.366029,0,0,0.366029,-1.029636,154.57792)"
           style="fill:#808080;stroke:#646464;stroke-opacity:1">
          <g
             id="surface1"
             style="fill:#808080;stroke:#646464;stroke-opacity:1">
            <g
               id="g2725"
               style="fill:#808080;fill-opacity:1;stroke:#646464;stroke-opacity:1">
              <path
                 id="path2723"
                 transform="translate(148.712,134.765)"
                 d="M 3.328125,-3.015625 C 3.390625,-3.265625 3.625,-4.1875 4.3125,-4.1875 c 0.046875,0 0.296875,0 0.5,0.125 C 4.53125,-4 4.34375,-3.765625 4.34375,-3.515625 c 0,0.15625 0.109375,0.34375 0.375,0.34375 0.21875,0 0.53125,-0.171875 0.53125,-0.578125 0,-0.515625 -0.578125,-0.65625 -0.921875,-0.65625 -0.578125,0 -0.921875,0.53125 -1.046875,0.75 -0.25,-0.65625 -0.78125,-0.75 -1.078125,-0.75 -1.03125,0 -1.609375,1.28125 -1.609375,1.53125 0,0.109375 0.109375,0.109375 0.125,0.109375 0.078125,0 0.109375,-0.03125 0.125,-0.109375 0.34375,-1.0625 1,-1.3125 1.34375,-1.3125 0.1875,0 0.53125,0.09375 0.53125,0.671875 0,0.3125 -0.171875,0.96875 -0.53125,2.375 -0.15625,0.609375 -0.515625,1.03125 -0.953125,1.03125 -0.0625,0 -0.28125,0 -0.5,-0.125 0.25,-0.0625 0.46875,-0.265625 0.46875,-0.546875 0,-0.265625 -0.21875,-0.34375 -0.359375,-0.34375 -0.3125,0 -0.546875,0.25 -0.546875,0.578125 0,0.453125 0.484375,0.65625 0.921875,0.65625 0.671875,0 1.03125,-0.703125 1.046875,-0.75 0.125,0.359375 0.484375,0.75 1.078125,0.75 1.03125,0 1.59375,-1.28125 1.59375,-1.53125 0,-0.109375 -0.078125,-0.109375 -0.109375,-0.109375 -0.09375,0 -0.109375,0.046875 -0.140625,0.109375 -0.328125,1.078125 -1,1.3125 -1.3125,1.3125 -0.390625,0 -0.546875,-0.3125 -0.546875,-0.65625 0,-0.21875 0.046875,-0.4375 0.15625,-0.875 z m 0,0"
                 style="fill:#808080;stroke:#646464;stroke-width:0;stroke-opacity:1"
                 inkscape:connector-curvature="0" />
            </g>
          </g>
        </g>
        <g
           transform="matrix(0.38659913,0,0,0.38659913,11.542532,151.16199)"
           ns1:version="0.11.0"
           ns1:texconverter="pdflatex"
           ns1:pdfconverter="pdf2svg"
           ns1:text="$y$"
           ns1:preamble="/home/nrotella/.config/inkscape/extensions/textext/default_packages.tex"
           ns1:scale="1.03756330156"
           ns1:alignment="middle center"
           ns1:jacobian_sqrt="0.366029"
           id="g2806"
           style="fill:#808080;stroke:#646464;stroke-opacity:1">
          <g
             id="g2804"
             style="fill:#808080;stroke:#646464;stroke-opacity:1">
            <g
               style="fill:#808080;fill-opacity:1;stroke:#646464;stroke-opacity:1"
               id="g2802">
              <path
                 inkscape:connector-curvature="0"
                 style="fill:#808080;stroke:#646464;stroke-width:0;stroke-opacity:1"
                 d="m 4.84375,-3.796875 c 0.046875,-0.140625 0.046875,-0.15625 0.046875,-0.234375 0,-0.171875 -0.140625,-0.265625 -0.296875,-0.265625 -0.09375,0 -0.25,0.0625 -0.34375,0.203125 -0.015625,0.0625 -0.109375,0.359375 -0.140625,0.546875 -0.078125,0.25 -0.140625,0.53125 -0.203125,0.796875 l -0.453125,1.796875 c -0.03125,0.140625 -0.46875,0.84375 -1.125,0.84375 -0.5,0 -0.609375,-0.4375 -0.609375,-0.8125 C 1.71875,-1.375 1.890625,-2 2.21875,-2.875 2.375,-3.28125 2.421875,-3.390625 2.421875,-3.59375 c 0,-0.4375 -0.3125,-0.8125 -0.8125,-0.8125 -0.953125,0 -1.3125,1.453125 -1.3125,1.53125 0,0.109375 0.09375,0.109375 0.109375,0.109375 0.109375,0 0.109375,-0.03125 0.15625,-0.1875 0.28125,-0.9375 0.671875,-1.234375 1.015625,-1.234375 0.078125,0 0.25,0 0.25,0.3125 0,0.25 -0.109375,0.515625 -0.171875,0.703125 -0.40625,1.0625 -0.578125,1.625 -0.578125,2.09375 0,0.890625 0.625,1.1875 1.21875,1.1875 0.390625,0 0.71875,-0.171875 1,-0.453125 -0.125,0.515625 -0.25,1.015625 -0.640625,1.546875 -0.265625,0.328125 -0.640625,0.625 -1.09375,0.625 -0.140625,0 -0.59375,-0.03125 -0.765625,-0.421875 0.15625,0 0.296875,0 0.421875,-0.125 C 1.328125,1.203125 1.421875,1.0625 1.421875,0.875 1.421875,0.5625 1.15625,0.53125 1.0625,0.53125 0.828125,0.53125 0.5,0.6875 0.5,1.171875 c 0,0.5 0.4375,0.875 1.0625,0.875 1.015625,0 2.046875,-0.90625 2.328125,-2.03125 z m 0,0"
                 transform="translate(148.712,134.765)"
                 id="path2800" />
            </g>
          </g>
        </g>
        <g
           id="g2887"
           ns1:jacobian_sqrt="0.366029"
           ns1:alignment="middle center"
           ns1:scale="1.03756330156"
           ns1:preamble="/home/nrotella/.config/inkscape/extensions/textext/default_packages.tex"
           ns1:text="$z$"
           ns1:pdfconverter="pdf2svg"
           ns1:texconverter="pdflatex"
           ns1:version="0.11.0"
           transform="matrix(0.4915851,0,0,0.4915851,-15.672509,125.9245)"
           style="fill:#808080;stroke:#646464;stroke-opacity:1">
          <g
             id="g2885"
             style="fill:#808080;stroke:#646464;stroke-opacity:1">
            <g
               id="g2883"
               style="fill:#808080;fill-opacity:1;stroke:#646464;stroke-opacity:1">
              <path
                 id="path2881"
                 transform="translate(148.712,134.765)"
                 d="m 1.328125,-0.828125 c 0.53125,-0.578125 0.828125,-0.828125 1.1875,-1.140625 0,0 0.609375,-0.53125 0.96875,-0.890625 C 4.4375,-3.78125 4.65625,-4.265625 4.65625,-4.3125 c 0,-0.09375 -0.09375,-0.09375 -0.109375,-0.09375 -0.078125,0 -0.09375,0.015625 -0.15625,0.109375 -0.296875,0.484375 -0.5,0.640625 -0.734375,0.640625 -0.25,0 -0.359375,-0.15625 -0.515625,-0.328125 -0.1875,-0.21875 -0.359375,-0.421875 -0.6875,-0.421875 -0.75,0 -1.203125,0.921875 -1.203125,1.140625 0,0.046875 0.03125,0.109375 0.109375,0.109375 0.09375,0 0.109375,-0.046875 0.140625,-0.109375 0.1875,-0.46875 0.765625,-0.46875 0.84375,-0.46875 0.203125,0 0.390625,0.0625 0.625,0.140625 0.40625,0.15625 0.515625,0.15625 0.765625,0.15625 -0.359375,0.421875 -1.1875,1.140625 -1.375,1.296875 l -0.90625,0.84375 C 0.78125,-0.625 0.421875,-0.0625 0.421875,0.015625 c 0,0.09375 0.109375,0.09375 0.125,0.09375 0.078125,0 0.09375,-0.015625 0.15625,-0.125 0.234375,-0.359375 0.53125,-0.625 0.859375,-0.625 0.21875,0 0.328125,0.09375 0.578125,0.375 0.15625,0.21875 0.34375,0.375 0.625,0.375 1,0 1.578125,-1.265625 1.578125,-1.53125 0,-0.046875 -0.046875,-0.109375 -0.125,-0.109375 -0.09375,0 -0.109375,0.0625 -0.140625,0.140625 C 3.84375,-0.75 3.203125,-0.5625 2.875,-0.5625 c -0.1875,0 -0.375,-0.0625 -0.578125,-0.125 -0.34375,-0.125 -0.5,-0.171875 -0.703125,-0.171875 -0.015625,0 -0.171875,0 -0.265625,0.03125 z m 0,0"
                 style="fill:#808080;stroke:#646464;stroke-width:0;stroke-opacity:1"
                 inkscape:connector-curvature="0" />
            </g>
          </g>
        </g>
        <g
           transform="matrix(0.366029,0,0,0.366029,2.1852825,150.24491)"
           ns1:version="0.11.0"
           ns1:texconverter="pdflatex"
           ns1:pdfconverter="pdf2svg"
           ns1:text="$O$"
           ns1:preamble="/home/nrotella/.config/inkscape/extensions/textext/default_packages.tex"
           ns1:scale="1.03756330156"
           ns1:alignment="middle center"
           ns1:jacobian_sqrt="0.366029"
           id="g2966"
           style="fill:#808080;stroke:#646464;stroke-opacity:1">
          <g
             id="g2964"
             style="fill:#808080;stroke:#646464;stroke-opacity:1">
            <g
               style="fill:#808080;fill-opacity:1;stroke:#646464;stroke-opacity:1"
               id="g2962">
              <path
                 inkscape:connector-curvature="0"
                 style="fill:#808080;stroke:#646464;stroke-width:0;stroke-opacity:1"
                 d="m 7.375,-4.34375 c 0,-1.609375 -1.0625,-2.6875 -2.546875,-2.6875 -2.140625,0 -4.34375,2.265625 -4.34375,4.59375 0,1.65625 1.125,2.65625 2.5625,2.65625 2.109375,0 4.328125,-2.1875 4.328125,-4.5625 z m -4.28125,4.296875 c -0.984375,0 -1.671875,-0.796875 -1.671875,-2.109375 0,-0.453125 0.140625,-1.90625 0.90625,-3.0625 0.6875,-1.046875 1.65625,-1.5625 2.453125,-1.5625 0.8125,0 1.703125,0.5625 1.703125,2.046875 0,0.71875 -0.265625,2.265625 -1.25,3.5 C 4.75,-0.625 3.9375,-0.046875 3.09375,-0.046875 Z m 0,0"
                 transform="translate(148.712,134.765)"
                 id="path2960" />
            </g>
          </g>
        </g>
      </g>
      <g
         id="g3815"
         transform="translate(7.1815476,5.764137)">
        <g
           id="g3844"
           transform="rotate(45,102.36405,167.67454)">
          <path
             style="fill:none;stroke:#000000;stroke-width:0.26458332px;stroke-linecap:butt;stroke-linejoin:miter;stroke-opacity:1;marker-start:url(#Arrow1Mstart-9)"
             d="m 104.28185,160.90193 v 8.41898"
             id="path3237-2"
             inkscape:connector-curvature="0" />
          <path
             style="fill:none;stroke:#000000;stroke-width:0.26458332px;stroke-linecap:butt;stroke-linejoin:miter;stroke-opacity:1;marker-start:url(#marker3360-35)"
             d="m 112.70083,169.32091 h -8.41898"
             id="path3237-3-70"
             inkscape:connector-curvature="0" />
          <path
             style="fill:none;stroke:#000000;stroke-width:0.26458332px;stroke-linecap:butt;stroke-linejoin:miter;stroke-opacity:1;marker-start:url(#marker3360-3-7)"
             d="m 98.118597,175.0562 6.163253,-5.73529"
             id="path3237-3-7-9"
             inkscape:connector-curvature="0" />
        </g>
      </g>
      <g
         transform="matrix(0.366029,0,0,0.366029,52.213275,125.29435)"
         ns1:version="0.11.0"
         ns1:texconverter="pdflatex"
         ns1:pdfconverter="pdf2svg"
         ns1:text="$O\'$"
         ns1:preamble="/home/nrotella/.config/inkscape/extensions/textext/default_packages.tex"
         ns1:scale="1.03756330156"
         ns1:alignment="middle center"
         ns1:jacobian_sqrt="0.366029"
         id="g3232">
        <g
           id="g3230">
          <g
             style="fill:#000000;fill-opacity:1"
             id="g3224">
            <path
               inkscape:connector-curvature="0"
               style="stroke:none;stroke-width:0"
               d="m 7.375,-4.34375 c 0,-1.609375 -1.0625,-2.6875 -2.546875,-2.6875 -2.140625,0 -4.34375,2.265625 -4.34375,4.59375 0,1.65625 1.125,2.65625 2.5625,2.65625 2.109375,0 4.328125,-2.1875 4.328125,-4.5625 z m -4.28125,4.296875 c -0.984375,0 -1.671875,-0.796875 -1.671875,-2.109375 0,-0.453125 0.140625,-1.90625 0.90625,-3.0625 0.6875,-1.046875 1.65625,-1.5625 2.453125,-1.5625 0.8125,0 1.703125,0.5625 1.703125,2.046875 0,0.71875 -0.265625,2.265625 -1.25,3.5 C 4.75,-0.625 3.9375,-0.046875 3.09375,-0.046875 Z m 0,0"
               transform="translate(148.712,134.765)"
               id="path3222" />
          </g>
          <g
             style="fill:#000000;fill-opacity:1"
             id="g3228">
            <path
               inkscape:connector-curvature="0"
               style="stroke:none;stroke-width:0"
               d="m 2.015625,-3.296875 c 0.0625,-0.109375 0.0625,-0.171875 0.0625,-0.21875 0,-0.21875 -0.1875,-0.375 -0.40625,-0.375 -0.265625,0 -0.34375,0.21875 -0.375,0.328125 L 0.375,-0.546875 c -0.015625,0.015625 -0.046875,0.09375 -0.046875,0.109375 0,0.078125 0.21875,0.15625 0.28125,0.15625 0.046875,0 0.046875,-0.015625 0.09375,-0.125 z m 0,0"
               transform="translate(156.588,131.149)"
               id="path3226" />
          </g>
        </g>
      </g>
      <g
         id="g3369"
         ns1:jacobian_sqrt="0.366029"
         ns1:alignment="middle center"
         ns1:scale="1.03756330156"
         ns1:preamble="/home/nrotella/.config/inkscape/extensions/textext/default_packages.tex"
         ns1:text="$x\'$"
         ns1:pdfconverter="pdf2svg"
         ns1:texconverter="pdflatex"
         ns1:version="0.11.0"
         transform="matrix(0.366029,0,0,0.366029,45.935186,124.89601)">
        <g
           id="g3367">
          <g
             id="g3361"
             style="fill:#000000;fill-opacity:1">
            <path
               inkscape:connector-curvature="0"
               id="path3359"
               transform="translate(148.712,134.765)"
               d="M 3.328125,-3.015625 C 3.390625,-3.265625 3.625,-4.1875 4.3125,-4.1875 c 0.046875,0 0.296875,0 0.5,0.125 C 4.53125,-4 4.34375,-3.765625 4.34375,-3.515625 c 0,0.15625 0.109375,0.34375 0.375,0.34375 0.21875,0 0.53125,-0.171875 0.53125,-0.578125 0,-0.515625 -0.578125,-0.65625 -0.921875,-0.65625 -0.578125,0 -0.921875,0.53125 -1.046875,0.75 -0.25,-0.65625 -0.78125,-0.75 -1.078125,-0.75 -1.03125,0 -1.609375,1.28125 -1.609375,1.53125 0,0.109375 0.109375,0.109375 0.125,0.109375 0.078125,0 0.109375,-0.03125 0.125,-0.109375 0.34375,-1.0625 1,-1.3125 1.34375,-1.3125 0.1875,0 0.53125,0.09375 0.53125,0.671875 0,0.3125 -0.171875,0.96875 -0.53125,2.375 -0.15625,0.609375 -0.515625,1.03125 -0.953125,1.03125 -0.0625,0 -0.28125,0 -0.5,-0.125 0.25,-0.0625 0.46875,-0.265625 0.46875,-0.546875 0,-0.265625 -0.21875,-0.34375 -0.359375,-0.34375 -0.3125,0 -0.546875,0.25 -0.546875,0.578125 0,0.453125 0.484375,0.65625 0.921875,0.65625 0.671875,0 1.03125,-0.703125 1.046875,-0.75 0.125,0.359375 0.484375,0.75 1.078125,0.75 1.03125,0 1.59375,-1.28125 1.59375,-1.53125 0,-0.109375 -0.078125,-0.109375 -0.109375,-0.109375 -0.09375,0 -0.109375,0.046875 -0.140625,0.109375 -0.328125,1.078125 -1,1.3125 -1.3125,1.3125 -0.390625,0 -0.546875,-0.3125 -0.546875,-0.65625 0,-0.21875 0.046875,-0.4375 0.15625,-0.875 z m 0,0"
               style="stroke:none;stroke-width:0" />
          </g>
          <g
             id="g3365"
             style="fill:#000000;fill-opacity:1">
            <path
               inkscape:connector-curvature="0"
               id="path3363"
               transform="translate(154.406,131.149)"
               d="m 2.015625,-3.296875 c 0.0625,-0.109375 0.0625,-0.171875 0.0625,-0.21875 0,-0.21875 -0.1875,-0.375 -0.40625,-0.375 -0.265625,0 -0.34375,0.21875 -0.375,0.328125 L 0.375,-0.546875 c -0.015625,0.015625 -0.046875,0.09375 -0.046875,0.109375 0,0.078125 0.21875,0.15625 0.28125,0.15625 0.046875,0 0.046875,-0.015625 0.09375,-0.125 z m 0,0"
               style="stroke:none;stroke-width:0" />
          </g>
        </g>
      </g>
      <g
         transform="matrix(0.386599,0,0,0.386599,59.167514,128.72827)"
         ns1:version="0.11.0"
         ns1:texconverter="pdflatex"
         ns1:pdfconverter="pdf2svg"
         ns1:text="$y\'$"
         ns1:preamble="/home/nrotella/.config/inkscape/extensions/textext/default_packages.tex"
         ns1:scale="1.09587240377"
         ns1:alignment="middle center"
         ns1:jacobian_sqrt="0.386599"
         id="g3509">
        <g
           id="g3507">
          <g
             style="fill:#000000;fill-opacity:1"
             id="g3501">
            <path
               inkscape:connector-curvature="0"
               style="stroke:none;stroke-width:0"
               d="m 4.84375,-3.796875 c 0.046875,-0.140625 0.046875,-0.15625 0.046875,-0.234375 0,-0.171875 -0.140625,-0.265625 -0.296875,-0.265625 -0.09375,0 -0.25,0.0625 -0.34375,0.203125 -0.015625,0.0625 -0.109375,0.359375 -0.140625,0.546875 -0.078125,0.25 -0.140625,0.53125 -0.203125,0.796875 l -0.453125,1.796875 c -0.03125,0.140625 -0.46875,0.84375 -1.125,0.84375 -0.5,0 -0.609375,-0.4375 -0.609375,-0.8125 C 1.71875,-1.375 1.890625,-2 2.21875,-2.875 2.375,-3.28125 2.421875,-3.390625 2.421875,-3.59375 c 0,-0.4375 -0.3125,-0.8125 -0.8125,-0.8125 -0.953125,0 -1.3125,1.453125 -1.3125,1.53125 0,0.109375 0.09375,0.109375 0.109375,0.109375 0.109375,0 0.109375,-0.03125 0.15625,-0.1875 0.28125,-0.9375 0.671875,-1.234375 1.015625,-1.234375 0.078125,0 0.25,0 0.25,0.3125 0,0.25 -0.109375,0.515625 -0.171875,0.703125 -0.40625,1.0625 -0.578125,1.625 -0.578125,2.09375 0,0.890625 0.625,1.1875 1.21875,1.1875 0.390625,0 0.71875,-0.171875 1,-0.453125 -0.125,0.515625 -0.25,1.015625 -0.640625,1.546875 -0.265625,0.328125 -0.640625,0.625 -1.09375,0.625 -0.140625,0 -0.59375,-0.03125 -0.765625,-0.421875 0.15625,0 0.296875,0 0.421875,-0.125 C 1.328125,1.203125 1.421875,1.0625 1.421875,0.875 1.421875,0.5625 1.15625,0.53125 1.0625,0.53125 0.828125,0.53125 0.5,0.6875 0.5,1.171875 c 0,0.5 0.4375,0.875 1.0625,0.875 1.015625,0 2.046875,-0.90625 2.328125,-2.03125 z m 0,0"
               transform="translate(148.712,134.765)"
               id="path3499" />
          </g>
          <g
             style="fill:#000000;fill-opacity:1"
             id="g3505">
            <path
               inkscape:connector-curvature="0"
               style="stroke:none;stroke-width:0"
               d="m 2.015625,-3.296875 c 0.0625,-0.109375 0.0625,-0.171875 0.0625,-0.21875 0,-0.21875 -0.1875,-0.375 -0.40625,-0.375 -0.265625,0 -0.34375,0.21875 -0.375,0.328125 L 0.375,-0.546875 c -0.015625,0.015625 -0.046875,0.09375 -0.046875,0.109375 0,0.078125 0.21875,0.15625 0.28125,0.15625 0.046875,0 0.046875,-0.015625 0.09375,-0.125 z m 0,0"
               transform="translate(153.954,131.149)"
               id="path3503" />
          </g>
        </g>
      </g>
      <g
         id="g3653"
         ns1:jacobian_sqrt="0.491585"
         ns1:alignment="middle center"
         ns1:scale="1.39347059653"
         ns1:preamble="/home/nrotella/.config/inkscape/extensions/textext/default_packages.tex"
         ns1:text="$z\'$"
         ns1:pdfconverter="pdf2svg"
         ns1:texconverter="pdflatex"
         ns1:version="0.11.0"
         transform="matrix(0.491585,0,0,0.491585,41.831719,102.04991)">
        <g
           id="g3651">
          <g
             id="g3645"
             style="fill:#000000;fill-opacity:1">
            <path
               inkscape:connector-curvature="0"
               id="path3643"
               transform="translate(148.712,134.765)"
               d="m 1.328125,-0.828125 c 0.53125,-0.578125 0.828125,-0.828125 1.1875,-1.140625 0,0 0.609375,-0.53125 0.96875,-0.890625 C 4.4375,-3.78125 4.65625,-4.265625 4.65625,-4.3125 c 0,-0.09375 -0.09375,-0.09375 -0.109375,-0.09375 -0.078125,0 -0.09375,0.015625 -0.15625,0.109375 -0.296875,0.484375 -0.5,0.640625 -0.734375,0.640625 -0.25,0 -0.359375,-0.15625 -0.515625,-0.328125 -0.1875,-0.21875 -0.359375,-0.421875 -0.6875,-0.421875 -0.75,0 -1.203125,0.921875 -1.203125,1.140625 0,0.046875 0.03125,0.109375 0.109375,0.109375 0.09375,0 0.109375,-0.046875 0.140625,-0.109375 0.1875,-0.46875 0.765625,-0.46875 0.84375,-0.46875 0.203125,0 0.390625,0.0625 0.625,0.140625 0.40625,0.15625 0.515625,0.15625 0.765625,0.15625 -0.359375,0.421875 -1.1875,1.140625 -1.375,1.296875 l -0.90625,0.84375 C 0.78125,-0.625 0.421875,-0.0625 0.421875,0.015625 c 0,0.09375 0.109375,0.09375 0.125,0.09375 0.078125,0 0.09375,-0.015625 0.15625,-0.125 0.234375,-0.359375 0.53125,-0.625 0.859375,-0.625 0.21875,0 0.328125,0.09375 0.578125,0.375 0.15625,0.21875 0.34375,0.375 0.625,0.375 1,0 1.578125,-1.265625 1.578125,-1.53125 0,-0.046875 -0.046875,-0.109375 -0.125,-0.109375 -0.09375,0 -0.109375,0.0625 -0.140625,0.140625 C 3.84375,-0.75 3.203125,-0.5625 2.875,-0.5625 c -0.1875,0 -0.375,-0.0625 -0.578125,-0.125 -0.34375,-0.125 -0.5,-0.171875 -0.703125,-0.171875 -0.015625,0 -0.171875,0 -0.265625,0.03125 z m 0,0"
               style="stroke:none;stroke-width:0" />
          </g>
          <g
             id="g3649"
             style="fill:#000000;fill-opacity:1">
            <path
               inkscape:connector-curvature="0"
               id="path3647"
               transform="translate(153.784,131.149)"
               d="m 2.015625,-3.296875 c 0.0625,-0.109375 0.0625,-0.171875 0.0625,-0.21875 0,-0.21875 -0.1875,-0.375 -0.40625,-0.375 -0.265625,0 -0.34375,0.21875 -0.375,0.328125 L 0.375,-0.546875 c -0.015625,0.015625 -0.046875,0.09375 -0.046875,0.109375 0,0.078125 0.21875,0.15625 0.28125,0.15625 0.046875,0 0.046875,-0.015625 0.09375,-0.125 z m 0,0"
               style="stroke:none;stroke-width:0" />
          </g>
        </g>
      </g>
      <path
         style="opacity:1;fill:#000000;fill-opacity:0.37288136;stroke:#000000;stroke-width:0.13609499;stroke-miterlimit:4;stroke-dasharray:none;stroke-dashoffset:0;stroke-opacity:1"
         id="path3846"
         sodipodi:type="arc"
         sodipodi:cx="-5.5772271"
         sodipodi:cy="207.59827"
         sodipodi:rx="18.761299"
         sodipodi:ry="10.08487"
         sodipodi:start="2.8862346"
         sodipodi:end="2.8655804"
         d="m -23.730152,210.14562 a 18.761299,10.08487 0 0 1 13.320303,-12.29192 18.761299,10.08487 0 0 1 22.93564,7.09658 18.761299,10.08487 0 0 1 -13.08344573,12.3652 18.761299,10.08487 0 0 1 -23.07075327,-6.96887"
         sodipodi:open="true"
         transform="rotate(-33.354481)" />
      <path
         style="fill:none;stroke:#000000;stroke-width:0.26499999;stroke-linecap:butt;stroke-linejoin:miter;stroke-miterlimit:4;stroke-dasharray:none;stroke-opacity:1;marker-end:url(#marker1153)"
         d="M 60.963386,200.12261 109.73753,175.95893"
         id="path5462"
         inkscape:connector-curvature="0"
         sodipodi:nodetypes="cc" />
      <g
         transform="matrix(0.491585,0,0,0.491585,5.4348925,122.90679)"
         ns1:version="0.11.0"
         ns1:texconverter="pdflatex"
         ns1:pdfconverter="pdf2svg"
         ns1:text="$o\'$"
         ns1:preamble="/home/nrotella/.config/inkscape/extensions/textext/default_packages.tex"
         ns1:scale="1.39347059653"
         ns1:alignment="middle center"
         ns1:jacobian_sqrt="0.491585"
         id="g6105">
        <g
           id="g6103">
          <g
             style="fill:#000000;fill-opacity:1"
             id="g6097">
            <path
               inkscape:connector-curvature="0"
               style="stroke:none;stroke-width:0"
               d="m 4.671875,-2.71875 c 0,-1.046875 -0.6875,-1.6875 -1.59375,-1.6875 -1.328125,0 -2.671875,1.421875 -2.671875,2.828125 0,0.984375 0.671875,1.6875 1.59375,1.6875 1.328125,0 2.671875,-1.375 2.671875,-2.828125 z m -2.65625,2.609375 c -0.4375,0 -0.875,-0.3125 -0.875,-1.09375 0,-0.484375 0.265625,-1.5625 0.578125,-2.0625 0.5,-0.765625 1.078125,-0.921875 1.359375,-0.921875 0.578125,0 0.875,0.484375 0.875,1.078125 0,0.390625 -0.203125,1.4375 -0.578125,2.078125 -0.359375,0.578125 -0.90625,0.921875 -1.359375,0.921875 z m 0,0"
               transform="translate(148.712,134.765)"
               id="path6095" />
          </g>
          <g
             style="fill:#000000;fill-opacity:1"
             id="g6101">
            <path
               inkscape:connector-curvature="0"
               style="stroke:none;stroke-width:0"
               d="m 2.015625,-3.296875 c 0.0625,-0.109375 0.0625,-0.171875 0.0625,-0.21875 0,-0.21875 -0.1875,-0.375 -0.40625,-0.375 -0.265625,0 -0.34375,0.21875 -0.375,0.328125 L 0.375,-0.546875 c -0.015625,0.015625 -0.046875,0.09375 -0.046875,0.109375 0,0.078125 0.21875,0.15625 0.28125,0.15625 0.046875,0 0.046875,-0.015625 0.09375,-0.125 z m 0,0"
               transform="translate(153.541,131.149)"
               id="path6099" />
          </g>
        </g>
      </g>
    </g>
  </g>
</svg>
