<?xml version="1.0" encoding="UTF-8" standalone="no"?>
<svg
   xmlns:dc="http://purl.org/dc/elements/1.1/"
   xmlns:cc="http://creativecommons.org/ns#"
   xmlns:rdf="http://www.w3.org/1999/02/22-rdf-syntax-ns#"
   xmlns:svg="http://www.w3.org/2000/svg"
   xmlns="http://www.w3.org/2000/svg"
   xmlns:sodipodi="http://sodipodi.sourceforge.net/DTD/sodipodi-0.dtd"
   xmlns:inkscape="http://www.inkscape.org/namespaces/inkscape"
   id="svg5808"
   version="1.1"
   inkscape:version="1.0.1 (1.0.1+r73)"
   width="922.4209"
   height="856.18481"
   xml:space="preserve"
   sodipodi:docname="zmp_lipm_end_m6.svg"
   inkscape:export-filename="/home/nrotella/Documents/nrotella.github.io/assets/img/zmp_lipm_end_m5.png"
   inkscape:export-xdpi="300"
   inkscape:export-ydpi="300"><metadata
     id="metadata5814"><rdf:RDF><cc:Work
         rdf:about=""><dc:format>image/svg+xml</dc:format><dc:type
           rdf:resource="http://purl.org/dc/dcmitype/StillImage" /><dc:title></dc:title></cc:Work></rdf:RDF></metadata><defs
     id="defs5812"><marker
       style="overflow:visible"
       id="TriangleInL"
       refX="0.0"
       refY="0.0"
       orient="auto"
       inkscape:stockid="TriangleInL"
       inkscape:isstock="true"><path
         transform="scale(-0.8)"
         style="fill-rule:evenodd;stroke:#000000;stroke-width:1pt;stroke-opacity:1;fill:#000000;fill-opacity:1"
         d="M 5.77,0.0 L -2.88,5.0 L -2.88,-5.0 L 5.77,0.0 z "
         id="path6028" /></marker><marker
       style="overflow:visible"
       id="marker6225"
       refX="0.0"
       refY="0.0"
       orient="auto"
       inkscape:stockid="Arrow2Mstart"
       inkscape:isstock="true"><path
         transform="scale(0.6) translate(0,0)"
         d="M 8.7185878,4.0337352 L -2.2072895,0.016013256 L 8.7185884,-4.0017078 C 6.9730900,-1.6296469 6.9831476,1.6157441 8.7185878,4.0337352 z "
         style="fill-rule:evenodd;stroke-width:0.625;stroke-linejoin:round;stroke:#000000;stroke-opacity:1;fill:#000000;fill-opacity:1"
         id="path6223" /></marker><marker
       style="overflow:visible"
       id="Arrow2Mstart"
       refX="0.0"
       refY="0.0"
       orient="auto"
       inkscape:stockid="Arrow2Mstart"
       inkscape:isstock="true"><path
         transform="scale(0.6) translate(0,0)"
         d="M 8.7185878,4.0337352 L -2.2072895,0.016013256 L 8.7185884,-4.0017078 C 6.9730900,-1.6296469 6.9831476,1.6157441 8.7185878,4.0337352 z "
         style="fill-rule:evenodd;stroke-width:0.625;stroke-linejoin:round;stroke:#000000;stroke-opacity:1;fill:#000000;fill-opacity:1"
         id="path5919" /></marker><marker
       style="overflow:visible"
       id="Arrow2Lstart"
       refX="0.0"
       refY="0.0"
       orient="auto"
       inkscape:stockid="Arrow2Lstart"
       inkscape:isstock="true"><path
         transform="scale(1.1) translate(1,0)"
         d="M 8.7185878,4.0337352 L -2.2072895,0.016013256 L 8.7185884,-4.0017078 C 6.9730900,-1.6296469 6.9831476,1.6157441 8.7185878,4.0337352 z "
         style="fill-rule:evenodd;stroke-width:0.625;stroke-linejoin:round;stroke:#000000;stroke-opacity:1;fill:#000000;fill-opacity:1"
         id="path5913" /></marker><marker
       style="overflow:visible;"
       id="Arrow1Lend"
       refX="0.0"
       refY="0.0"
       orient="auto"
       inkscape:stockid="Arrow1Lend"
       inkscape:isstock="true"><path
         transform="scale(0.8) rotate(180) translate(12.5,0)"
         style="fill-rule:evenodd;stroke:#000000;stroke-width:1pt;stroke-opacity:1;fill:#000000;fill-opacity:1"
         d="M 0.0,0.0 L 5.0,-5.0 L -12.5,0.0 L 5.0,5.0 L 0.0,0.0 z "
         id="path5898" /></marker><clipPath
       clipPathUnits="userSpaceOnUse"
       id="clipPath5822"><path
         d="M 0,-0.2 H 793.6 V 595 H 0 Z"
         clip-rule="evenodd"
         id="path5824"
         inkscape:connector-curvature="0" /></clipPath><clipPath
       clipPathUnits="userSpaceOnUse"
       id="clipPath5054"><circle
         style="fill:#000000;fill-opacity:1;stroke:#000000;stroke-width:0;stroke-linejoin:round;stroke-miterlimit:4;stroke-dasharray:none;stroke-dashoffset:0;stroke-opacity:1"
         id="path5056"
         transform="matrix(0.8,0,0,-0.8,52.259882,269.35402)"
         cx="364.42517"
         cy="41.942535"
         r="16.528622" /></clipPath><clipPath
       clipPathUnits="userSpaceOnUse"
       id="clipPath5054-3"><circle
         style="fill:#000000;fill-opacity:1;stroke:#000000;stroke-width:0;stroke-linejoin:round;stroke-miterlimit:4;stroke-dasharray:none;stroke-dashoffset:0;stroke-opacity:1"
         id="path5056-6"
         transform="matrix(0.8,0,0,-0.8,52.259882,269.35402)"
         cx="364.42517"
         cy="41.942535"
         r="16.528622" /></clipPath><clipPath
       clipPathUnits="userSpaceOnUse"
       id="clipPath5054-3-6"><circle
         style="fill:#000000;fill-opacity:1;stroke:#000000;stroke-width:0;stroke-linejoin:round;stroke-miterlimit:4;stroke-dasharray:none;stroke-dashoffset:0;stroke-opacity:1"
         id="path5056-6-0"
         transform="matrix(0.8,0,0,-0.8,52.259882,269.35402)"
         cx="364.42517"
         cy="41.942535"
         r="16.528622" /></clipPath><clipPath
       clipPathUnits="userSpaceOnUse"
       id="clipPath5054-3-6-2"><circle
         style="fill:#000000;fill-opacity:1;stroke:#000000;stroke-width:0;stroke-linejoin:round;stroke-miterlimit:4;stroke-dasharray:none;stroke-dashoffset:0;stroke-opacity:1"
         id="path5056-6-0-2"
         transform="matrix(0.8,0,0,-0.8,52.259882,269.35402)"
         cx="364.42517"
         cy="41.942535"
         r="16.528622" /></clipPath><clipPath
       clipPathUnits="userSpaceOnUse"
       id="clipPath5054-3-6-2-9"><circle
         style="fill:#000000;fill-opacity:1;stroke:#000000;stroke-width:0;stroke-linejoin:round;stroke-miterlimit:4;stroke-dasharray:none;stroke-dashoffset:0;stroke-opacity:1"
         id="path5056-6-0-2-4"
         transform="matrix(0.8,0,0,-0.8,52.259882,269.35402)"
         cx="364.42517"
         cy="41.942535"
         r="16.528622" /></clipPath><clipPath
       clipPathUnits="userSpaceOnUse"
       id="clipPath5054-3-6-2-9-3"><circle
         style="fill:#000000;fill-opacity:1;stroke:#000000;stroke-width:0;stroke-linejoin:round;stroke-miterlimit:4;stroke-dasharray:none;stroke-dashoffset:0;stroke-opacity:1"
         id="path5056-6-0-2-4-2"
         transform="matrix(0.8,0,0,-0.8,52.259882,269.35402)"
         cx="364.42517"
         cy="41.942535"
         r="16.528622" /></clipPath><clipPath
       clipPathUnits="userSpaceOnUse"
       id="clipPath5054-3-6-2-9-9"><circle
         style="fill:#000000;fill-opacity:1;stroke:#000000;stroke-width:0;stroke-linejoin:round;stroke-miterlimit:4;stroke-dasharray:none;stroke-dashoffset:0;stroke-opacity:1"
         id="path5056-6-0-2-4-3"
         transform="matrix(0.8,0,0,-0.8,52.259882,269.35402)"
         cx="364.42517"
         cy="41.942535"
         r="16.528622" /></clipPath><clipPath
       clipPathUnits="userSpaceOnUse"
       id="clipPath5054-3-6-2-9-9-7"><circle
         style="fill:#000000;fill-opacity:1;stroke:#000000;stroke-width:0;stroke-linejoin:round;stroke-miterlimit:4;stroke-dasharray:none;stroke-dashoffset:0;stroke-opacity:1"
         id="path5056-6-0-2-4-3-8"
         transform="matrix(0.8,0,0,-0.8,52.259882,269.35402)"
         cx="364.42517"
         cy="41.942535"
         r="16.528622" /></clipPath><clipPath
       clipPathUnits="userSpaceOnUse"
       id="clipPath5054-3-6-5"><circle
         style="fill:#000000;fill-opacity:1;stroke:#000000;stroke-width:0;stroke-linejoin:round;stroke-miterlimit:4;stroke-dasharray:none;stroke-dashoffset:0;stroke-opacity:1"
         id="path5056-6-0-9"
         transform="matrix(0.8,0,0,-0.8,52.259882,269.35402)"
         cx="364.42517"
         cy="41.942535"
         r="16.528622" /></clipPath><clipPath
       clipPathUnits="userSpaceOnUse"
       id="clipPath5054-3-61"><circle
         style="fill:#000000;fill-opacity:1;stroke:#000000;stroke-width:0;stroke-linejoin:round;stroke-miterlimit:4;stroke-dasharray:none;stroke-dashoffset:0;stroke-opacity:1"
         id="path5056-6-1"
         transform="matrix(0.8,0,0,-0.8,52.259882,269.35402)"
         cx="364.42517"
         cy="41.942535"
         r="16.528622" /></clipPath><clipPath
       clipPathUnits="userSpaceOnUse"
       id="clipPath5054-3-6-2-8"><circle
         style="fill:#000000;fill-opacity:1;stroke:#000000;stroke-width:0;stroke-linejoin:round;stroke-miterlimit:4;stroke-dasharray:none;stroke-dashoffset:0;stroke-opacity:1"
         id="path5056-6-0-2-48"
         transform="matrix(0.8,0,0,-0.8,52.259882,269.35402)"
         cx="364.42517"
         cy="41.942535"
         r="16.528622" /></clipPath><clipPath
       clipPathUnits="userSpaceOnUse"
       id="clipPath5054-3-6-2-9-1"><circle
         style="fill:#000000;fill-opacity:1;stroke:#000000;stroke-width:0;stroke-linejoin:round;stroke-miterlimit:4;stroke-dasharray:none;stroke-dashoffset:0;stroke-opacity:1"
         id="path5056-6-0-2-4-0"
         transform="matrix(0.8,0,0,-0.8,52.259882,269.35402)"
         cx="364.42517"
         cy="41.942535"
         r="16.528622" /></clipPath><clipPath
       clipPathUnits="userSpaceOnUse"
       id="clipPath5054-3-6-2-9-3-3"><circle
         style="fill:#000000;fill-opacity:1;stroke:#000000;stroke-width:0;stroke-linejoin:round;stroke-miterlimit:4;stroke-dasharray:none;stroke-dashoffset:0;stroke-opacity:1"
         id="path5056-6-0-2-4-2-0"
         transform="matrix(0.8,0,0,-0.8,52.259882,269.35402)"
         cx="364.42517"
         cy="41.942535"
         r="16.528622" /></clipPath><clipPath
       clipPathUnits="userSpaceOnUse"
       id="clipPath5054-3-6-2-9-9-4"><circle
         style="fill:#000000;fill-opacity:1;stroke:#000000;stroke-width:0;stroke-linejoin:round;stroke-miterlimit:4;stroke-dasharray:none;stroke-dashoffset:0;stroke-opacity:1"
         id="path5056-6-0-2-4-3-4"
         transform="matrix(0.8,0,0,-0.8,52.259882,269.35402)"
         cx="364.42517"
         cy="41.942535"
         r="16.528622" /></clipPath><clipPath
       clipPathUnits="userSpaceOnUse"
       id="clipPath5054-3-6-2-9-9-7-4"><circle
         style="fill:#000000;fill-opacity:1;stroke:#000000;stroke-width:0;stroke-linejoin:round;stroke-miterlimit:4;stroke-dasharray:none;stroke-dashoffset:0;stroke-opacity:1"
         id="path5056-6-0-2-4-3-8-4"
         transform="matrix(0.8,0,0,-0.8,52.259882,269.35402)"
         cx="364.42517"
         cy="41.942535"
         r="16.528622" /></clipPath><clipPath
       clipPathUnits="userSpaceOnUse"
       id="clipPath5054-3-6-1"><circle
         style="fill:#000000;fill-opacity:1;stroke:#000000;stroke-width:0;stroke-linejoin:round;stroke-miterlimit:4;stroke-dasharray:none;stroke-dashoffset:0;stroke-opacity:1"
         id="path5056-6-0-27"
         transform="matrix(0.8,0,0,-0.8,52.259882,269.35402)"
         cx="364.42517"
         cy="41.942535"
         r="16.528622" /></clipPath><clipPath
       clipPathUnits="userSpaceOnUse"
       id="clipPath5054-3-0"><circle
         style="fill:#000000;fill-opacity:1;stroke:#000000;stroke-width:0;stroke-linejoin:round;stroke-miterlimit:4;stroke-dasharray:none;stroke-dashoffset:0;stroke-opacity:1"
         id="path5056-6-9"
         transform="matrix(0.8,0,0,-0.8,52.259882,269.35402)"
         cx="364.42517"
         cy="41.942535"
         r="16.528622" /></clipPath><clipPath
       clipPathUnits="userSpaceOnUse"
       id="clipPath5054-3-6-2-3"><circle
         style="fill:#000000;fill-opacity:1;stroke:#000000;stroke-width:0;stroke-linejoin:round;stroke-miterlimit:4;stroke-dasharray:none;stroke-dashoffset:0;stroke-opacity:1"
         id="path5056-6-0-2-6"
         transform="matrix(0.8,0,0,-0.8,52.259882,269.35402)"
         cx="364.42517"
         cy="41.942535"
         r="16.528622" /></clipPath><clipPath
       clipPathUnits="userSpaceOnUse"
       id="clipPath5054-3-6-2-9-0"><circle
         style="fill:#000000;fill-opacity:1;stroke:#000000;stroke-width:0;stroke-linejoin:round;stroke-miterlimit:4;stroke-dasharray:none;stroke-dashoffset:0;stroke-opacity:1"
         id="path5056-6-0-2-4-6"
         transform="matrix(0.8,0,0,-0.8,52.259882,269.35402)"
         cx="364.42517"
         cy="41.942535"
         r="16.528622" /></clipPath></defs><sodipodi:namedview
     pagecolor="#ffffff"
     bordercolor="#666666"
     borderopacity="1"
     objecttolerance="10"
     gridtolerance="10"
     guidetolerance="10"
     inkscape:pageopacity="0"
     inkscape:pageshadow="2"
     inkscape:window-width="1848"
     inkscape:window-height="1016"
     id="namedview5810"
     showgrid="false"
     inkscape:snap-bbox="true"
     inkscape:bbox-paths="true"
     inkscape:bbox-nodes="true"
     inkscape:snap-bbox-edge-midpoints="true"
     inkscape:snap-bbox-midpoints="true"
     inkscape:object-paths="true"
     inkscape:object-nodes="true"
     inkscape:snap-intersection-paths="true"
     inkscape:snap-smooth-nodes="true"
     inkscape:snap-midpoints="true"
     inkscape:snap-object-midpoints="true"
     inkscape:snap-center="true"
     inkscape:zoom="4"
     inkscape:cx="387.52413"
     inkscape:cy="569.69246"
     inkscape:window-x="1992"
     inkscape:window-y="27"
     inkscape:window-maximized="1"
     inkscape:current-layer="g5816"
     fit-margin-top="0"
     fit-margin-left="0"
     fit-margin-right="0"
     fit-margin-bottom="0"
     inkscape:document-rotation="0"
     inkscape:snap-global="true" /><g
     id="g5816"
     inkscape:groupmode="layer"
     inkscape:label="zmp3"
     transform="matrix(1.25,0,0,-1.25,-92.015162,98.295002)"><rect
       style="fill:#ffffff;fill-opacity:1;stroke:none;stroke-width:3.2;stroke-dasharray:3.2, 12.8"
       id="rect4670"
       width="737.93671"
       height="684.94788"
       x="73.612129"
       y="-78.636002"
       transform="scale(1,-1)"
       inkscape:export-xdpi="300"
       inkscape:export-ydpi="300" /><path
       inkscape:connector-curvature="0"
       id="path5836-3"
       style="fill:none;stroke:none"
       d="m 89.541049,-581.31118 h 93.600001 l 72,72 h -86.4 z" /><path
       inkscape:connector-curvature="0"
       id="path5842-1"
       style="fill:none;stroke:none"
       d="m 355.94105,-458.91118 h 93.6 l 72,72 h -86.4 z" /><path
       inkscape:connector-curvature="0"
       id="path5848-7"
       style="fill:none;stroke:none"
       d="m 255.14105,-350.91118 h 93.6 l 72,72 h -86.4 z" /><path
       inkscape:connector-curvature="0"
       id="path5854-5"
       style="fill:none;stroke:none"
       d="m 499.94105,-278.91118 h 93.6 l 72,72 h -86.4 z" /><path
       inkscape:connector-curvature="0"
       id="path5860-9"
       style="fill:none;stroke:none"
       d="m 427.94105,-142.11118 h 93.6 l 72,72 h -86.4 z" /><path
       inkscape:connector-curvature="0"
       id="path5866-6"
       style="fill:none;stroke:none"
       d="m 211.94105,-595.71118 h 93.6 l 72,72 h -86.4 z" /><path
       inkscape:connector-curvature="0"
       id="path5872-2"
       style="fill:none;stroke:none"
       d="m 564.74105,-134.91118 h 93.6 l 72,72 h -86.4 z" /><path
       d="m 89.541049,-581.31118 h 93.600001 l 72,72 h -86.4 z"
       style="fill:#23b8dc;fill-opacity:1;fill-rule:evenodd;stroke:#000000;stroke-width:1.6;stroke-miterlimit:4;stroke-dasharray:none;stroke-opacity:1"
       id="path5832-1"
       inkscape:connector-curvature="0" /><path
       d="m 355.94105,-458.91118 h 93.6 l 72,72 h -86.4 z"
       style="fill:#23b8dc;fill-opacity:1;fill-rule:evenodd;stroke:#000000;stroke-width:1.6;stroke-miterlimit:4;stroke-dasharray:none;stroke-opacity:1"
       id="path5838-7"
       inkscape:connector-curvature="0" /><path
       d="m 255.14105,-350.91118 h 93.6 l 72,72 h -86.4 z"
       style="fill:#23b8dc;fill-opacity:1;fill-rule:evenodd;stroke:#000000;stroke-width:1.6;stroke-miterlimit:4;stroke-dasharray:none;stroke-opacity:1;opacity:0.3"
       id="path5844-8"
       inkscape:connector-curvature="0" /><path
       d="m 211.94105,-595.71118 h 93.6 l 72,72 h -86.4 z"
       style="fill:#23b8dc;fill-opacity:1;fill-rule:evenodd;stroke:#000000;stroke-width:1.6;stroke-miterlimit:4;stroke-dasharray:none;stroke-opacity:1"
       id="path5862-4"
       inkscape:connector-curvature="0" /><path
       inkscape:connector-curvature="0"
       id="path5836"
       style="fill:none;stroke:none;stroke-width:1"
       d="m 89.541033,-581.31118 h 93.600017 l 72,72 h -86.4 z" /><path
       inkscape:connector-curvature="0"
       id="path5842"
       style="fill:none;stroke:none;stroke-width:1"
       d="m 355.94105,-458.91118 h 93.6 l 72,72 h -86.4 z" /><path
       inkscape:connector-curvature="0"
       id="path5848"
       style="fill:none;stroke:none;stroke-width:1"
       d="m 255.14105,-350.91118 h 93.6 l 72,72 h -86.4 z" /><path
       inkscape:connector-curvature="0"
       id="path5854"
       style="fill:none;stroke:none;stroke-width:1"
       d="m 499.94105,-278.91118 h 93.6 l 72,72 h -86.4 z" /><path
       inkscape:connector-curvature="0"
       id="path5860"
       style="fill:none;stroke:none;stroke-width:1"
       d="m 427.94105,-142.11118 h 93.6 l 72,72 h -86.4 z" /><path
       inkscape:connector-curvature="0"
       id="path5866"
       style="fill:none;stroke:none;stroke-width:1"
       d="m 211.94105,-595.71118 h 93.6 l 72,72 h -86.4 z" /><path
       d="m 89.541033,-581.31118 h 93.600017 l 72,72 h -86.4 z"
       style="fill:#23b8dc;fill-opacity:1;fill-rule:evenodd;stroke:#000000;stroke-width:1.6;stroke-miterlimit:4;stroke-dasharray:none;stroke-opacity:1"
       id="path5832"
       inkscape:connector-curvature="0" /><path
       d="m 355.94105,-458.91118 h 93.6 l 72,72 h -86.4 z"
       style="fill:#23b8dc;fill-opacity:1;fill-rule:evenodd;stroke:#000000;stroke-width:1.6;stroke-miterlimit:4;stroke-dasharray:none;stroke-opacity:1"
       id="path5838"
       inkscape:connector-curvature="0" /><path
       d="m 499.94105,-278.91118 h 93.6 l 72,72 h -86.4 z"
       style="opacity:0.3;fill:#23b8dc;fill-opacity:1;fill-rule:evenodd;stroke:#000000;stroke-width:1.6;stroke-miterlimit:4;stroke-dasharray:none;stroke-opacity:1"
       id="path5850"
       inkscape:connector-curvature="0" /><path
       d="m 211.94105,-595.71118 h 93.6 l 72,72 h -86.4 z"
       style="fill:#23b8dc;fill-opacity:1;fill-rule:evenodd;stroke:#000000;stroke-width:1.6;stroke-miterlimit:4;stroke-dasharray:none;stroke-opacity:1"
       id="path5862"
       inkscape:connector-curvature="0" /><path
       d="m 291.14105,-566.91118 -122.4,21.6 280.8,129.6"
       style="fill:none;stroke:#00ffff;stroke-width:2.8866;stroke-linecap:butt;stroke-linejoin:round;stroke-miterlimit:10;stroke-dasharray:none;stroke-opacity:1"
       id="path5876"
       inkscape:connector-curvature="0"
       sodipodi:nodetypes="ccc" /><path
       d="m 291.14105,-566.91118 -122.4,21.6 280.8,129.6"
       style="fill:none;stroke:#00ffff;stroke-width:2.8866;stroke-linecap:butt;stroke-linejoin:round;stroke-miterlimit:10;stroke-dasharray:none;stroke-opacity:1"
       id="path5876-1"
       inkscape:connector-curvature="0"
       sodipodi:nodetypes="ccc" /><path
       style="opacity:0.2;fill:none;stroke:#000000;stroke-width:4;stroke-linecap:butt;stroke-linejoin:miter;stroke-miterlimit:4;stroke-dasharray:none;stroke-opacity:1"
       d="m 168.74105,-545.31118 43.23002,166.25977"
       id="path5465-8"
       inkscape:connector-curvature="0" /><g
       transform="matrix(-1.5134719,0,0,1.5134719,732.30274,-735.92807)"
       id="g5076-3-1-7"
       style="opacity:0.2"><g
         id="g5048-5-8-5"
         clip-path="url(#clipPath5054-3-6-5)"><rect
           transform="matrix(0.8,0,0,-0.8,0,286.3447)"
           y="28.930878"
           x="395.5"
           height="68.5"
           width="68.5"
           id="rect4882-6-7-38"
           style="fill:none;stroke:#000000;stroke-width:2;stroke-linejoin:round;stroke-miterlimit:4;stroke-dasharray:none;stroke-dashoffset:0;stroke-opacity:1" /><rect
           transform="matrix(0.8,0,0,-0.8,0,286.3447)"
           y="28.930872"
           x="395.5"
           height="34.25"
           width="34.25"
           id="rect4884-29-9-8"
           style="fill:#000000;fill-opacity:1;stroke:#000000;stroke-width:0;stroke-linejoin:round;stroke-miterlimit:4;stroke-dasharray:none;stroke-dashoffset:0;stroke-opacity:1" /><rect
           transform="scale(1,-1)"
           y="-263.19998"
           x="343.80002"
           height="27.4"
           width="27.4"
           id="rect4884-2-1-2-3"
           style="fill:none;stroke:#000000;stroke-width:0;stroke-linejoin:round;stroke-miterlimit:4;stroke-dasharray:none;stroke-dashoffset:0;stroke-opacity:1" /><rect
           transform="scale(1,-1)"
           y="-235.79999"
           x="343.79999"
           height="27.4"
           width="27.4"
           id="rect4884-7-2-0-1"
           style="fill:#000000;fill-opacity:1;stroke:#000000;stroke-width:0;stroke-linejoin:round;stroke-miterlimit:4;stroke-dasharray:none;stroke-dashoffset:0;stroke-opacity:1" /></g><circle
         style="fill:none;stroke:#000000;stroke-width:2;stroke-linejoin:round;stroke-miterlimit:4;stroke-dasharray:none;stroke-dashoffset:0;stroke-opacity:1"
         id="path5042-7-2-8"
         transform="matrix(0.8,0,0,-0.8,51.936984,269.03111)"
         cx="364.42517"
         cy="41.942535"
         r="16.528622" /></g><path
       inkscape:connector-curvature="0"
       id="path5084-0-3-9"
       d="m 211.90463,-369.9318 v 9.12017 l -1.26802,-0.12992 c -4.73964,-0.48559 -9.71303,-3.1664 -12.58949,-6.78612 -2.51374,-3.16328 -3.72442,-6.14802 -4.21251,-10.38535 l -0.10815,-0.93894 h 9.08908 9.08909 z"
       style="opacity:0.2;fill:#ffffff;fill-opacity:1;stroke:#000000;stroke-width:0.395342;stroke-linejoin:round;stroke-miterlimit:4;stroke-dasharray:none;stroke-dashoffset:0;stroke-opacity:1" /><path
       inkscape:connector-curvature="0"
       id="path5086-9-7-6"
       d="m 216.0901,-397.83661 c 4.03066,0.85006 7.10887,2.57068 9.95933,5.56695 2.95057,3.1015 4.73171,7.14442 4.9741,11.29041 l 0.11267,1.92729 h -9.51696 -9.51694 v -9.58704 -9.58704 l 1.1366,0.0139 c 0.62513,0.008 1.90818,0.17663 2.8512,0.37552 z"
       style="opacity:0.2;fill:#ffffff;fill-opacity:1;stroke:#000000;stroke-width:0.395342;stroke-linejoin:round;stroke-miterlimit:4;stroke-dasharray:none;stroke-dashoffset:0;stroke-opacity:1" /><path
       inkscape:connector-curvature="0"
       id="path4131-7-3"
       d="m 256.23819,-436.6519 34.90286,-130.25928"
       style="opacity:0.2;fill:none;stroke:#000000;stroke-width:4;stroke-linecap:butt;stroke-linejoin:miter;stroke-miterlimit:4;stroke-dasharray:none;stroke-opacity:1" /><g
       transform="matrix(0.98835472,0,0,0.98835472,-106.83325,-639.14785)"
       id="g5088-5-3"
       style="opacity:0.2"><g
         id="g5076-3-3"
         transform="matrix(1.5313044,0,0,1.5313044,-159.11311,-156.19975)"><g
           clip-path="url(#clipPath5054-3-61)"
           id="g5048-5-86"><rect
             style="fill:none;stroke:#000000;stroke-width:2;stroke-linejoin:round;stroke-miterlimit:4;stroke-dasharray:none;stroke-dashoffset:0;stroke-opacity:1"
             id="rect4882-6-0"
             width="68.5"
             height="68.5"
             x="395.5"
             y="28.930878"
             transform="matrix(0.8,0,0,-0.8,0,286.3447)" /><rect
             style="fill:#000000;fill-opacity:1;stroke:#000000;stroke-width:0;stroke-linejoin:round;stroke-miterlimit:4;stroke-dasharray:none;stroke-dashoffset:0;stroke-opacity:1"
             id="rect4884-29-4"
             width="34.25"
             height="34.25"
             x="395.5"
             y="28.930872"
             transform="matrix(0.8,0,0,-0.8,0,286.3447)" /><rect
             style="fill:none;stroke:#000000;stroke-width:0;stroke-linejoin:round;stroke-miterlimit:4;stroke-dasharray:none;stroke-dashoffset:0;stroke-opacity:1"
             id="rect4884-2-1-8"
             width="27.4"
             height="27.4"
             x="343.80002"
             y="-263.19998"
             transform="scale(1,-1)" /><rect
             style="fill:#000000;fill-opacity:1;stroke:#000000;stroke-width:0;stroke-linejoin:round;stroke-miterlimit:4;stroke-dasharray:none;stroke-dashoffset:0;stroke-opacity:1"
             id="rect4884-7-2-8"
             width="27.4"
             height="27.4"
             x="343.79999"
             y="-235.79999"
             transform="scale(1,-1)" /></g><circle
           transform="matrix(0.8,0,0,-0.8,51.936984,269.03111)"
           id="path5042-7-8"
           style="fill:none;stroke:#000000;stroke-width:2;stroke-linejoin:round;stroke-miterlimit:4;stroke-dasharray:none;stroke-dashoffset:0;stroke-opacity:1"
           cx="364.42517"
           cy="41.942535"
           r="16.528622" /></g><path
         style="fill:#ffffff;fill-opacity:1;stroke:#000000;stroke-width:0.5;stroke-linejoin:round;stroke-miterlimit:4;stroke-dasharray:none;stroke-dashoffset:0;stroke-opacity:1"
         d="M 459.27074,90.294784 V 78.76026 l 1.6037,0.164304 c 5.99435,0.614139 12.28434,4.004638 15.92228,8.582597 3.1792,4.000692 4.71037,7.775574 5.32767,13.134649 l 0.13679,1.1875 h -11.49522 -11.49522 z"
         id="path5084-0-9"
         inkscape:connector-curvature="0"
         transform="matrix(0.8,0,0,-0.8,0,286.3447)" /><path
         style="fill:#ffffff;fill-opacity:1;stroke:#000000;stroke-width:0.5;stroke-linejoin:round;stroke-miterlimit:4;stroke-dasharray:none;stroke-dashoffset:0;stroke-opacity:1"
         d="m 453.97725,125.58679 c -5.09769,-1.0751 -8.99079,-3.25122 -12.59584,-7.04068 -3.73167,-3.92256 -5.98433,-9.03575 -6.29088,-14.2793 l -0.1425,-2.4375 h 12.03636 12.03635 v 12.125 12.125 l -1.4375,-0.0176 c -0.79062,-0.01 -2.41332,-0.22339 -3.60599,-0.47493 z"
         id="path5086-9-77"
         inkscape:connector-curvature="0"
         transform="matrix(0.8,0,0,-0.8,0,286.3447)" /></g><path
       style="opacity:1;fill:none;stroke:#000000;stroke-width:4;stroke-linecap:butt;stroke-linejoin:miter;stroke-miterlimit:4;stroke-dasharray:none;stroke-opacity:1"
       d="m 387.02904,-265.82778 62.51201,-149.8834"
       id="path5467-6"
       inkscape:connector-curvature="0" /><g
       transform="matrix(-1.5134719,0,0,1.5134719,907.42732,-622.70444)"
       id="g5076-3-1-9-3"
       style="opacity:0.2"><g
         id="g5048-5-8-7-0"
         clip-path="url(#clipPath5054-3-6-2-8)"><rect
           transform="matrix(0.8,0,0,-0.8,0,286.3447)"
           y="28.930878"
           x="395.5"
           height="68.5"
           width="68.5"
           id="rect4882-6-7-3-3"
           style="fill:none;stroke:#000000;stroke-width:2;stroke-linejoin:round;stroke-miterlimit:4;stroke-dasharray:none;stroke-dashoffset:0;stroke-opacity:1" /><rect
           transform="matrix(0.8,0,0,-0.8,0,286.3447)"
           y="28.930872"
           x="395.5"
           height="34.25"
           width="34.25"
           id="rect4884-29-9-6-09"
           style="fill:#000000;fill-opacity:1;stroke:#000000;stroke-width:0;stroke-linejoin:round;stroke-miterlimit:4;stroke-dasharray:none;stroke-dashoffset:0;stroke-opacity:1" /><rect
           transform="scale(1,-1)"
           y="-263.19998"
           x="343.80002"
           height="27.4"
           width="27.4"
           id="rect4884-2-1-2-1-2"
           style="fill:none;stroke:#000000;stroke-width:0;stroke-linejoin:round;stroke-miterlimit:4;stroke-dasharray:none;stroke-dashoffset:0;stroke-opacity:1" /><rect
           transform="scale(1,-1)"
           y="-235.79999"
           x="343.79999"
           height="27.4"
           width="27.4"
           id="rect4884-7-2-0-2-5"
           style="fill:#000000;fill-opacity:1;stroke:#000000;stroke-width:0;stroke-linejoin:round;stroke-miterlimit:4;stroke-dasharray:none;stroke-dashoffset:0;stroke-opacity:1" /></g><circle
         style="fill:none;stroke:#000000;stroke-width:2;stroke-linejoin:round;stroke-miterlimit:4;stroke-dasharray:none;stroke-dashoffset:0;stroke-opacity:1"
         id="path5042-7-2-9-4"
         transform="matrix(0.8,0,0,-0.8,51.936984,269.03111)"
         cx="364.42517"
         cy="41.942535"
         r="16.528622" /></g><path
       inkscape:connector-curvature="0"
       id="path5084-0-3-3-05"
       d="m 387.02921,-256.70816 v 9.12016 l -1.26802,-0.12991 c -4.73964,-0.48559 -9.71303,-3.1664 -12.58949,-6.78612 -2.51374,-3.16329 -3.72442,-6.14802 -4.21251,-10.38536 l -0.10815,-0.93893 h 9.08908 9.08909 z"
       style="opacity:0.2;fill:#ffffff;fill-opacity:1;stroke:#000000;stroke-width:0.395342;stroke-linejoin:round;stroke-miterlimit:4;stroke-dasharray:none;stroke-dashoffset:0;stroke-opacity:1" /><path
       inkscape:connector-curvature="0"
       id="path5086-9-7-1-9"
       d="m 391.21468,-284.61298 c 4.03066,0.85007 7.10887,2.57069 9.95933,5.56695 2.95057,3.10151 4.73171,7.14443 4.9741,11.29042 l 0.11267,1.92729 h -9.51696 -9.51694 v -9.58705 -9.58704 l 1.1366,0.0139 c 0.62513,0.008 1.90818,0.17663 2.8512,0.37552 z"
       style="opacity:0.2;fill:#ffffff;fill-opacity:1;stroke:#000000;stroke-width:0.395342;stroke-linejoin:round;stroke-miterlimit:4;stroke-dasharray:none;stroke-dashoffset:0;stroke-opacity:1" /><g
       id="g8757"><path
         d="m 334.34105,-307.71118 259.2,72"
         style="fill:none;stroke:#00ffff;stroke-width:2.8864;stroke-linecap:butt;stroke-linejoin:round;stroke-miterlimit:10;stroke-dasharray:8.6592, 8.6592;stroke-dashoffset:0;stroke-opacity:1"
         id="path5876-5"
         inkscape:connector-curvature="0"
         sodipodi:nodetypes="cc" /><path
         d="m 291.14105,-566.91118 -122.39999,21.6 280.79999,129.6 -115.2,108"
         style="fill:none;stroke:#00ffff;stroke-width:2.8866;stroke-linecap:butt;stroke-linejoin:round;stroke-miterlimit:10;stroke-dasharray:8.6598, 8.6598;stroke-dashoffset:0;stroke-opacity:1"
         id="path5876-1-6"
         inkscape:connector-curvature="0"
         sodipodi:nodetypes="cccc" /></g><g
       id="g8753"
       transform="translate(0.06446925)"><path
         style="fill:none;stroke:#ff0000;stroke-width:3.2;stroke-linecap:butt;stroke-linejoin:miter;stroke-miterlimit:4;stroke-dasharray:3.2, 12.8;stroke-dashoffset:0;stroke-opacity:1"
         d="m 379.26045,-155.29757 113.0909,31.41415 c 33.5054,12.33198 49.7917,27.38276 49.5479,45.04355"
         id="path6441-6"
         inkscape:connector-curvature="0"
         sodipodi:nodetypes="ccc" /><path
         style="fill:none;stroke:#ff0000;stroke-width:3.2;stroke-linecap:butt;stroke-linejoin:miter;stroke-miterlimit:4;stroke-dasharray:3.2, 12.8;stroke-dashoffset:0;stroke-opacity:1"
         d="m 256.30665,-436.65142 c -62.3634,13.34606 -96.7763,30.13216 -44.4,57.6 l 128.39191,59.25782 c 57.059,31.15954 52.4442,49.98432 39.43429,67.13008 l -55.6594,52.18072 c -14.046,24.67408 22.9272,34.23139 55.187,45.18523"
         id="path6441-2"
         inkscape:connector-curvature="0"
         sodipodi:nodetypes="cccccc" /></g><circle
       style="fill:#00ffff;fill-opacity:1;stroke:#000000;stroke-width:2.4;stroke-linecap:butt;stroke-miterlimit:4;stroke-dasharray:none;stroke-dashoffset:0;stroke-opacity:1"
       id="path5536-9"
       transform="scale(1,-1)"
       cx="449.54105"
       cy="415.71118"
       r="6.3812003" /><path
       style="fill:none;stroke:#ff0000;stroke-width:3.2;stroke-linecap:butt;stroke-linejoin:miter;stroke-miterlimit:4;stroke-dasharray:none;stroke-dashoffset:0;stroke-opacity:1"
       d="m 256.30465,-436.65196 c -62.3634,13.34606 -96.7763,30.13216 -44.4,57.6 l 128.3919,59.25782 c 57.059,31.15954 52.4442,49.98432 39.4343,67.13008"
       id="path6441"
       inkscape:connector-curvature="0"
       sodipodi:nodetypes="cccc" /><g
       id="g5144"
       transform="translate(-229.76403,-303.88766)"><g
         transform="matrix(-1.5134719,0,0,1.5134719,1136.7027,-318.32807)"
         id="g5076-3-1-9-8-4-8"><g
           id="g5048-5-8-7-4-5-8"
           clip-path="url(#clipPath5054-3-6-2-9-9-7-4)"><rect
             transform="matrix(0.8,0,0,-0.8,0,286.3447)"
             y="28.930878"
             x="395.5"
             height="68.5"
             width="68.5"
             id="rect4882-6-7-3-5-2-4"
             style="fill:none;stroke:#000000;stroke-width:2;stroke-linejoin:round;stroke-miterlimit:4;stroke-dasharray:none;stroke-dashoffset:0;stroke-opacity:1" /><rect
             transform="matrix(0.8,0,0,-0.8,0,286.3447)"
             y="28.930872"
             x="395.5"
             height="34.25"
             width="34.25"
             id="rect4884-29-9-6-0-54-3"
             style="fill:#000000;fill-opacity:1;stroke:#000000;stroke-width:0;stroke-linejoin:round;stroke-miterlimit:4;stroke-dasharray:none;stroke-dashoffset:0;stroke-opacity:1" /><rect
             transform="scale(1,-1)"
             y="-263.19998"
             x="343.80002"
             height="27.4"
             width="27.4"
             id="rect4884-2-1-2-1-3-7-1"
             style="fill:none;stroke:#000000;stroke-width:0;stroke-linejoin:round;stroke-miterlimit:4;stroke-dasharray:none;stroke-dashoffset:0;stroke-opacity:1" /><rect
             transform="scale(1,-1)"
             y="-235.79999"
             x="343.79999"
             height="27.4"
             width="27.4"
             id="rect4884-7-2-0-2-6-4-4"
             style="fill:#000000;fill-opacity:1;stroke:#000000;stroke-width:0;stroke-linejoin:round;stroke-miterlimit:4;stroke-dasharray:none;stroke-dashoffset:0;stroke-opacity:1" /></g><circle
           style="fill:none;stroke:#000000;stroke-width:2;stroke-linejoin:round;stroke-miterlimit:4;stroke-dasharray:none;stroke-dashoffset:0;stroke-opacity:1"
           id="path5042-7-2-9-1-4-9"
           transform="matrix(0.8,0,0,-0.8,51.936984,269.03111)"
           cx="364.42517"
           cy="41.942535"
           r="16.528622" /></g><path
         inkscape:connector-curvature="0"
         id="path5084-0-3-3-0-3-2"
         d="m 616.30463,47.66821 v 9.12016 l -1.26802,-0.12991 c -4.73964,-0.48559 -9.71303,-3.1664 -12.58949,-6.78612 -2.51374,-3.16329 -3.72442,-6.14802 -4.21251,-10.38536 l -0.10815,-0.93893 h 9.08908 9.08909 z"
         style="fill:#ffffff;fill-opacity:1;stroke:#000000;stroke-width:0.395342;stroke-linejoin:round;stroke-miterlimit:4;stroke-dasharray:none;stroke-dashoffset:0;stroke-opacity:1" /><path
         inkscape:connector-curvature="0"
         id="path5086-9-7-1-6-0-0"
         d="m 620.4901,19.76339 c 4.03066,0.85007 7.10887,2.57069 9.95933,5.56695 2.95057,3.10151 4.73171,7.14442 4.9741,11.29041 l 0.11267,1.9273 h -9.51696 -9.51694 v -9.58704 -9.58705 l 1.1366,0.0139 c 0.62513,0.008 1.90818,0.17663 2.8512,0.37552 z"
         style="fill:#ffffff;fill-opacity:1;stroke:#000000;stroke-width:0.395342;stroke-linejoin:round;stroke-miterlimit:4;stroke-dasharray:none;stroke-dashoffset:0;stroke-opacity:1" /></g></g></svg>
